<?xml version="1.0" encoding="utf-8"?>
<!-- Generator: Adobe Illustrator 24.0.1, SVG Export Plug-In . SVG Version: 6.00 Build 0)  -->
<svg version="1.1" id="svg2" xmlns:inkscape="http://www.inkscape.org/namespaces/inkscape" xmlns:svg="http://www.w3.org/2000/svg"
	 xmlns="http://www.w3.org/2000/svg" xmlns:xlink="http://www.w3.org/1999/xlink" x="0px" y="0px" viewBox="0 0 2511.3 1024"
	 style="enable-background:new 0 0 2511.3 1024;" xml:space="preserve">
<style type="text/css">
	.st0{clip-path:url(#SVGID_2_);}
	.st1{clip-path:url(#SVGID_4_);}
	.st2{clip-path:url(#SVGID_6_);}
	.st3{clip-path:url(#SVGID_8_);}
	.st4{fill:none;stroke:#FFFFFF;stroke-miterlimit:10;}
	.st5{fill:none;}
</style>
<g id="datalayer" transform="translate(0,0)" inkscape:groupmode="layer" inkscape:label="data">
	<g id="img_curvature" inkscape:groupmode="layer" inkscape:label="img_curvature">
		
			<image style="overflow:visible;enable-background:new    ;" width="2512" height="1024" id="image_curvature" xlink:href="../../FS_SJID/cortex/db/hcp_999999/5F2D97F8976F7588.png"  transform="matrix(0.9997 0 0 0.9997 7.274066e-02 0.1748)">
		</image>
	</g>
	<g id="img_sulcaldepth" inkscape:groupmode="layer" inkscape:label="img_sulcaldepth">
		
			<image style="overflow:visible;enable-background:new    ;" width="2512" height="1024" id="image_sulcaldepth" xlink:href="../../FS_SJID/cortex/db/hcp_999999/5F2D97F8976F7587.png"  transform="matrix(0.9997 0 0 0.9997 7.274066e-02 0.1748)">
		</image>
	</g>
	<g id="img_thickness" inkscape:groupmode="layer" inkscape:label="img_thickness">
		
			<image style="overflow:visible;enable-background:new    ;" width="2512" height="1024" id="image_thickness" xlink:href="../../FS_SJID/cortex/db/hcp_999999/5F2D97F8976F7580.png"  transform="matrix(0.9997 0 0 0.9997 7.274066e-02 0.1748)">
		</image>
	</g>
	<g id="img_curvature_1_" inkscape:groupmode="layer" inkscape:label="img_curvature">
		
			<image style="overflow:visible;enable-background:new    ;" width="2512" height="1024" id="image_curvature_2_" xlink:href="../../FS_SJID/cortex/db/hcp_999999/5F2D97F8976F7586.png"  transform="matrix(0.9997 0 0 0.9997 7.274066e-02 0.1748)">
		</image>
	</g>
	<g id="img_sulcaldepth_1_" inkscape:groupmode="layer" inkscape:label="img_sulcaldepth">
		
			<image style="overflow:visible;enable-background:new    ;" width="2512" height="1024" id="image_sulcaldepth_2_" xlink:href="../../FS_SJID/cortex/db/hcp_999999/5F2D97F8976F758E.png"  transform="matrix(0.9997 0 0 0.9997 7.274066e-02 0.1748)">
		</image>
	</g>
	<g id="img_thickness_1_" inkscape:groupmode="layer" inkscape:label="img_thickness">
		
			<image style="overflow:visible;enable-background:new    ;" width="2512" height="1024" id="image_thickness_2_" xlink:href="../../FS_SJID/cortex/db/hcp_999999/5F2D97F8976F75B3.png"  transform="matrix(0.9997 0 0 0.9997 7.274066e-02 0.1748)">
		</image>
	</g>
	<g id="img_myelin" inkscape:groupmode="layer" inkscape:label="img_myelin">
		
			<image style="overflow:visible;enable-background:new    ;" width="2512" height="1024" id="image_myelin" xlink:href="../../FS_SJID/cortex/db/hcp_999999/5F2D97F8976F75B4.png"  transform="matrix(0.9997 0 0 0.9997 7.274066e-02 0.1748)">
		</image>
	</g>
	<g id="img_hcp-mmp" inkscape:groupmode="layer" inkscape:label="img_hcp-mmp">
		
			<image style="overflow:visible;enable-background:new    ;" width="2512" height="1024" id="image_hcp-mmp" xlink:href="../../FS_SJID/cortex/db/hcp_999999/5F2D97F8976F75B5.png"  transform="matrix(0.9997 0 0 0.9997 7.274066e-02 0.1748)">
		</image>
	</g>
</g>
<g id="rois" transform="translate(0,0)" inkscape:groupmode="layer" inkscape:label="rois">
	<g>
		<g>
			<defs>
				<path id="SVGID_1_" d="M1600.1,103.8l-1.4,3.3l-1.5,2.1l-4.9,9.1l-1.1,1.2l-1.9,4.6l-1.6,3.3l-2.8,3.3l-2.7,2.3l-3.1,2.6
					l-6.8,4.2l-1.2,0.6l-6.2,1.9l-2.9,0.2h-0.4l-2.9-0.6l-3.2-1l-3,0.2l-2.5-0.6l-0.4,0.1l-2,0.5l-7-1.8h-0.3l-3.5-1h-4l-0.4-0.6
					l-5.5,0.1l-0.4-0.7l-3.1-0.3l-3.3-0.2l-3.4-0.5l-2.2,0.3l-1.2,0.3l-2.7-1.4l-0.8-0.3l-2.5,1.2l-3.3,0.1h-3l-2.3-0.3l-2.6,0.2
					l-2.7,1l-2.9,1.6l-2.7-0.1l-2.4-0.1l-1.7,0.5l-1.2-0.8l-1.5-0.9l-1.7,0.4l-2.6-0.8l-1.6-1.2l-1.6-1.2l-1.8-1.4l-1.9-1.3
					l-1.1,0.2l-1.8-1.3l-2.3-0.7l-1-0.3l-1.4-1.3l-1.8-1l-0.8-0.4l-0.9-0.1l0.4,0.2l1.1,2.5l1.2,3.2l1.6,3.5l0.5,3.9l-0.2,1.2l0.3,1
					l0.4,0.5l-0.6,2.2h2.1l-2,2.7l-0.5,2.7l1.8,0.6l-0.9,2.9l2.2,0.3l-0.5,2.9l-0.5,3.2l-0.7,3.8l0.5,3.9l-2.1,4.3l2.7-0.6l0.1,3.5
					l-0.4,4l-1.7,4.9l0.3,3.2l1.3,3.6l-0.8,8.4v1l-0.3,2.7l-0.9,3.6l1.2,0.8l-0.1,2.9l0.9,1.8h2.2l1.7,1.1l3.1,1.6l0.4,0.2l0.8,2.1
					l0.3,2.2l0.7,2.4l1,2.7l-3.3,3.3l-3.8,3.1l-2.7,2.9l1.2,2.7l-1.9,4.3l-1.5,4.1l-1.5,4.2l-1.5,3.6l-2.1,4.5l-1.8,4.2l-1.9,4.2
					l-2.3,4.1l-3.5,4l-4.9,4.6l-2.9,4.2l-2.1,4.7v6.6l-1.5,3.6l-0.8,6.5l-1.1,8l-0.6,8.1l3.5,0.5l-1.4,6.3l-2.5,8.3l-2.2,8.2
					l-0.5,6.1l0.2,5l1.1,6.6l2.2-0.1l-1.2,7.2l-2.5,8.1l-1.4,5.4l-4.2,7.6l-1.9,3.4l-0.9,3.5l3.1,0.8l-0.3,4.5l1.9,5.6l2.6-0.3
					l2.2,4.2l3.5,4.5l3.6,1l2.2,4.3l2.5,5.5l1,4.8l0.4,4.3l1.9,2l2.9,1.6l4.4-0.5l5.5,1.6l4.7,1.6l3.7,0.1l4.7,17.1l-7,0.9l-5.4-0.2
					l-6.4-2.3l-4.7-1.6l-4.1,1.6l-5.2-1.1h-5.9l-6.4,0.8l-6.2,1.1h-5.2l-6.3-1l-5.6,1.6l-10-2.4l-8.9-0.9l-2,2.3h-7l-6.3,0.7
					l-1.4,2.6l-6,1.2l-6.5,2.6l-6.5,6.5l-5.4,6.4l-9.5,6.8l-7.7,4.6l2.4,1.2l-7.4,3.5l-6.9,1.7l-5.8,1.4l-5.8,3.7l-3.6,4.4l-2.6,3.4
					l0.3,2.7l-4.9,4.1l-3.7,4.5l-3.9,5.3l-4.5,6.3l-6.1,1.1l-2.2,3.8l-2.8,4.7l-2.8,6.9l-3.5,8.9l-3.2,8.8l-2.6,9.2l-2.8,8.9
					l-2.1,8.9l-1,7.5l-0.5,6.1l-0.7,6.5l-0.8,5.4l-0.4,7.6l0.7,7.4l0.9,4.7l1.2,3.4l1.4,3l1.2,6l3.3,4.4l1.9-0.8l3.7,6l3.6,4.6
					l2.4-1l3.8,3.1l2.7,1.4l4.2-2.6l3.8,1.4l4,1.8l6,3.6l8.1,5.3l6.8,3.3l4.5,4.1l4.3,3.9l2.8,3.3l3.5,3h1.6l4,3.1l3.6,4.1l2.7,2
					l3.3,2.1l4,1.4l1.1-0.1l2.6,1.6l1.9-0.4l4.4,2.9l4.5,3l2.4,0.9l5.5,5.2l5.1,3.9l8.5,8l2.7,3.4l2.8,4.8l2.9,8.5l0.7,4.1l0.3,3.2
					l0.3,5l-0.5,1.9l1,0.3l0.7,2.4l0.6,1.9l0.5,3.1l0.8,1.1l0.8,2.7l2,0.9l2.3,0.9l0.8,3.1l1.5,2.6l1.9,2l2.1,1.9l2,0.2l0.6,3.2
					l1.1,2.7l1.6,2.7l0.9,2.3l3.8,0.6l0.9,0.4l1.6,1.7l2.4,2.5l0.9,2.5l2.5-0.3l2.2,2.1l1.1,2.4h1.6l2.7,2l1.5,2.7l2.9,2.4l1.6,4
					l2.4,2l1.3,1.9l1.4,1.9l0.4,0.8l1.4,0.9l0.2,1.7l1.7,1.3l-0.1,0.9l1.2,3.6l0.5,0.4l2.6-2h3.3l2.7-0.4l2.4,0.1l2.3,0.6l1.4,1
					l0.7,1.5l1.9,3.1l0.7,0.8l0.5,3l0.5,1.2l0.3,1.4l0.2,1.2l1.8,1.7l4.6,5l0.9,0.5l2.6,2.7l2.1,2.7l1.2,2.6l0.4,3.2l0.9,1.5
					l-0.3,1.8l2.2,3.2l3,4.7l2.4,4.6l2.7,5.6l2.3,4.2l2,5.1l0.6,2.9l-0.3,0.7l1.7,3l4.3,4.3l3.3,4.2l4.1,2.4l2.4,3.5l4,1.4l4.1,1.2
					l2.5,2.4l6.9,1.1l5.6,0.6l5.8,0.6l5.1-0.3l3.6,1.5l8.2,1l4.6-1.6l2.5,0.6l4.9-1.3l4.7-3.5l0.2-4.1l3.4-3.9l2.5-5.6l1.5-6.9
					l2.3-7.5l2.7-6.5l2.5-5.9l2.5-5.5l2.2-4.2l1-3.5l0.3-4.9l1.9-4.4l0.5-4l2.9-1.3l-3.5-2.3l-1.3-3.8l1.1-1.3l-1.3-2.9l0.2-5.3
					l-0.5-5.8l-1.5-6.3l1.3-0.9l0.3-3l0.8-1.6l-0.3-8l0.6-5l2.2-1.4l1.6-2.7l0.8-3.1l0.2-3.9l-0.2-5.5l2.2-1.1l1.8-3.3l3.1-2.2
					l9.6,4.2l5.2,12.6l-0.3,4.4l0.4,4.7l-1.8,1.6l1.2,2.9l5.1,20l0.2,1.4l1.2,4.4l-0.6,2.6l1.8,2.9l2.4,6.6l4,9.9l4.9,11.5v4
					l2.9,7.8l3.1,5.3l2.9,5.4l1.8,7.4l-1.5,3.9l2.5,2.5l1.9,5.5l-3.1,3.2l4.5,3.2l5.6,3.8l5.2,6.5l5.9,7.1l5.4,6.9l4.9,7.6l6.1,9.4
					l5.8,10.3l4.2,9.1l3.7,4.8l5.9,4.4l6.8,2l7.3,4.2l8.1,4.6l10.8,4.8l4,3.4l14.5,4.5l12.2,1.3l9.4,6.6l5.6-2.7l10.6-3.8l10.1-2.3
					l8.6-1.1l7.4,0.6l7.8-4.2l6.6-6.4l4.3-3.4l6.2-7.7l5.8-5.2l4.8-7.9l0.7-0.8l1.5-4.3l1.1-3.9l1.3-4.6l-2.2-2.1l1.5-5l-1-1
					l-0.4-5.5l-0.4-5.1l1.3-6.4l1.4-6.2l-1.6-0.3l2-7.9l4.7-8.5l3.1-5.9l1.3-2.6l3.2-4.4l1.4-1l3.6-3.1l0.7,0.1l0.6-0.4l0.4-0.5
					l0.3-0.8l-0.1-0.2l-0.1-0.6l0.3-0.8l0.1-0.4l0.1-0.4l-0.5,0.1l-0.5,0.2l-5.7,0.3l-2.1-0.8l-2.1-1l-2-1.7l-1.8-2.5l-1.7-2.4
					l-0.6-3l-0.2-2.9l-0.2-2.2l-1-3.9l0.5-2.3l-3.4-5.2l0.2-5.2l1.6-3.7l-2.3-3.7l1.4-5.5l1.2-5.2l0.6-4.2l-1.2-2.1l1.5-5.5l1.4-6
					l0.7-4.7l0.5-4.5l-0.2-3.8l3.2-4.6l1.5-6l1.1-4.6l0.6-3.6l7.3-6.4l1.6-2.1l29.2-1.3l3.3,2.7l3.5,2.4l3.2,7.4l3,3.2l4,0.9l3,0.2
					l3.2,7l2.1,0.6l2.1,0.6l2,1.2l1.7,1.1l1.4-4l1.9,1.6l1.6,1.5l1,2.6l2.3-3.6l1,2.1l1.1,1.3l2.5-2.4l1.4,0.7l2.7-2.7l1.2,0.4
					l1.6,0.2l2-0.2l2.3-0.4l1.9-0.1l3.4-0.1l4.9-0.1l6.7-0.2l4.6-0.7l6.1-0.7l5.3-0.1l4,0.1l3.3,0.1l4.9,0.6l5.4,1.2l1.7,0.4
					l0.7,0.2l8.1,2.2l3.4,1.2l3.4,1.2l2.2,1.5l1.7,1.7l1.7,1.8l1.9,4.1l0.7,0.6l0.5,0.4l0.7,0.2l1.2-0.2l1.5-0.7l1,0.7l0.2,0.2
					l2.1,0.4l0.8,0.3l1.2,0.7l0,0l3.5,1.6l0.1,0.7l1.8-0.2l2.7-0.3l14.3,2.4l8.3,1.9l10.8,1.4l8.3-0.5l6.4-0.5l10.7-1.9l10,0.1
					l6.8,0.3l5.7-1.1l9.2-1.3l8.4-2.3l7.5-3.4l4.7,1.4l4.4-1.7l4-3.9l1.9,0.8l3.3-2.4l9.2-1.8l10.6-3.6l8.8-4l6.5-1.2l7.3-3.3
					l7.8-3.2l6.9-3.2l5.6-4.4l5.2-5l6.3-4.2l5.4-1.4l7-2.8l5.4-2.8l5.5-2.9l7.2,0.2l5.5-1.6l6.3-2.8l6.1-2.9l4.6-2.6l2.2-4.1
					l-0.1-3.3l3.2-4.2l3-3.1l0.5-3.3l3.3-3.9l-1.4-4l0.5-4.2l-0.3-3l0.1-3.3l1.5-5l1.2-7.3l0.9-4.5l0.3-6.2l3.3-5.6l-0.6-5.4l1.9-6
					l-1.3-4.7l0.7-5.4l-0.7-7.2l0.2-5.4l-2.3-5.3l-4.6-7.2l-3.3-6.8l-3.5-9l0.3-7.5l0.4-13l-0.7-2.8l-1.4-5.6l-1.6-6.8l-2.7-5.4
					l-2.1-4.5l-4.2-5.4l-3.5-7.2l-6.1-6.5l-3.3-8.3l-5.2-7.9l-6.6-2.3l-8.5-1.6l-7.9-3l-7.7-6l-6.7-0.9l-6.1-0.3l-6.8-1.2l-6.3-2.5
					l-5.8-1.1l-5.5-0.1l-4.9-2.8l-5-1.8l-6-3.1l-2-0.7h-3.6l-7.1,0.2l-3.9-1.4l-5.7-15.6l5.5-2.4l5,0.2l8.4,0.5l7.7,0.3l6.2,2.8
					l5.1,1.8l5.8,1.7l4.5,2.1l2.4-0.5l4.4-3.7l5.6-2.1l3.2-1.9l4.6-2.5l4.1-1.2l4.1,0.7l3.4-0.8l3.7-0.3l4.1-0.6l3.8,1.6l3,1.3
					l6.2,2.4l4,3.2l6,0.3l4.3,2.3l6-0.9l3.7,1.6l7.6-0.7l7.4-2.8l5.1,0.3l6.6-2.5l4-1.4l6-2.5l5.7-2.1l5.4-4.7l4.8-8l6.9-8.9
					l6.8-4.4l5-5.8l5.7-3.7l4.3-5.2l8.8-7.9l3.7-4.4l5.6-8.5l5.7-6.5l4.6-5.9l2.1-4.6l6.1-4.7l5.5-4.2l1.7-3l3.6-2.1l1-5.3l3.2-4.5
					l2.8-5.2l0.5-3.8l3.5-4.7l2.9-4.9l2.6-4.3l3.6-5.6l5.3-7.6l4.9-7.8l3.6-3.1l4.9-5.7l4.2-5.1l3.4-4.6l3.7-1.6l3.8-5.3l3.4-5
					l2.4-3.8l1.5-5.6l2-6.3l3.4-6.3l2.6-1.9l1.4-5.1l0.4-3.5l-1.4-7.8l0.7-10.4l2.1-6.8l0.9-5v-5.5l1.7-3l1.3-5.5l-1-5.7l-3.4-5.8
					l-4.2-5.8l-0.6-3.2l-1.7-4.6l-1.9-5.2l-2.8-6.8l-4.8-11.2l-2.9-3.1l-0.5-0.9l-0.5-0.4l-0.6-0.5l-0.7-0.5l-0.5,0.5l-0.5,2.5
					l-0.5,0.5l-1.3,0.2l-1.5,0.1l-1.2,0.2l-1.1,0.4l-1.3-0.2l-0.4-1.2l-2.4,2.5l-2.1,1.3l-2.2,1.3l-1.6,1l-1.8,0.9l-0.8,0.3l-1,0.3
					l-1.4,0.4l-1.6,0.5l-2.2,0.6l-4,0.7l-4.1,0.4l-4.1,0.2l-3.4-0.2l-1.3-0.1l-1.7-0.2h-1.6l-2,0.4l-2.8-0.4l-1.1-0.6l-1.5,1.2
					l-1.5,1.3l-1.7,2l-1.1,2.4l-1.8,1.3l-2.9,1.8l-2.9,2.6l-0.7,2.8l-3.4,5.3l-1.5,0.2l-2.3,2.6l-2.2,0.7l-1.2,2l-3.1-1l-2.8,2.6
					l-1.5,2l-2.5,2.7l-4,3.1l-2.6,3.2l-1.5,1.6l-1.7-0.4l-1.6,2.3l-1.3,1.6l-2.3,1.6l-1.7,0.9l-1,0.3l-1.9,2.7l-2.6,0.3l-2.4,0.2
					l-3-0.1l-1.6-1.9l-2.6,0.4l-2.6-2.1l-2.6-1.1l-1.5-0.4l-4-1.9l-2.3-0.3l-2.3-2l-2.8-2.5l-4.8-1.5l-0.5-0.1l-3.1-1.9l-4.7-6.4
					l-1-1.4l-4.2-2.9l-3.2-5l-3.6-4.8l-2.5-2.7l-5.7-5.9l-6.6-7.1l-4.4-5.3l-6.5-4.7l-1.1-1.2l-10.5-7.5l-5.4-4.4l-5.5-4.4l-5.9-5.2
					l-3.2-2.9l-2.6-2.6l-4.9-1.8l-7.1-5.6l-6.6-7.1l-6.2-3.9l-7-3.8l-7.2-3l-7.6-2.9l-9.8-5.3l-6.1-2l-6.4-2.8l-6-1.7l-3.6-2.5
					l-10-5.1l-4.7-1.4l-2.5-2l-5.9-3l-6.3-5.4l-3.2-1.6l-8.2-6.7l-2.9-3.4l-5.6-1.9l-5.9-4.5l-8.2-2.7l-3.4-0.5l-6.9-3l-1.2-0.8
					l-5.5-0.3l-5.7-1.4l-6.9-3.8l-0.5-0.4l-4-1.3l-3.9-3.5l-4-3.1l-0.5-0.9l-2.1-1.8l-1-1l-1-1.6l-2-1.5l-1.9-0.1l-1.6-0.2l-1.6,0.2
					l-2.3-0.7l-1.9-0.7l-1.4,1.3l-2.2,2.5l-1.6,0.7l-2.1,2.4l-1.6,0.2l-2.2,1.6l-3.2,1.7l-4.5,2l-4.4,0.3l-1.3,0.6l-2.8-0.3
					l-1.7,0.6l-2.2,0.9l-2.9,1l-2.9,0.4l-2.7,0.8l-2.4,0.7l-2.4,0.7l-1.4-0.2l-0.8,0.4l-2.2,0.1l-1.3-0.4l-0.8,0.3l-2.9-0.6
					l-3.1-0.6l-3.3-0.3l-5.1,0.5l-1.8,2.7l-4.6,1l-3.7-2.3l-3.4,0.8l-3.3-2l-3.1,0.9l-4.2,1.9l-2.6,1.7l-2.2-1.1l-2.1,2.1l-0.3,2
					l-2.6,1.6l-2.6-0.7l-2.1,0.4l-3.5,0.9l-4.4,1l-4,1.5l-3.4,1.1l-4.2,1.4l-4.2,1.5l-1.8-1.5l-2.8,2.7l-4.4,1.5l-4.5-1.1l-3.1,0.2
					l-5.1,2.3l-4.7,2l-3.9,2.2l-4.5,2.3l-4.1,2.8l-2.4-0.7l-4,2.6l-4.5,3.4l-7.3,3.1l-9.3,2.9l-8.8,3.7l-23.4-8.2l-6.7-4.5l-5.7-3.8
					l-13.2-2.7l-8.5-3.4l-8.7-3.7l-5.4-4.8l-6.2-0.6l-5.7-1l-5.2-0.4l-4.9-1l-6.5-1.5l-5.9-0.3l-3.3-2.6l-2.3,2l-5.2-0.4l-1.3-3.2
					l-4.1-0.6l-4.6-2l-4.3-0.1l-4.3-0.1l-4.6,0.1l-3.8-0.1l-4.3,0l-2.5-1.6l-1.6,0.4l-3.5-1l-3.6-1.2l-3.1-3.6l-3.3-1l-4.1-0.5
					l-3.6,0.7l-1.5-1.9h-2.4l-1.3-0.3l-0.9,1.1l-2.1-0.1l-2.5,0.1l-2.9,0.5l-3.3,1.5l-1.8,1l-3.2-0.1l-1.8-1.4l-1.1,0.8l-3.7-0.4
					l-1.2-2.8l-3.9,0.3h-5.6l-3.5-0.6l-3.1-0.1l-3.1,0.4l-3.2,0.3l-3,0.5l-1.9-0.7l-3.2,0.4h-2.1l-2.6-0.6l-2-1.4l-2.7-1.2l-1.2-2
					l-5.3,0.5l-2.5-0.2l-1.5,0.2l-1.2,0.2l-0.9-1l-0.4-0.3l-0.3-0.2l-0.2,0.2l-0.2,0.3l-0.1,1.1v0.6l-0.7,3l-3.2,2.9l-0.7,0.9
					l-1.6,4.7l0.7,7.5l0.4,2l1.2,7.9L1600.1,103.8z M993.6,29.3l2.7,4.6l2,3l3,2.6l2.5,2.4l2.1,3.4l2.7,1.7l3.5,3.3l2.4,0.6l2.6,0.5
					l2.9,1.8l3.2,2.3l2.9,2.4l2.4,2.7l3.2,0.5l4,1.2l2.6-0.2h0.1l2.9,1.1l3.8,0.4h2.2l0.2-0.7l4.3,0.2l2.3-0.5l1.8,0.7l4.6,0.1
					l4.4,0.3l1.5,0.8l4-0.2l-1.1-1.7l3.3-1.3l4.7,1.1l-0.1-1.3l1.4-1.7l1.5-1.4l1.7-1.2l3,1.9l0.5-3.6l1.6,0.5l3.6,0.6l0.6-0.4h3.3
					l-0.8-1.9l4.1,2.3l1.7-1.2l-0.3-1.7l3.2,0.1l4.4,1.9l3,0.8l0.2-1.1l1.7-1l-0.2-2.1l1.7-0.1l-0.4-4.1l0.9-0.6l0.2-1l0.8-2.7
					l-0.1-2l1.8-0.4v-2l1.1-1h0.4l0.8,1.2l2.3,2.3l0.1,0.8l1.8,0.9l2.3,7.9l1.2,0.9l-0.5,0.2l1.3,2.1l-1,1.1l1.2,2l1.5,1.9l2.7,3.3
					l2.7,3.7l1.6,2.7l2.2,2.9l-0.8,1.3l3.1,4l2.3,4.2l4.7,3l3.6,3.7l6.3,2.8l1.5,3l2.9,4.4l4.5,3.7l3,3.8l3.7,3.9l2.2,4.2l3.3,3.6
					l0.4,2.9l-0.2,4.3l1.3,5.7l0.8,6.5l2.2,6.5l0.2,3.3l-0.7,3.6l-0.6,3.6l3.2,6.2l-0.4,4l2.7,5.4l-1.3,3.3l1,4.7l-0.7,4.3l-1.6,3.8
					l2.3,5.5l-1.9,4.2l1.7,6.8l-0.3,5.6l-2.6,2.7l0.9,6.2l1.7,5.7l3.5,2.7l-1,3.4l3,5.6l2.8,5.6l2.7,4.5l1.8,5.8l1.2,5.3l-1.5,4.2
					l2.1,9.6l2.8,7.1l-1.2,2l-1.8,2.1l4.5,6.8l3.8,8.1l0.5,6l-1.6,2.5l2.5,7.7l4.8,12l3,10.2l3,7.1l0.1,5.7l0.6,5.2l-1,6.3l-2.3,5.1
					l-1.1,4.5l-2.7,2.6l-4.8,2.8l1.5,3.1l-6.4,3.7l-6.9,5.3l-9.4,6.8l-4.2,6.4l-4.7,3l-2.8,8l-3.3,8.3l-2.3,13.2l11.7,9.2l9.1,1.4
					l4.3,2l8.2,5.5l7,0.6l4.4,0.7l4.7,5.6l6,5l6.7,0.9l6.2,8.1l2.6,5.4l4.2,3.5l1,6.5l0.5,5l0.7,5.5l-0.7,5.8l-1.6,5.1l-1.5,5.5
					l-0.2,5.1l-0.5,7.4l2.8,8.4l2.2,5.5l0.5,3.6l-0.5,2.5l-1.8,2.6l0.7,5.2l-0.3,4.4l-0.6,5.5l1.6,5.6l1,5v4.8l0.3,4.9l-0.4,4.7
					l-3.5,3.9l0.2,5.8l3.5,4.6l0.1,4.6l-2,3.1l1.1,5.8l0.8,4.3l-1.4,2.6l1,3.6l-1.6,3.4l-1.9,5.3l-0.8,7l-2.4,4.5l-0.8,5.8l-3.5,3.3
					l-3.3,6.1l-3.9,2.6l-3,1.7l-3.2,0.7l-2.5,4.4l-4.1,2.3l-4,4.3l-2.9,2.6l-3.1,1.4l-3.8,5.8l-3.9,1.2l-2.8,4.5l-2.5,1l-1.4,3.1
					l-2.6,0.5l-3.5-0.6l-3.6,3.4l-3.3,1.2l-3.1,4.1l-4.7,0.9l-0.4-2.2l-4.4,2.6l-4.5,2.4l-4.3,1.8l-3.9,1.8l-4.8,2.1l-4.3,1.3
					l-0.5-2l-4.3,1.7l-1.2-2l-5.7,3l-6.5,3.1l-4.4,2l-0.7,0.7l-0.7,0.8l-1.3,4.9l0.3,2.1l1.6,5.9l2.5,2.7l-0.1,0.4l-1.7,0.2l-0.7,2
					l-1.4,2.9h-2.2l-1.5,2.5l-1.8,2l-0.6,1.6l-2.4,1.5l-3.2,2.6l-1.1,1.7l-2.7,0.8l-1.7,2.3l-3.2,1.2l-3.2-0.7l-2.8,1.8l-3,1.8
					l-1.2,2.4l-3.3,1.1l-2.8-0.1l-1.6,1.7l-2.2,0.6l-2.3,0.6l-3.4,0.4l-3.4,0.7l-1.9,1.7l-3.2,0.4l-1,1l-2.7,0.6l-2,2.3l-1.2,2.3
					l-1,2.4l-0.6,2.6l-1.8,0.5l-2.1,2.6l-2.4,2.2l-3,2.1l-3.1,1.6l-0.8-0.2l-2.7,1.6h-0.1l-3,0.6l-2-0.8l-1.9,2.6l-6.1,1.2l0.3,1.6
					l-3.2-0.8l-2.3-0.2l-2-0.5l-2.4-0.6l-1.2-1.3l-6.7-2.2l-3-0.3l-2.1,1.2l-3.5,2.6l-0.9,1l-2.5,1.7l-2.6,1.7l-3.1,2.2l-2.9,2.1
					l-3.2,2.3l-1.4,3.3l-2,1.9l-3,3.9l-1.7,3.1L980,822l-4.1,5.6l0.1,2.3l0.6,2.7l1.1,1.8l1.3,1l-0.1,0.9l-3.6,1.7l-6.9,4.2
					l-2.9,1.2l-3.4,1.5l-2.7-0.7l-4,1.1l-5.2-0.7l-6.8,1.5l-4.1-0.8l-4-1.1l-3.9-0.5l-2.8-0.4l-2.1-0.9l-1.8-1.2l-4.7,1.9l-2.4-1.5
					l-1-2.8l-2.4-0.7l0.5-1.8l-2.7-2.9l-2.1-3l-2.5-2.7l0.9-4.3l-2.4-2.5l-2.7-2.3l-2.8-2.1l-4.7-1l-8.1,5l-2.3,5.6l-2.3,4.7l-1,2.3
					l-4.7,3.1l-4.3,6.2l-4.4,6.3l-2.7,3.2l-3.9,4.4l-2.3,4.6l1,5.6l-0.5,4.8l1.2,4.2l-0.3,3.6l-2.8,1.5l-6.2,5.8l-3.3,2.4l-2.6,5
					l-3.7,3l-2.6,6.5l-5.4,3.1l-4.8-0.5l-3.9,1.4l-5.5-0.6l-5.6,0.4l-5.9-1.1l-4.5-1.2l-1.2-0.1l-0.4-0.5l-2-2.5l-2.9-1.8l-2.7-1.1
					l-1.4-2.2l-1.9-1.3l-6.2-3.4l-2.8-0.9l-12.8-2h-0.1l-3,0.6l-5.7,3.1l-2.1,1.7l-1.4,2l-2.6,1.4l-1.6,2.6l-0.4,0.3l-2.9,0.2
					l-1.7-0.9l-0.8-1.6l0.4-2.6l0.5-1.2l-0.2-1.9l-0.3-1.5l-0.2-1.5l-0.1-1.1l-0.2-1.7v-1.4l-0.5-1.6l-0.9-1.5l-0.8-1.3l-0.5-0.7
					l-0.3-0.5l-0.4-0.6l1.3-1.3l-0.7-0.6l-0.5-0.8l-0.1-1.1l0.4-2.4l-0.7-1.1l-0.3-2.8l-0.7-1.6l-0.8-0.9l-0.6-0.7l-1.1-2.1
					l-1.8-5.3l-0.6-1.2l-3.2-12.9l-2.2-5.2l-0.3-4l-2.1-3l-3.1-1.9l-2.5-2.5l-1.1-5.7l-4.1-2.2l2.1-6.8l-5.1-3.7l-6.3-4.2l1.4-3.3
					l2.6-3.4l-5-4.5l-4-3.9l2.4-3.5L703,781l-3.4-5.4l2.6-1.9l-3.8-5.1l-2.4-3.4l2.5-2.3l3.8-0.7l-3.1-4.8l-3.6-4.8l-2.8-3.9
					l4.6-1.8l-2.3-3.6l-2.2-3.5l-1.8-3.4l-2.3-3.8l-2.6-4.1l3.8-2.1l-2.8-4.3l-3.2-4.3l-3.6-4.6l-23.9-12.5l-2.6,1.6l-2.5,2
					l-3.2,1.7l-5.8-1.4l-2.5,2.4l-2.8,2.8l-2.5,2.6l-3.3,2.2l-2.9,1.9l-3.6-2l-2.2,2.5l-2.2,2.7l-1.7,2.3l-2.8-1.7l-3.4-2.6
					l-1.2,2.7l-1.7,2.8L607,721l-0.8,4.4l-2.5,4.2l-1.7-3.2l-1.8,4.8l-1.3,2.3l-1.7-2l-1.9-3.5l-0.6,3.5l-0.7,3.6l-2.5-4.3l-0.2,2.7
					l-4.1-3.6l-0.4,1.2l-0.6,1l-0.7,0.9l-9.3-3.2l-2.8,0.2l-6.7-3.1l-1.7,0.2h-1.9l-5.6-1.6l-0.9,1l-2.1-0.3l-5.7-0.1l-1.6,0.5
					l-4.9,0.8l-2,0.2l-2.2,0.6l-2.1,0.6l-2.2,0.7l-1.9,0.3l-1.9,1l-3.7,0.9l-1.8,1.9l-1.7,1.8l-2.1,1.8l-1.9,3.3l-0.4-0.7l-0.6,1.8
					l-1.4-0.3l-0.2,2l-0.2,1.9l-0.5,1.5l-0.6,1.1l0.2,2.3l0.5,2.1l0.2,1.5l0.5,1.8v1.2l1.5,2.9l-0.9-0.1l-1.2,0.2l-0.7,0.4l-3.2-0.1
					l-0.4,1.1l-1.6,0.2l-0.1,1.1l-1-0.2l-1.6,0.6l-1.1,0.9l-0.8,0.1l-0.9,1.4l-1,0.3l-1.1-1.6l-4.2-3.2l-11.4-1l-4.5,1.3l-7.9,1.9
					l-1.7,1.4l-3,1.7l-5.9,1.6l-4.4,1.9h-5.4l-2,1.2l-6.9,2.2l-4.4,1.9l-3.6-0.3l-2.3,1.3l-2.1,0.6l-4.1,0.9l-3.2,1.2l-3-0.3
					l-6.1-0.2l-4.8-2.4l-12.1-5.3l-2.2-1l-8.8-1.4l-5.3-1.1l-2.7,0.6l-7.4-1.1l-4.1-1.2l-3.2-1.6l-0.6-2.6l-3.6-1.2l-3.4-1.7
					l-4.1-2.9l-7.3-3.1l-2.3-3.4l-5.8-3l-5.1-3.1l-0.7-1.8l-4.1-1.6l-2.4-1.6l-0.8-1.9l0.4-2.5L322,731l-0.1-2.4l0.5-2.9l-3.2-1.1
					l-0.2-2.7l-0.9-5.1l-0.2-2.9l4.2-1.3l0.3-2.6l0.4-2.5L320,707l2.6-2.1l0.6-2.4l4.2-6.1l0.7-3.3l3-2.8l1.1-4l2.4-5.8l3.2-5.8
					l3-3.9l-2.3-2.3l2-4.3l3.4-5.2l2.4-4.5l1.7-3.9l0.8-3.8l3-2.9l1.9-3.3l3.5-0.6l2.1-3.3l1.9-3l4-1.9l2.7-3.1l2.5-2.4l3.3-3.4
					l1.7-4.9l0.9-5.3l-0.6-5.6l0.4-6.7l-1.9-4.6l0.2-6l-3.1-5.4l-2.9-3.9l0.6-4.3l1.8-4.4l-3.6-3.8l3.2-3.9l-3.4-2.4l4.9-2.3
					l1.7-4.5l-3.5-2.3l4.6-1.9l0.8-4.6l-2.6-3.4l1-6.6l1.1-5.3l-0.8-9.2l-7.4-10.5l-4.8,0.1l-5.4,0.7l-5.9,0.7l-1.8,2.3l-4-1.7
					l-5.1,1.5l-0.9,3.8l-3.3-1.6l-3.7,2l-0.1,4.9l-5.1,0.2l-3.5,1.3l-5.1-0.1l-7.5,2.7l-5.1,4.8l-4,5.6l-1.6,0.9l-0.1,3.8l-3.1-1
					l-4.3-1.6l-3.7-1.6l-2.6-3l-4.7-1.1l-3.7-1.7l-2.5-5.2l-4.6-3.6l-5.5-4.3l-3.3-3.4l-4.2-0.2l-3-3.9l-5.8-1.8l-5.3-2.8l-4.9-3.4
					l-5.5-3.6l-5.8-4.1l-5.8-4.7l-4.4,1.4l-5.1-3.5l-4.5-2.5l-4.6-2.6l-3.5-7.9l-4.7-4.1l-4.6-1.8l-4.5-1.4l-3-7.4l-3.7-4.1
					l-3.4-0.7l-3.2-3.1l-0.5-3.6l-2.8-3.9l-3-4.6l-4.3-4.8l-4-4.6l-6-2.5l-3.8-3.5l-2.8-3.2l-5.2-0.8l-3.2-2.7l-2.5-2.9l-5-0.2
					l-3.8-0.7l-5.3-4l-10.1-4.5l-4.5-1.2l-2.8-2.9l-5.2-1.4l-7.7-2.9l-6.5-1.4l-6.5-1.6l-2.2-3.9l-5.9-1.5l-5-2.3l-4.1-2.9l-3.8-3.2
					l-3.3-0.5l-2.8-5.1l-0.6-3.9l-2.7-3.6l-7.7-5.8l-5.6-4.7l-3.6-5.3l-2.4-5.2l-4.4-1.7l-1.8-4.7L17,339l-3.3-5.7l-0.3-2.6l0.2-3.4
					l-0.2-6l-2.1-4.7l-1.6-4l-3.4-4.2L4.4,303l-2.2-3.4l-1.4-1.8L0,293.3l0.1-3.3l0.7-2.4l0.9-2.4l0.8-1.8l1.3-0.9l2.9,3.2l1.4-0.8
					l1.4-0.5l1.6-0.5h1.7l1.9,0.1l2.3,2l3.4,0.2h0.7l1.1,0.2l6.4,8.1l2.9,0.3l3.7-1.7l0.4-2.9l2.3-0.6l2.6-0.9l2.4-1l1.9-1.4L47,285
					l1.8-1.3l1.8-0.9l1.8-0.7l1.7-0.9l1.7-0.9l1.9-0.7l2.1,1.5l0.9-1l3.3-0.3l0.8-3.6l2.1-0.8l2.3-0.5l0.8-2.7l3.4-0.3h1.2h2.6
					l1.7-1.5h2.3l6.1,2.4l6.8,1.4l4.6-0.9l4.3-1.3l3.3-0.9l4.3-1.9l3-0.4l5.3-3l3.3-0.4l3-1.6l1.6-0.5l3.7-0.7l4-1.8l3.9-1.7
					l3.7-1.5l3.7-1.1l4.1-0.8l4.1-0.2l2.1,1.4l2.1,2.9l1.5,3.5l1.2,3.1l2,2.4l4.2-2.7l4.1-7.2l2.5-5.3l6.5-8.3l3.7-6.4l4.2-3.4
					l9.8-9.5l4.5-2.8l4.5-5l2.4-2.4l5.4-3l4.3-4.4l3.3-3.2l2-2.1l4.7-2.3l7.1-5.3l4.7-4.9l3.4-3.5l9.7-6l5.3-4.2l5.7-5.1l7.9-5.4
					l7.1-6.4l6-5.6l7.7-7.8h1.5l7.5-5.8l6.8-6l4.4-6.2l5.8-4.8l4.6-3.7l3.4-5.5l3.4-2.5l7.6-6l6.9-7l6.3-3.1l4-3.5l2.9-1.4l4.5-2.2
					l4.2-3.3l3.6-2.7l3.1-2.9l1.4-1.6l6.6-5.6l4.3-1.6l5.3-4.5l0.2-0.9l7.1-5l3.1-1.6l2.4-2.2l3.6-1.9l2.2-2l1.7-0.6l2.3-3.6v-0.3
					l2.3-2.8l1.3-4.7l-0.5-2.5l1.3-3.4l0.8-2.9l1.1-0.4l3.1,1.6l2.7,1.3l1.8-0.7l2.5-0.4l3.2-1.6l2.4-3l4.2-1.5l2.6-2.1l2.9-0.2
					l3.6-0.2l4.3-1.5l8.5-1.5l3.8-1.2l5.6-1.1l5.7-0.7h3.9l4.5,0.2l4-0.7l5-1l2.7-0.5l4.3-0.9l6.7-1.7l4.7-2.1l2.8-1l5.8-0.7
					l7.5-1.5l4.3,2.4l4.8,1l4.5,0.6l3.4-0.5l2.9,0.5l4.9,0.8l5.1-0.4l5.7,0.2l4.9-0.3l3.6,0.4l4.8-0.8l4.1,0.1l3.5,0.7l4.7,0.7
					l5.3,1l4.1-0.8l0.7,2.4l5,1.4l5,1.3l3.8-0.5l4.2,1.3l7.4,2.7l4.4,1.1l5.4,1.9l6.4,2.3l6.9,3l4.2,0.1l6.3,2.8l2.7,3.5l7.2,2.9
					h5.9l8,3.2l8.3,4.1l8.9,4.2l6.3-0.8l7.1,3.8l65,12.3l10,0.2l0.9-3.4l8.9-0.5l7.1-0.4h5.5l1.9-2.8l3.2,2.3l5.1-0.6l4.7-1l1.8-4.2
					l3.4-1.1l10-1.8l3.3-1l4.1-0.8l3.8-1.4l3.4-0.8l1.7-2.9l2.7-1.7l2.8,2.1l4.3-1.9l1.5-3.4l4.5-1.3l4.9-1.5l4.8-1.6l4.6-1.1
					l3.2-3.5l4-1.5l2.8-4l3.5-0.5l1.7-4.7l3.9-0.8l3.8-0.8l2.2-4.2l2.8-3.7l1.4-3.5l3.5,1l1.2-2l2.3,0.3l2.8-0.1l1.9-1.3l2.6,0.4
					l3.9,0.2h2.5l2-0.7l2.5-1l4.2-4.4l0.8-1.2l2.5-0.1l3.4,1.3l2.2-1l3.1,0.6l3.5,0.6l3.4,0.4l3.3,0.8l2.3-1.5l2.9,0.6l1.9-0.6
					l2.1-0.1l2.2-0.5l1.8-0.6l2.3-0.8l2.2-0.2l0.1,0.8l-0.5,2.8l-0.7,3.2l-0.3,3.5l-0.3,0.5l0.5,1.7v0.3v2.8l2.1,2.1l0.2,1l1.7,3.8
					l1.9,3.2L993.6,29.3z"/>
			</defs>
			<clipPath id="SVGID_2_">
				<use xlink:href="#SVGID_1_"  style="overflow:visible;"/>
			</clipPath>
			<g id="rois_shapes" transform="translate(0,0)" inkscape:groupmode="layer" inkscape:label="shapes" class="st0">
				<g id="MBelt" inkscape:groupmode="layer" inkscape:label="curvature">
				</g>
				<g id="PBelt" inkscape:groupmode="layer" inkscape:label="curvature">
				</g>
				<g id="LBelt" inkscape:groupmode="layer" inkscape:label="curvature">
				</g>
				<g id="A1" inkscape:groupmode="layer" inkscape:label="sulcaldepth">
				</g>
				<g id="V3" inkscape:groupmode="layer" inkscape:label="thickness">
				</g>
				<g id="V2" inkscape:groupmode="layer" inkscape:label="myelin">
				</g>
				<g id="V1" inkscape:groupmode="layer" inkscape:label="hcp-mmp">
				</g>
			</g>
		</g>
	</g>
	<g id="rois_labels" transform="translate(0,0)" inkscape:groupmode="layer" inkscape:label="labels">
	</g>
</g>
<g id="sulci" inkscape:groupmode="layer" inkscape:label="sulci">
	<g>
		<g>
			<defs>
				<path id="SVGID_3_" d="M1600.1,103.8l-1.4,3.3l-1.5,2.1l-4.9,9.1l-1.1,1.2l-1.9,4.6l-1.6,3.3l-2.8,3.3l-2.7,2.3l-3.1,2.6
					l-6.8,4.2l-1.2,0.6l-6.2,1.9l-2.9,0.2h-0.4l-2.9-0.6l-3.2-1l-3,0.2l-2.5-0.6l-0.4,0.1l-2,0.5l-7-1.8h-0.3l-3.5-1h-4l-0.4-0.6
					l-5.5,0.1l-0.4-0.7l-3.1-0.3l-3.3-0.2l-3.4-0.5l-2.2,0.3l-1.2,0.3l-2.7-1.4l-0.8-0.3l-2.5,1.2l-3.3,0.1h-3l-2.3-0.3l-2.6,0.2
					l-2.7,1l-2.9,1.6l-2.7-0.1l-2.4-0.1l-1.7,0.5l-1.2-0.8l-1.5-0.9l-1.7,0.4l-2.6-0.8l-1.6-1.2l-1.6-1.2l-1.8-1.4l-1.9-1.3
					l-1.1,0.2l-1.8-1.3l-2.3-0.7l-1-0.3l-1.4-1.3l-1.8-1l-0.8-0.4l-0.9-0.1l0.4,0.2l1.1,2.5l1.2,3.2l1.6,3.5l0.5,3.9l-0.2,1.2l0.3,1
					l0.4,0.5l-0.6,2.2h2.1l-2,2.7l-0.5,2.7l1.8,0.6l-0.9,2.9l2.2,0.3l-0.5,2.9l-0.5,3.2l-0.7,3.8l0.5,3.9l-2.1,4.3l2.7-0.6l0.1,3.5
					l-0.4,4l-1.7,4.9l0.3,3.2l1.3,3.6l-0.8,8.4v1l-0.3,2.7l-0.9,3.6l1.2,0.8l-0.1,2.9l0.9,1.8h2.2l1.7,1.1l3.1,1.6l0.4,0.2l0.8,2.1
					l0.3,2.2l0.7,2.4l1,2.7l-3.3,3.3l-3.8,3.1l-2.7,2.9l1.2,2.7l-1.9,4.3l-1.5,4.1l-1.5,4.2l-1.5,3.6l-2.1,4.5l-1.8,4.2l-1.9,4.2
					l-2.3,4.1l-3.5,4l-4.9,4.6l-2.9,4.2l-2.1,4.7v6.6l-1.5,3.6l-0.8,6.5l-1.1,8l-0.6,8.1l3.5,0.5l-1.4,6.3l-2.5,8.3l-2.2,8.2
					l-0.5,6.1l0.2,5l1.1,6.6l2.2-0.1l-1.2,7.2l-2.5,8.1l-1.4,5.4l-4.2,7.6l-1.9,3.4l-0.9,3.5l3.1,0.8l-0.3,4.5l1.9,5.6l2.6-0.3
					l2.2,4.2l3.5,4.5l3.6,1l2.2,4.3l2.5,5.5l1,4.8l0.4,4.3l1.9,2l2.9,1.6l4.4-0.5l5.5,1.6l4.7,1.6l3.7,0.1l4.7,17.1l-7,0.9l-5.4-0.2
					l-6.4-2.3l-4.7-1.6l-4.1,1.6l-5.2-1.1h-5.9l-6.4,0.8l-6.2,1.1h-5.2l-6.3-1l-5.6,1.6l-10-2.4l-8.9-0.9l-2,2.3h-7l-6.3,0.7
					l-1.4,2.6l-6,1.2l-6.5,2.6l-6.5,6.5l-5.4,6.4l-9.5,6.8l-7.7,4.6l2.4,1.2l-7.4,3.5l-6.9,1.7l-5.8,1.4l-5.8,3.7l-3.6,4.4l-2.6,3.4
					l0.3,2.7l-4.9,4.1l-3.7,4.5l-3.9,5.3l-4.5,6.3l-6.1,1.1l-2.2,3.8l-2.8,4.7l-2.8,6.9l-3.5,8.9l-3.2,8.8l-2.6,9.2l-2.8,8.9
					l-2.1,8.9l-1,7.5l-0.5,6.1l-0.7,6.5l-0.8,5.4l-0.4,7.6l0.7,7.4l0.9,4.7l1.2,3.4l1.4,3l1.2,6l3.3,4.4l1.9-0.8l3.7,6l3.6,4.6
					l2.4-1l3.8,3.1l2.7,1.4l4.2-2.6l3.8,1.4l4,1.8l6,3.6l8.1,5.3l6.8,3.3l4.5,4.1l4.3,3.9l2.8,3.3l3.5,3h1.6l4,3.1l3.6,4.1l2.7,2
					l3.3,2.1l4,1.4l1.1-0.1l2.6,1.6l1.9-0.4l4.4,2.9l4.5,3l2.4,0.9l5.5,5.2l5.1,3.9l8.5,8l2.7,3.4l2.8,4.8l2.9,8.5l0.7,4.1l0.3,3.2
					l0.3,5l-0.5,1.9l1,0.3l0.7,2.4l0.6,1.9l0.5,3.1l0.8,1.1l0.8,2.7l2,0.9l2.3,0.9l0.8,3.1l1.5,2.6l1.9,2l2.1,1.9l2,0.2l0.6,3.2
					l1.1,2.7l1.6,2.7l0.9,2.3l3.8,0.6l0.9,0.4l1.6,1.7l2.4,2.5l0.9,2.5l2.5-0.3l2.2,2.1l1.1,2.4h1.6l2.7,2l1.5,2.7l2.9,2.4l1.6,4
					l2.4,2l1.3,1.9l1.4,1.9l0.4,0.8l1.4,0.9l0.2,1.7l1.7,1.3l-0.1,0.9l1.2,3.6l0.5,0.4l2.6-2h3.3l2.7-0.4l2.4,0.1l2.3,0.6l1.4,1
					l0.7,1.5l1.9,3.1l0.7,0.8l0.5,3l0.5,1.2l0.3,1.4l0.2,1.2l1.8,1.7l4.6,5l0.9,0.5l2.6,2.7l2.1,2.7l1.2,2.6l0.4,3.2l0.9,1.5
					l-0.3,1.8l2.2,3.2l3,4.7l2.4,4.6l2.7,5.6l2.3,4.2l2,5.1l0.6,2.9l-0.3,0.7l1.7,3l4.3,4.3l3.3,4.2l4.1,2.4l2.4,3.5l4,1.4l4.1,1.2
					l2.5,2.4l6.9,1.1l5.6,0.6l5.8,0.6l5.1-0.3l3.6,1.5l8.2,1l4.6-1.6l2.5,0.6l4.9-1.3l4.7-3.5l0.2-4.1l3.4-3.9l2.5-5.6l1.5-6.9
					l2.3-7.5l2.7-6.5l2.5-5.9l2.5-5.5l2.2-4.2l1-3.5l0.3-4.9l1.9-4.4l0.5-4l2.9-1.3l-3.5-2.3l-1.3-3.8l1.1-1.3l-1.3-2.9l0.2-5.3
					l-0.5-5.8l-1.5-6.3l1.3-0.9l0.3-3l0.8-1.6l-0.3-8l0.6-5l2.2-1.4l1.6-2.7l0.8-3.1l0.2-3.9l-0.2-5.5l2.2-1.1l1.8-3.3l3.1-2.2
					l9.6,4.2l5.2,12.6l-0.3,4.4l0.4,4.7l-1.8,1.6l1.2,2.9l5.1,20l0.2,1.4l1.2,4.4l-0.6,2.6l1.8,2.9l2.4,6.6l4,9.9l4.9,11.5v4
					l2.9,7.8l3.1,5.3l2.9,5.4l1.8,7.4l-1.5,3.9l2.5,2.5l1.9,5.5l-3.1,3.2l4.5,3.2l5.6,3.8l5.2,6.5l5.9,7.1l5.4,6.9l4.9,7.6l6.1,9.4
					l5.8,10.3l4.2,9.1l3.7,4.8l5.9,4.4l6.8,2l7.3,4.2l8.1,4.6l10.8,4.8l4,3.4l14.5,4.5l12.2,1.3l9.4,6.6l5.6-2.7l10.6-3.8l10.1-2.3
					l8.6-1.1l7.4,0.6l7.8-4.2l6.6-6.4l4.3-3.4l6.2-7.7l5.8-5.2l4.8-7.9l0.7-0.8l1.5-4.3l1.1-3.9l1.3-4.6l-2.2-2.1l1.5-5l-1-1
					l-0.4-5.5l-0.4-5.1l1.3-6.4l1.4-6.2l-1.6-0.3l2-7.9l4.7-8.5l3.1-5.9l1.3-2.6l3.2-4.4l1.4-1l3.6-3.1l0.7,0.1l0.6-0.4l0.4-0.5
					l0.3-0.8l-0.1-0.2l-0.1-0.6l0.3-0.8l0.1-0.4l0.1-0.4l-0.5,0.1l-0.5,0.2l-5.7,0.3l-2.1-0.8l-2.1-1l-2-1.7l-1.8-2.5l-1.7-2.4
					l-0.6-3l-0.2-2.9l-0.2-2.2l-1-3.9l0.5-2.3l-3.4-5.2l0.2-5.2l1.6-3.7l-2.3-3.7l1.4-5.5l1.2-5.2l0.6-4.2l-1.2-2.1l1.5-5.5l1.4-6
					l0.7-4.7l0.5-4.5l-0.2-3.8l3.2-4.6l1.5-6l1.1-4.6l0.6-3.6l7.3-6.4l1.6-2.1l29.2-1.3l3.3,2.7l3.5,2.4l3.2,7.4l3,3.2l4,0.9l3,0.2
					l3.2,7l2.1,0.6l2.1,0.6l2,1.2l1.7,1.1l1.4-4l1.9,1.6l1.6,1.5l1,2.6l2.3-3.6l1,2.1l1.1,1.3l2.5-2.4l1.4,0.7l2.7-2.7l1.2,0.4
					l1.6,0.2l2-0.2l2.3-0.4l1.9-0.1l3.4-0.1l4.9-0.1l6.7-0.2l4.6-0.7l6.1-0.7l5.3-0.1l4,0.1l3.3,0.1l4.9,0.6l5.4,1.2l1.7,0.4
					l0.7,0.2l8.1,2.2l3.4,1.2l3.4,1.2l2.2,1.5l1.7,1.7l1.7,1.8l1.9,4.1l0.7,0.6l0.5,0.4l0.7,0.2l1.2-0.2l1.5-0.7l1,0.7l0.2,0.2
					l2.1,0.4l0.8,0.3l1.2,0.7l0,0l3.5,1.6l0.1,0.7l1.8-0.2l2.7-0.3l14.3,2.4l8.3,1.9l10.8,1.4l8.3-0.5l6.4-0.5l10.7-1.9l10,0.1
					l6.8,0.3l5.7-1.1l9.2-1.3l8.4-2.3l7.5-3.4l4.7,1.4l4.4-1.7l4-3.9l1.9,0.8l3.3-2.4l9.2-1.8l10.6-3.6l8.8-4l6.5-1.2l7.3-3.3
					l7.8-3.2l6.9-3.2l5.6-4.4l5.2-5l6.3-4.2l5.4-1.4l7-2.8l5.4-2.8l5.5-2.9l7.2,0.2l5.5-1.6l6.3-2.8l6.1-2.9l4.6-2.6l2.2-4.1
					l-0.1-3.3l3.2-4.2l3-3.1l0.5-3.3l3.3-3.9l-1.4-4l0.5-4.2l-0.3-3l0.1-3.3l1.5-5l1.2-7.3l0.9-4.5l0.3-6.2l3.3-5.6l-0.6-5.4l1.9-6
					l-1.3-4.7l0.7-5.4l-0.7-7.2l0.2-5.4l-2.3-5.3l-4.6-7.2l-3.3-6.8l-3.5-9l0.3-7.5l0.4-13l-0.7-2.8l-1.4-5.6l-1.6-6.8l-2.7-5.4
					l-2.1-4.5l-4.2-5.4l-3.5-7.2l-6.1-6.5l-3.3-8.3l-5.2-7.9l-6.6-2.3l-8.5-1.6l-7.9-3l-7.7-6l-6.7-0.9l-6.1-0.3l-6.8-1.2l-6.3-2.5
					l-5.8-1.1l-5.5-0.1l-4.9-2.8l-5-1.8l-6-3.1l-2-0.7h-3.6l-7.1,0.2l-3.9-1.4l-5.7-15.6l5.5-2.4l5,0.2l8.4,0.5l7.7,0.3l6.2,2.8
					l5.1,1.8l5.8,1.7l4.5,2.1l2.4-0.5l4.4-3.7l5.6-2.1l3.2-1.9l4.6-2.5l4.1-1.2l4.1,0.7l3.4-0.8l3.7-0.3l4.1-0.6l3.8,1.6l3,1.3
					l6.2,2.4l4,3.2l6,0.3l4.3,2.3l6-0.9l3.7,1.6l7.6-0.7l7.4-2.8l5.1,0.3l6.6-2.5l4-1.4l6-2.5l5.7-2.1l5.4-4.7l4.8-8l6.9-8.9
					l6.8-4.4l5-5.8l5.7-3.7l4.3-5.2l8.8-7.9l3.7-4.4l5.6-8.5l5.7-6.5l4.6-5.9l2.1-4.6l6.1-4.7l5.5-4.2l1.7-3l3.6-2.1l1-5.3l3.2-4.5
					l2.8-5.2l0.5-3.8l3.5-4.7l2.9-4.9l2.6-4.3l3.6-5.6l5.3-7.6l4.9-7.8l3.6-3.1l4.9-5.7l4.2-5.1l3.4-4.6l3.7-1.6l3.8-5.3l3.4-5
					l2.4-3.8l1.5-5.6l2-6.3l3.4-6.3l2.6-1.9l1.4-5.1l0.4-3.5l-1.4-7.8l0.7-10.4l2.1-6.8l0.9-5v-5.5l1.7-3l1.3-5.5l-1-5.7l-3.4-5.8
					l-4.2-5.8l-0.6-3.2l-1.7-4.6l-1.9-5.2l-2.8-6.8l-4.8-11.2l-2.9-3.1l-0.5-0.9l-0.5-0.4l-0.6-0.5l-0.7-0.5l-0.5,0.5l-0.5,2.5
					l-0.5,0.5l-1.3,0.2l-1.5,0.1l-1.2,0.2l-1.1,0.4l-1.3-0.2l-0.4-1.2l-2.4,2.5l-2.1,1.3l-2.2,1.3l-1.6,1l-1.8,0.9l-0.8,0.3l-1,0.3
					l-1.4,0.4l-1.6,0.5l-2.2,0.6l-4,0.7l-4.1,0.4l-4.1,0.2l-3.4-0.2l-1.3-0.1l-1.7-0.2h-1.6l-2,0.4l-2.8-0.4l-1.1-0.6l-1.5,1.2
					l-1.5,1.3l-1.7,2l-1.1,2.4l-1.8,1.3l-2.9,1.8l-2.9,2.6l-0.7,2.8l-3.4,5.3l-1.5,0.2l-2.3,2.6l-2.2,0.7l-1.2,2l-3.1-1l-2.8,2.6
					l-1.5,2l-2.5,2.7l-4,3.1l-2.6,3.2l-1.5,1.6l-1.7-0.4l-1.6,2.3l-1.3,1.6l-2.3,1.6l-1.7,0.9l-1,0.3l-1.9,2.7l-2.6,0.3l-2.4,0.2
					l-3-0.1l-1.6-1.9l-2.6,0.4l-2.6-2.1l-2.6-1.1l-1.5-0.4l-4-1.9l-2.3-0.3l-2.3-2l-2.8-2.5l-4.8-1.5l-0.5-0.1l-3.1-1.9l-4.7-6.4
					l-1-1.4l-4.2-2.9l-3.2-5l-3.6-4.8l-2.5-2.7l-5.7-5.9l-6.6-7.1l-4.4-5.3l-6.5-4.7l-1.1-1.2l-10.5-7.5l-5.4-4.4l-5.5-4.4l-5.9-5.2
					l-3.2-2.9l-2.6-2.6l-4.9-1.8l-7.1-5.6l-6.6-7.1l-6.2-3.9l-7-3.8l-7.2-3l-7.6-2.9l-9.8-5.3l-6.1-2l-6.4-2.8l-6-1.7l-3.6-2.5
					l-10-5.1l-4.7-1.4l-2.5-2l-5.9-3l-6.3-5.4l-3.2-1.6l-8.2-6.7l-2.9-3.4l-5.6-1.9l-5.9-4.5l-8.2-2.7l-3.4-0.5l-6.9-3l-1.2-0.8
					l-5.5-0.3l-5.7-1.4l-6.9-3.8l-0.5-0.4l-4-1.3l-3.9-3.5l-4-3.1l-0.5-0.9l-2.1-1.8l-1-1l-1-1.6l-2-1.5l-1.9-0.1l-1.6-0.2l-1.6,0.2
					l-2.3-0.7l-1.9-0.7l-1.4,1.3l-2.2,2.5l-1.6,0.7l-2.1,2.4l-1.6,0.2l-2.2,1.6l-3.2,1.7l-4.5,2l-4.4,0.3l-1.3,0.6l-2.8-0.3
					l-1.7,0.6l-2.2,0.9l-2.9,1l-2.9,0.4l-2.7,0.8l-2.4,0.7l-2.4,0.7l-1.4-0.2l-0.8,0.4l-2.2,0.1l-1.3-0.4l-0.8,0.3l-2.9-0.6
					l-3.1-0.6l-3.3-0.3l-5.1,0.5l-1.8,2.7l-4.6,1l-3.7-2.3l-3.4,0.8l-3.3-2l-3.1,0.9l-4.2,1.9l-2.6,1.7l-2.2-1.1l-2.1,2.1l-0.3,2
					l-2.6,1.6l-2.6-0.7l-2.1,0.4l-3.5,0.9l-4.4,1l-4,1.5l-3.4,1.1l-4.2,1.4l-4.2,1.5l-1.8-1.5l-2.8,2.7l-4.4,1.5l-4.5-1.1l-3.1,0.2
					l-5.1,2.3l-4.7,2l-3.9,2.2l-4.5,2.3l-4.1,2.8l-2.4-0.7l-4,2.6l-4.5,3.4l-7.3,3.1l-9.3,2.9l-8.8,3.7l-23.4-8.2l-6.7-4.5l-5.7-3.8
					l-13.2-2.7l-8.5-3.4l-8.7-3.7l-5.4-4.8l-6.2-0.6l-5.7-1l-5.2-0.4l-4.9-1l-6.5-1.5l-5.9-0.3l-3.3-2.6l-2.3,2l-5.2-0.4l-1.3-3.2
					l-4.1-0.6l-4.6-2l-4.3-0.1l-4.3-0.1l-4.6,0.1l-3.8-0.1l-4.3,0l-2.5-1.6l-1.6,0.4l-3.5-1l-3.6-1.2l-3.1-3.6l-3.3-1l-4.1-0.5
					l-3.6,0.7l-1.5-1.9h-2.4l-1.3-0.3l-0.9,1.1l-2.1-0.1l-2.5,0.1l-2.9,0.5l-3.3,1.5l-1.8,1l-3.2-0.1l-1.8-1.4l-1.1,0.8l-3.7-0.4
					l-1.2-2.8l-3.9,0.3h-5.6l-3.5-0.6l-3.1-0.1l-3.1,0.4l-3.2,0.3l-3,0.5l-1.9-0.7l-3.2,0.4h-2.1l-2.6-0.6l-2-1.4l-2.7-1.2l-1.2-2
					l-5.3,0.5l-2.5-0.2l-1.5,0.2l-1.2,0.2l-0.9-1l-0.4-0.3l-0.3-0.2l-0.2,0.2l-0.2,0.3l-0.1,1.1v0.6l-0.7,3l-3.2,2.9l-0.7,0.9
					l-1.6,4.7l0.7,7.5l0.4,2l1.2,7.9L1600.1,103.8z M993.6,29.3l2.7,4.6l2,3l3,2.6l2.5,2.4l2.1,3.4l2.7,1.7l3.5,3.3l2.4,0.6l2.6,0.5
					l2.9,1.8l3.2,2.3l2.9,2.4l2.4,2.7l3.2,0.5l4,1.2l2.6-0.2h0.1l2.9,1.1l3.8,0.4h2.2l0.2-0.7l4.3,0.2l2.3-0.5l1.8,0.7l4.6,0.1
					l4.4,0.3l1.5,0.8l4-0.2l-1.1-1.7l3.3-1.3l4.7,1.1l-0.1-1.3l1.4-1.7l1.5-1.4l1.7-1.2l3,1.9l0.5-3.6l1.6,0.5l3.6,0.6l0.6-0.4h3.3
					l-0.8-1.9l4.1,2.3l1.7-1.2l-0.3-1.7l3.2,0.1l4.4,1.9l3,0.8l0.2-1.1l1.7-1l-0.2-2.1l1.7-0.1l-0.4-4.1l0.9-0.6l0.2-1l0.8-2.7
					l-0.1-2l1.8-0.4v-2l1.1-1h0.4l0.8,1.2l2.3,2.3l0.1,0.8l1.8,0.9l2.3,7.9l1.2,0.9l-0.5,0.2l1.3,2.1l-1,1.1l1.2,2l1.5,1.9l2.7,3.3
					l2.7,3.7l1.6,2.7l2.2,2.9l-0.8,1.3l3.1,4l2.3,4.2l4.7,3l3.6,3.7l6.3,2.8l1.5,3l2.9,4.4l4.5,3.7l3,3.8l3.7,3.9l2.2,4.2l3.3,3.6
					l0.4,2.9l-0.2,4.3l1.3,5.7l0.8,6.5l2.2,6.5l0.2,3.3l-0.7,3.6l-0.6,3.6l3.2,6.2l-0.4,4l2.7,5.4l-1.3,3.3l1,4.7l-0.7,4.3l-1.6,3.8
					l2.3,5.5l-1.9,4.2l1.7,6.8l-0.3,5.6l-2.6,2.7l0.9,6.2l1.7,5.7l3.5,2.7l-1,3.4l3,5.6l2.8,5.6l2.7,4.5l1.8,5.8l1.2,5.3l-1.5,4.2
					l2.1,9.6l2.8,7.1l-1.2,2l-1.8,2.1l4.5,6.8l3.8,8.1l0.5,6l-1.6,2.5l2.5,7.7l4.8,12l3,10.2l3,7.1l0.1,5.7l0.6,5.2l-1,6.3l-2.3,5.1
					l-1.1,4.5l-2.7,2.6l-4.8,2.8l1.5,3.1l-6.4,3.7l-6.9,5.3l-9.4,6.8l-4.2,6.4l-4.7,3l-2.8,8l-3.3,8.3l-2.3,13.2l11.7,9.2l9.1,1.4
					l4.3,2l8.2,5.5l7,0.6l4.4,0.7l4.7,5.6l6,5l6.7,0.9l6.2,8.1l2.6,5.4l4.2,3.5l1,6.5l0.5,5l0.7,5.5l-0.7,5.8l-1.6,5.1l-1.5,5.5
					l-0.2,5.1l-0.5,7.4l2.8,8.4l2.2,5.5l0.5,3.6l-0.5,2.5l-1.8,2.6l0.7,5.2l-0.3,4.4l-0.6,5.5l1.6,5.6l1,5v4.8l0.3,4.9l-0.4,4.7
					l-3.5,3.9l0.2,5.8l3.5,4.6l0.1,4.6l-2,3.1l1.1,5.8l0.8,4.3l-1.4,2.6l1,3.6l-1.6,3.4l-1.9,5.3l-0.8,7l-2.4,4.5l-0.8,5.8l-3.5,3.3
					l-3.3,6.1l-3.9,2.6l-3,1.7l-3.2,0.7l-2.5,4.4l-4.1,2.3l-4,4.3l-2.9,2.6l-3.1,1.4l-3.8,5.8l-3.9,1.2l-2.8,4.5l-2.5,1l-1.4,3.1
					l-2.6,0.5l-3.5-0.6l-3.6,3.4l-3.3,1.2l-3.1,4.1l-4.7,0.9l-0.4-2.2l-4.4,2.6l-4.5,2.4l-4.3,1.8l-3.9,1.8l-4.8,2.1l-4.3,1.3
					l-0.5-2l-4.3,1.7l-1.2-2l-5.7,3l-6.5,3.1l-4.4,2l-0.7,0.7l-0.7,0.8l-1.3,4.9l0.3,2.1l1.6,5.9l2.5,2.7l-0.1,0.4l-1.7,0.2l-0.7,2
					l-1.4,2.9h-2.2l-1.5,2.5l-1.8,2l-0.6,1.6l-2.4,1.5l-3.2,2.6l-1.1,1.7l-2.7,0.8l-1.7,2.3l-3.2,1.2l-3.2-0.7l-2.8,1.8l-3,1.8
					l-1.2,2.4l-3.3,1.1l-2.8-0.1l-1.6,1.7l-2.2,0.6l-2.3,0.6l-3.4,0.4l-3.4,0.7l-1.9,1.7l-3.2,0.4l-1,1l-2.7,0.6l-2,2.3l-1.2,2.3
					l-1,2.4l-0.6,2.6l-1.8,0.5l-2.1,2.6l-2.4,2.2l-3,2.1l-3.1,1.6l-0.8-0.2l-2.7,1.6h-0.1l-3,0.6l-2-0.8l-1.9,2.6l-6.1,1.2l0.3,1.6
					l-3.2-0.8l-2.3-0.2l-2-0.5l-2.4-0.6l-1.2-1.3l-6.7-2.2l-3-0.3l-2.1,1.2l-3.5,2.6l-0.9,1l-2.5,1.7l-2.6,1.7l-3.1,2.2l-2.9,2.1
					l-3.2,2.3l-1.4,3.3l-2,1.9l-3,3.9l-1.7,3.1L980,822l-4.1,5.6l0.1,2.3l0.6,2.7l1.1,1.8l1.3,1l-0.1,0.9l-3.6,1.7l-6.9,4.2
					l-2.9,1.2l-3.4,1.5l-2.7-0.7l-4,1.1l-5.2-0.7l-6.8,1.5l-4.1-0.8l-4-1.1l-3.9-0.5l-2.8-0.4l-2.1-0.9l-1.8-1.2l-4.7,1.9l-2.4-1.5
					l-1-2.8l-2.4-0.7l0.5-1.8l-2.7-2.9l-2.1-3l-2.5-2.7l0.9-4.3l-2.4-2.5l-2.7-2.3l-2.8-2.1l-4.7-1l-8.1,5l-2.3,5.6l-2.3,4.7l-1,2.3
					l-4.7,3.1l-4.3,6.2l-4.4,6.3l-2.7,3.2l-3.9,4.4l-2.3,4.6l1,5.6l-0.5,4.8l1.2,4.2l-0.3,3.6l-2.8,1.5l-6.2,5.8l-3.3,2.4l-2.6,5
					l-3.7,3l-2.6,6.5l-5.4,3.1l-4.8-0.5l-3.9,1.4l-5.5-0.6l-5.6,0.4l-5.9-1.1l-4.5-1.2l-1.2-0.1l-0.4-0.5l-2-2.5l-2.9-1.8l-2.7-1.1
					l-1.4-2.2l-1.9-1.3l-6.2-3.4l-2.8-0.9l-12.8-2h-0.1l-3,0.6l-5.7,3.1l-2.1,1.7l-1.4,2l-2.6,1.4l-1.6,2.6l-0.4,0.3l-2.9,0.2
					l-1.7-0.9l-0.8-1.6l0.4-2.6l0.5-1.2l-0.2-1.9l-0.3-1.5l-0.2-1.5l-0.1-1.1l-0.2-1.7v-1.4l-0.5-1.6l-0.9-1.5l-0.8-1.3l-0.5-0.7
					l-0.3-0.5l-0.4-0.6l1.3-1.3l-0.7-0.6l-0.5-0.8l-0.1-1.1l0.4-2.4l-0.7-1.1l-0.3-2.8l-0.7-1.6l-0.8-0.9l-0.6-0.7l-1.1-2.1
					l-1.8-5.3l-0.6-1.2l-3.2-12.9l-2.2-5.2l-0.3-4l-2.1-3l-3.1-1.9l-2.5-2.5l-1.1-5.7l-4.1-2.2l2.1-6.8l-5.1-3.7l-6.3-4.2l1.4-3.3
					l2.6-3.4l-5-4.5l-4-3.9l2.4-3.5L703,781l-3.4-5.4l2.6-1.9l-3.8-5.1l-2.4-3.4l2.5-2.3l3.8-0.7l-3.1-4.8l-3.6-4.8l-2.8-3.9
					l4.6-1.8l-2.3-3.6l-2.2-3.5l-1.8-3.4l-2.3-3.8l-2.6-4.1l3.8-2.1l-2.8-4.3l-3.2-4.3l-3.6-4.6l-23.9-12.5l-2.6,1.6l-2.5,2
					l-3.2,1.7l-5.8-1.4l-2.5,2.4l-2.8,2.8l-2.5,2.6l-3.3,2.2l-2.9,1.9l-3.6-2l-2.2,2.5l-2.2,2.7l-1.7,2.3l-2.8-1.7l-3.4-2.6
					l-1.2,2.7l-1.7,2.8L607,721l-0.8,4.4l-2.5,4.2l-1.7-3.2l-1.8,4.8l-1.3,2.3l-1.7-2l-1.9-3.5l-0.6,3.5l-0.7,3.6l-2.5-4.3l-0.2,2.7
					l-4.1-3.6l-0.4,1.2l-0.6,1l-0.7,0.9l-9.3-3.2l-2.8,0.2l-6.7-3.1l-1.7,0.2h-1.9l-5.6-1.6l-0.9,1l-2.1-0.3l-5.7-0.1l-1.6,0.5
					l-4.9,0.8l-2,0.2l-2.2,0.6l-2.1,0.6l-2.2,0.7l-1.9,0.3l-1.9,1l-3.7,0.9l-1.8,1.9l-1.7,1.8l-2.1,1.8l-1.9,3.3l-0.4-0.7l-0.6,1.8
					l-1.4-0.3l-0.2,2l-0.2,1.9l-0.5,1.5l-0.6,1.1l0.2,2.3l0.5,2.1l0.2,1.5l0.5,1.8v1.2l1.5,2.9l-0.9-0.1l-1.2,0.2l-0.7,0.4l-3.2-0.1
					l-0.4,1.1l-1.6,0.2l-0.1,1.1l-1-0.2l-1.6,0.6l-1.1,0.9l-0.8,0.1l-0.9,1.4l-1,0.3l-1.1-1.6l-4.2-3.2l-11.4-1l-4.5,1.3l-7.9,1.9
					l-1.7,1.4l-3,1.7l-5.9,1.6l-4.4,1.9h-5.4l-2,1.2l-6.9,2.2l-4.4,1.9l-3.6-0.3l-2.3,1.3l-2.1,0.6l-4.1,0.9l-3.2,1.2l-3-0.3
					l-6.1-0.2l-4.8-2.4l-12.1-5.3l-2.2-1l-8.8-1.4l-5.3-1.1l-2.7,0.6l-7.4-1.1l-4.1-1.2l-3.2-1.6l-0.6-2.6l-3.6-1.2l-3.4-1.7
					l-4.1-2.9l-7.3-3.1l-2.3-3.4l-5.8-3l-5.1-3.1l-0.7-1.8l-4.1-1.6l-2.4-1.6l-0.8-1.9l0.4-2.5L322,731l-0.1-2.4l0.5-2.9l-3.2-1.1
					l-0.2-2.7l-0.9-5.1l-0.2-2.9l4.2-1.3l0.3-2.6l0.4-2.5L320,707l2.6-2.1l0.6-2.4l4.2-6.1l0.7-3.3l3-2.8l1.1-4l2.4-5.8l3.2-5.8
					l3-3.9l-2.3-2.3l2-4.3l3.4-5.2l2.4-4.5l1.7-3.9l0.8-3.8l3-2.9l1.9-3.3l3.5-0.6l2.1-3.3l1.9-3l4-1.9l2.7-3.1l2.5-2.4l3.3-3.4
					l1.7-4.9l0.9-5.3l-0.6-5.6l0.4-6.7l-1.9-4.6l0.2-6l-3.1-5.4l-2.9-3.9l0.6-4.3l1.8-4.4l-3.6-3.8l3.2-3.9l-3.4-2.4l4.9-2.3
					l1.7-4.5l-3.5-2.3l4.6-1.9l0.8-4.6l-2.6-3.4l1-6.6l1.1-5.3l-0.8-9.2l-7.4-10.5l-4.8,0.1l-5.4,0.7l-5.9,0.7l-1.8,2.3l-4-1.7
					l-5.1,1.5l-0.9,3.8l-3.3-1.6l-3.7,2l-0.1,4.9l-5.1,0.2l-3.5,1.3l-5.1-0.1l-7.5,2.7l-5.1,4.8l-4,5.6l-1.6,0.9l-0.1,3.8l-3.1-1
					l-4.3-1.6l-3.7-1.6l-2.6-3l-4.7-1.1l-3.7-1.7l-2.5-5.2l-4.6-3.6l-5.5-4.3l-3.3-3.4l-4.2-0.2l-3-3.9l-5.8-1.8l-5.3-2.8l-4.9-3.4
					l-5.5-3.6l-5.8-4.1l-5.8-4.7l-4.4,1.4l-5.1-3.5l-4.5-2.5l-4.6-2.6l-3.5-7.9l-4.7-4.1l-4.6-1.8l-4.5-1.4l-3-7.4l-3.7-4.1
					l-3.4-0.7l-3.2-3.1l-0.5-3.6l-2.8-3.9l-3-4.6l-4.3-4.8l-4-4.6l-6-2.5l-3.8-3.5l-2.8-3.2l-5.2-0.8l-3.2-2.7l-2.5-2.9l-5-0.2
					l-3.8-0.7l-5.3-4l-10.1-4.5l-4.5-1.2l-2.8-2.9l-5.2-1.4l-7.7-2.9l-6.5-1.4l-6.5-1.6l-2.2-3.9l-5.9-1.5l-5-2.3l-4.1-2.9l-3.8-3.2
					l-3.3-0.5l-2.8-5.1l-0.6-3.9l-2.7-3.6l-7.7-5.8l-5.6-4.7l-3.6-5.3l-2.4-5.2l-4.4-1.7l-1.8-4.7L17,339l-3.3-5.7l-0.3-2.6l0.2-3.4
					l-0.2-6l-2.1-4.7l-1.6-4l-3.4-4.2L4.4,303l-2.2-3.4l-1.4-1.8L0,293.3l0.1-3.3l0.7-2.4l0.9-2.4l0.8-1.8l1.3-0.9l2.9,3.2l1.4-0.8
					l1.4-0.5l1.6-0.5h1.7l1.9,0.1l2.3,2l3.4,0.2h0.7l1.1,0.2l6.4,8.1l2.9,0.3l3.7-1.7l0.4-2.9l2.3-0.6l2.6-0.9l2.4-1l1.9-1.4L47,285
					l1.8-1.3l1.8-0.9l1.8-0.7l1.7-0.9l1.7-0.9l1.9-0.7l2.1,1.5l0.9-1l3.3-0.3l0.8-3.6l2.1-0.8l2.3-0.5l0.8-2.7l3.4-0.3h1.2h2.6
					l1.7-1.5h2.3l6.1,2.4l6.8,1.4l4.6-0.9l4.3-1.3l3.3-0.9l4.3-1.9l3-0.4l5.3-3l3.3-0.4l3-1.6l1.6-0.5l3.7-0.7l4-1.8l3.9-1.7
					l3.7-1.5l3.7-1.1l4.1-0.8l4.1-0.2l2.1,1.4l2.1,2.9l1.5,3.5l1.2,3.1l2,2.4l4.2-2.7l4.1-7.2l2.5-5.3l6.5-8.3l3.7-6.4l4.2-3.4
					l9.8-9.5l4.5-2.8l4.5-5l2.4-2.4l5.4-3l4.3-4.4l3.3-3.2l2-2.1l4.7-2.3l7.1-5.3l4.7-4.9l3.4-3.5l9.7-6l5.3-4.2l5.7-5.1l7.9-5.4
					l7.1-6.4l6-5.6l7.7-7.8h1.5l7.5-5.8l6.8-6l4.4-6.2l5.8-4.8l4.6-3.7l3.4-5.5l3.4-2.5l7.6-6l6.9-7l6.3-3.1l4-3.5l2.9-1.4l4.5-2.2
					l4.2-3.3l3.6-2.7l3.1-2.9l1.4-1.6l6.6-5.6l4.3-1.6l5.3-4.5l0.2-0.9l7.1-5l3.1-1.6l2.4-2.2l3.6-1.9l2.2-2l1.7-0.6l2.3-3.6v-0.3
					l2.3-2.8l1.3-4.7l-0.5-2.5l1.3-3.4l0.8-2.9l1.1-0.4l3.1,1.6l2.7,1.3l1.8-0.7l2.5-0.4l3.2-1.6l2.4-3l4.2-1.5l2.6-2.1l2.9-0.2
					l3.6-0.2l4.3-1.5l8.5-1.5l3.8-1.2l5.6-1.1l5.7-0.7h3.9l4.5,0.2l4-0.7l5-1l2.7-0.5l4.3-0.9l6.7-1.7l4.7-2.1l2.8-1l5.8-0.7
					l7.5-1.5l4.3,2.4l4.8,1l4.5,0.6l3.4-0.5l2.9,0.5l4.9,0.8l5.1-0.4l5.7,0.2l4.9-0.3l3.6,0.4l4.8-0.8l4.1,0.1l3.5,0.7l4.7,0.7
					l5.3,1l4.1-0.8l0.7,2.4l5,1.4l5,1.3l3.8-0.5l4.2,1.3l7.4,2.7l4.4,1.1l5.4,1.9l6.4,2.3l6.9,3l4.2,0.1l6.3,2.8l2.7,3.5l7.2,2.9
					h5.9l8,3.2l8.3,4.1l8.9,4.2l6.3-0.8l7.1,3.8l65,12.3l10,0.2l0.9-3.4l8.9-0.5l7.1-0.4h5.5l1.9-2.8l3.2,2.3l5.1-0.6l4.7-1l1.8-4.2
					l3.4-1.1l10-1.8l3.3-1l4.1-0.8l3.8-1.4l3.4-0.8l1.7-2.9l2.7-1.7l2.8,2.1l4.3-1.9l1.5-3.4l4.5-1.3l4.9-1.5l4.8-1.6l4.6-1.1
					l3.2-3.5l4-1.5l2.8-4l3.5-0.5l1.7-4.7l3.9-0.8l3.8-0.8l2.2-4.2l2.8-3.7l1.4-3.5l3.5,1l1.2-2l2.3,0.3l2.8-0.1l1.9-1.3l2.6,0.4
					l3.9,0.2h2.5l2-0.7l2.5-1l4.2-4.4l0.8-1.2l2.5-0.1l3.4,1.3l2.2-1l3.1,0.6l3.5,0.6l3.4,0.4l3.3,0.8l2.3-1.5l2.9,0.6l1.9-0.6
					l2.1-0.1l2.2-0.5l1.8-0.6l2.3-0.8l2.2-0.2l0.1,0.8l-0.5,2.8l-0.7,3.2l-0.3,3.5l-0.3,0.5l0.5,1.7v0.3v2.8l2.1,2.1l0.2,1l1.7,3.8
					l1.9,3.2L993.6,29.3z"/>
			</defs>
			<clipPath id="SVGID_4_">
				<use xlink:href="#SVGID_3_"  style="overflow:visible;"/>
			</clipPath>
			<g id="sulci_shapes" inkscape:groupmode="layer" inkscape:label="shapes" class="st1">
			</g>
		</g>
	</g>
	<g id="sulci_labels" inkscape:groupmode="layer" inkscape:label="labels">
	</g>
</g>
<g id="cutouts" inkscape:groupmode="layer" inkscape:label="cutouts">
	<g>
		<g>
			<defs>
				<path id="SVGID_5_" d="M1600.1,103.8l-1.4,3.3l-1.5,2.1l-4.9,9.1l-1.1,1.2l-1.9,4.6l-1.6,3.3l-2.8,3.3l-2.7,2.3l-3.1,2.6
					l-6.8,4.2l-1.2,0.6l-6.2,1.9l-2.9,0.2h-0.4l-2.9-0.6l-3.2-1l-3,0.2l-2.5-0.6l-0.4,0.1l-2,0.5l-7-1.8h-0.3l-3.5-1h-4l-0.4-0.6
					l-5.5,0.1l-0.4-0.7l-3.1-0.3l-3.3-0.2l-3.4-0.5l-2.2,0.3l-1.2,0.3l-2.7-1.4l-0.8-0.3l-2.5,1.2l-3.3,0.1h-3l-2.3-0.3l-2.6,0.2
					l-2.7,1l-2.9,1.6l-2.7-0.1l-2.4-0.1l-1.7,0.5l-1.2-0.8l-1.5-0.9l-1.7,0.4l-2.6-0.8l-1.6-1.2l-1.6-1.2l-1.8-1.4l-1.9-1.3
					l-1.1,0.2l-1.8-1.3l-2.3-0.7l-1-0.3l-1.4-1.3l-1.8-1l-0.8-0.4l-0.9-0.1l0.4,0.2l1.1,2.5l1.2,3.2l1.6,3.5l0.5,3.9l-0.2,1.2l0.3,1
					l0.4,0.5l-0.6,2.2h2.1l-2,2.7l-0.5,2.7l1.8,0.6l-0.9,2.9l2.2,0.3l-0.5,2.9l-0.5,3.2l-0.7,3.8l0.5,3.9l-2.1,4.3l2.7-0.6l0.1,3.5
					l-0.4,4l-1.7,4.9l0.3,3.2l1.3,3.6l-0.8,8.4v1l-0.3,2.7l-0.9,3.6l1.2,0.8l-0.1,2.9l0.9,1.8h2.2l1.7,1.1l3.1,1.6l0.4,0.2l0.8,2.1
					l0.3,2.2l0.7,2.4l1,2.7l-3.3,3.3l-3.8,3.1l-2.7,2.9l1.2,2.7l-1.9,4.3l-1.5,4.1l-1.5,4.2l-1.5,3.6l-2.1,4.5l-1.8,4.2l-1.9,4.2
					l-2.3,4.1l-3.5,4l-4.9,4.6l-2.9,4.2l-2.1,4.7v6.6l-1.5,3.6l-0.8,6.5l-1.1,8l-0.6,8.1l3.5,0.5l-1.4,6.3l-2.5,8.3l-2.2,8.2
					l-0.5,6.1l0.2,5l1.1,6.6l2.2-0.1l-1.2,7.2l-2.5,8.1l-1.4,5.4l-4.2,7.6l-1.9,3.4l-0.9,3.5l3.1,0.8l-0.3,4.5l1.9,5.6l2.6-0.3
					l2.2,4.2l3.5,4.5l3.6,1l2.2,4.3l2.5,5.5l1,4.8l0.4,4.3l1.9,2l2.9,1.6l4.4-0.5l5.5,1.6l4.7,1.6l3.7,0.1l4.7,17.1l-7,0.9l-5.4-0.2
					l-6.4-2.3l-4.7-1.6l-4.1,1.6l-5.2-1.1h-5.9l-6.4,0.8l-6.2,1.1h-5.2l-6.3-1l-5.6,1.6l-10-2.4l-8.9-0.9l-2,2.3h-7l-6.3,0.7
					l-1.4,2.6l-6,1.2l-6.5,2.6l-6.5,6.5l-5.4,6.4l-9.5,6.8l-7.7,4.6l2.4,1.2l-7.4,3.5l-6.9,1.7l-5.8,1.4l-5.8,3.7l-3.6,4.4l-2.6,3.4
					l0.3,2.7l-4.9,4.1l-3.7,4.5l-3.9,5.3l-4.5,6.3l-6.1,1.1l-2.2,3.8l-2.8,4.7l-2.8,6.9l-3.5,8.9l-3.2,8.8l-2.6,9.2l-2.8,8.9
					l-2.1,8.9l-1,7.5l-0.5,6.1l-0.7,6.5l-0.8,5.4l-0.4,7.6l0.7,7.4l0.9,4.7l1.2,3.4l1.4,3l1.2,6l3.3,4.4l1.9-0.8l3.7,6l3.6,4.6
					l2.4-1l3.8,3.1l2.7,1.4l4.2-2.6l3.8,1.4l4,1.8l6,3.6l8.1,5.3l6.8,3.3l4.5,4.1l4.3,3.9l2.8,3.3l3.5,3h1.6l4,3.1l3.6,4.1l2.7,2
					l3.3,2.1l4,1.4l1.1-0.1l2.6,1.6l1.9-0.4l4.4,2.9l4.5,3l2.4,0.9l5.5,5.2l5.1,3.9l8.5,8l2.7,3.4l2.8,4.8l2.9,8.5l0.7,4.1l0.3,3.2
					l0.3,5l-0.5,1.9l1,0.3l0.7,2.4l0.6,1.9l0.5,3.1l0.8,1.1l0.8,2.7l2,0.9l2.3,0.9l0.8,3.1l1.5,2.6l1.9,2l2.1,1.9l2,0.2l0.6,3.2
					l1.1,2.7l1.6,2.7l0.9,2.3l3.8,0.6l0.9,0.4l1.6,1.7l2.4,2.5l0.9,2.5l2.5-0.3l2.2,2.1l1.1,2.4h1.6l2.7,2l1.5,2.7l2.9,2.4l1.6,4
					l2.4,2l1.3,1.9l1.4,1.9l0.4,0.8l1.4,0.9l0.2,1.7l1.7,1.3l-0.1,0.9l1.2,3.6l0.5,0.4l2.6-2h3.3l2.7-0.4l2.4,0.1l2.3,0.6l1.4,1
					l0.7,1.5l1.9,3.1l0.7,0.8l0.5,3l0.5,1.2l0.3,1.4l0.2,1.2l1.8,1.7l4.6,5l0.9,0.5l2.6,2.7l2.1,2.7l1.2,2.6l0.4,3.2l0.9,1.5
					l-0.3,1.8l2.2,3.2l3,4.7l2.4,4.6l2.7,5.6l2.3,4.2l2,5.1l0.6,2.9l-0.3,0.7l1.7,3l4.3,4.3l3.3,4.2l4.1,2.4l2.4,3.5l4,1.4l4.1,1.2
					l2.5,2.4l6.9,1.1l5.6,0.6l5.8,0.6l5.1-0.3l3.6,1.5l8.2,1l4.6-1.6l2.5,0.6l4.9-1.3l4.7-3.5l0.2-4.1l3.4-3.9l2.5-5.6l1.5-6.9
					l2.3-7.5l2.7-6.5l2.5-5.9l2.5-5.5l2.2-4.2l1-3.5l0.3-4.9l1.9-4.4l0.5-4l2.9-1.3l-3.5-2.3l-1.3-3.8l1.1-1.3l-1.3-2.9l0.2-5.3
					l-0.5-5.8l-1.5-6.3l1.3-0.9l0.3-3l0.8-1.6l-0.3-8l0.6-5l2.2-1.4l1.6-2.7l0.8-3.1l0.2-3.9l-0.2-5.5l2.2-1.1l1.8-3.3l3.1-2.2
					l9.6,4.2l5.2,12.6l-0.3,4.4l0.4,4.7l-1.8,1.6l1.2,2.9l5.1,20l0.2,1.4l1.2,4.4l-0.6,2.6l1.8,2.9l2.4,6.6l4,9.9l4.9,11.5v4
					l2.9,7.8l3.1,5.3l2.9,5.4l1.8,7.4l-1.5,3.9l2.5,2.5l1.9,5.5l-3.1,3.2l4.5,3.2l5.6,3.8l5.2,6.5l5.9,7.1l5.4,6.9l4.9,7.6l6.1,9.4
					l5.8,10.3l4.2,9.1l3.7,4.8l5.9,4.4l6.8,2l7.3,4.2l8.1,4.6l10.8,4.8l4,3.4l14.5,4.5l12.2,1.3l9.4,6.6l5.6-2.7l10.6-3.8l10.1-2.3
					l8.6-1.1l7.4,0.6l7.8-4.2l6.6-6.4l4.3-3.4l6.2-7.7l5.8-5.2l4.8-7.9l0.7-0.8l1.5-4.3l1.1-3.9l1.3-4.6l-2.2-2.1l1.5-5l-1-1
					l-0.4-5.5l-0.4-5.1l1.3-6.4l1.4-6.2l-1.6-0.3l2-7.9l4.7-8.5l3.1-5.9l1.3-2.6l3.2-4.4l1.4-1l3.6-3.1l0.7,0.1l0.6-0.4l0.4-0.5
					l0.3-0.8l-0.1-0.2l-0.1-0.6l0.3-0.8l0.1-0.4l0.1-0.4l-0.5,0.1l-0.5,0.2l-5.7,0.3l-2.1-0.8l-2.1-1l-2-1.7l-1.8-2.5l-1.7-2.4
					l-0.6-3l-0.2-2.9l-0.2-2.2l-1-3.9l0.5-2.3l-3.4-5.2l0.2-5.2l1.6-3.7l-2.3-3.7l1.4-5.5l1.2-5.2l0.6-4.2l-1.2-2.1l1.5-5.5l1.4-6
					l0.7-4.7l0.5-4.5l-0.2-3.8l3.2-4.6l1.5-6l1.1-4.6l0.6-3.6l7.3-6.4l1.6-2.1l29.2-1.3l3.3,2.7l3.5,2.4l3.2,7.4l3,3.2l4,0.9l3,0.2
					l3.2,7l2.1,0.6l2.1,0.6l2,1.2l1.7,1.1l1.4-4l1.9,1.6l1.6,1.5l1,2.6l2.3-3.6l1,2.1l1.1,1.3l2.5-2.4l1.4,0.7l2.7-2.7l1.2,0.4
					l1.6,0.2l2-0.2l2.3-0.4l1.9-0.1l3.4-0.1l4.9-0.1l6.7-0.2l4.6-0.7l6.1-0.7l5.3-0.1l4,0.1l3.3,0.1l4.9,0.6l5.4,1.2l1.7,0.4
					l0.7,0.2l8.1,2.2l3.4,1.2l3.4,1.2l2.2,1.5l1.7,1.7l1.7,1.8l1.9,4.1l0.7,0.6l0.5,0.4l0.7,0.2l1.2-0.2l1.5-0.7l1,0.7l0.2,0.2
					l2.1,0.4l0.8,0.3l1.2,0.7l0,0l3.5,1.6l0.1,0.7l1.8-0.2l2.7-0.3l14.3,2.4l8.3,1.9l10.8,1.4l8.3-0.5l6.4-0.5l10.7-1.9l10,0.1
					l6.8,0.3l5.7-1.1l9.2-1.3l8.4-2.3l7.5-3.4l4.7,1.4l4.4-1.7l4-3.9l1.9,0.8l3.3-2.4l9.2-1.8l10.6-3.6l8.8-4l6.5-1.2l7.3-3.3
					l7.8-3.2l6.9-3.2l5.6-4.4l5.2-5l6.3-4.2l5.4-1.4l7-2.8l5.4-2.8l5.5-2.9l7.2,0.2l5.5-1.6l6.3-2.8l6.1-2.9l4.6-2.6l2.2-4.1
					l-0.1-3.3l3.2-4.2l3-3.1l0.5-3.3l3.3-3.9l-1.4-4l0.5-4.2l-0.3-3l0.1-3.3l1.5-5l1.2-7.3l0.9-4.5l0.3-6.2l3.3-5.6l-0.6-5.4l1.9-6
					l-1.3-4.7l0.7-5.4l-0.7-7.2l0.2-5.4l-2.3-5.3l-4.6-7.2l-3.3-6.8l-3.5-9l0.3-7.5l0.4-13l-0.7-2.8l-1.4-5.6l-1.6-6.8l-2.7-5.4
					l-2.1-4.5l-4.2-5.4l-3.5-7.2l-6.1-6.5l-3.3-8.3l-5.2-7.9l-6.6-2.3l-8.5-1.6l-7.9-3l-7.7-6l-6.7-0.9l-6.1-0.3l-6.8-1.2l-6.3-2.5
					l-5.8-1.1l-5.5-0.1l-4.9-2.8l-5-1.8l-6-3.1l-2-0.7h-3.6l-7.1,0.2l-3.9-1.4l-5.7-15.6l5.5-2.4l5,0.2l8.4,0.5l7.7,0.3l6.2,2.8
					l5.1,1.8l5.8,1.7l4.5,2.1l2.4-0.5l4.4-3.7l5.6-2.1l3.2-1.9l4.6-2.5l4.1-1.2l4.1,0.7l3.4-0.8l3.7-0.3l4.1-0.6l3.8,1.6l3,1.3
					l6.2,2.4l4,3.2l6,0.3l4.3,2.3l6-0.9l3.7,1.6l7.6-0.7l7.4-2.8l5.1,0.3l6.6-2.5l4-1.4l6-2.5l5.7-2.1l5.4-4.7l4.8-8l6.9-8.9
					l6.8-4.4l5-5.8l5.7-3.7l4.3-5.2l8.8-7.9l3.7-4.4l5.6-8.5l5.7-6.5l4.6-5.9l2.1-4.6l6.1-4.7l5.5-4.2l1.7-3l3.6-2.1l1-5.3l3.2-4.5
					l2.8-5.2l0.5-3.8l3.5-4.7l2.9-4.9l2.6-4.3l3.6-5.6l5.3-7.6l4.9-7.8l3.6-3.1l4.9-5.7l4.2-5.1l3.4-4.6l3.7-1.6l3.8-5.3l3.4-5
					l2.4-3.8l1.5-5.6l2-6.3l3.4-6.3l2.6-1.9l1.4-5.1l0.4-3.5l-1.4-7.8l0.7-10.4l2.1-6.8l0.9-5v-5.5l1.7-3l1.3-5.5l-1-5.7l-3.4-5.8
					l-4.2-5.8l-0.6-3.2l-1.7-4.6l-1.9-5.2l-2.8-6.8l-4.8-11.2l-2.9-3.1l-0.5-0.9l-0.5-0.4l-0.6-0.5l-0.7-0.5l-0.5,0.5l-0.5,2.5
					l-0.5,0.5l-1.3,0.2l-1.5,0.1l-1.2,0.2l-1.1,0.4l-1.3-0.2l-0.4-1.2l-2.4,2.5l-2.1,1.3l-2.2,1.3l-1.6,1l-1.8,0.9l-0.8,0.3l-1,0.3
					l-1.4,0.4l-1.6,0.5l-2.2,0.6l-4,0.7l-4.1,0.4l-4.1,0.2l-3.4-0.2l-1.3-0.1l-1.7-0.2h-1.6l-2,0.4l-2.8-0.4l-1.1-0.6l-1.5,1.2
					l-1.5,1.3l-1.7,2l-1.1,2.4l-1.8,1.3l-2.9,1.8l-2.9,2.6l-0.7,2.8l-3.4,5.3l-1.5,0.2l-2.3,2.6l-2.2,0.7l-1.2,2l-3.1-1l-2.8,2.6
					l-1.5,2l-2.5,2.7l-4,3.1l-2.6,3.2l-1.5,1.6l-1.7-0.4l-1.6,2.3l-1.3,1.6l-2.3,1.6l-1.7,0.9l-1,0.3l-1.9,2.7l-2.6,0.3l-2.4,0.2
					l-3-0.1l-1.6-1.9l-2.6,0.4l-2.6-2.1l-2.6-1.1l-1.5-0.4l-4-1.9l-2.3-0.3l-2.3-2l-2.8-2.5l-4.8-1.5l-0.5-0.1l-3.1-1.9l-4.7-6.4
					l-1-1.4l-4.2-2.9l-3.2-5l-3.6-4.8l-2.5-2.7l-5.7-5.9l-6.6-7.1l-4.4-5.3l-6.5-4.7l-1.1-1.2l-10.5-7.5l-5.4-4.4l-5.5-4.4l-5.9-5.2
					l-3.2-2.9l-2.6-2.6l-4.9-1.8l-7.1-5.6l-6.6-7.1l-6.2-3.9l-7-3.8l-7.2-3l-7.6-2.9l-9.8-5.3l-6.1-2l-6.4-2.8l-6-1.7l-3.6-2.5
					l-10-5.1l-4.7-1.4l-2.5-2l-5.9-3l-6.3-5.4l-3.2-1.6l-8.2-6.7l-2.9-3.4l-5.6-1.9l-5.9-4.5l-8.2-2.7l-3.4-0.5l-6.9-3l-1.2-0.8
					l-5.5-0.3l-5.7-1.4l-6.9-3.8l-0.5-0.4l-4-1.3l-3.9-3.5l-4-3.1l-0.5-0.9l-2.1-1.8l-1-1l-1-1.6l-2-1.5l-1.9-0.1l-1.6-0.2l-1.6,0.2
					l-2.3-0.7l-1.9-0.7l-1.4,1.3l-2.2,2.5l-1.6,0.7l-2.1,2.4l-1.6,0.2l-2.2,1.6l-3.2,1.7l-4.5,2l-4.4,0.3l-1.3,0.6l-2.8-0.3
					l-1.7,0.6l-2.2,0.9l-2.9,1l-2.9,0.4l-2.7,0.8l-2.4,0.7l-2.4,0.7l-1.4-0.2l-0.8,0.4l-2.2,0.1l-1.3-0.4l-0.8,0.3l-2.9-0.6
					l-3.1-0.6l-3.3-0.3l-5.1,0.5l-1.8,2.7l-4.6,1l-3.7-2.3l-3.4,0.8l-3.3-2l-3.1,0.9l-4.2,1.9l-2.6,1.7l-2.2-1.1l-2.1,2.1l-0.3,2
					l-2.6,1.6l-2.6-0.7l-2.1,0.4l-3.5,0.9l-4.4,1l-4,1.5l-3.4,1.1l-4.2,1.4l-4.2,1.5l-1.8-1.5l-2.8,2.7l-4.4,1.5l-4.5-1.1l-3.1,0.2
					l-5.1,2.3l-4.7,2l-3.9,2.2l-4.5,2.3l-4.1,2.8l-2.4-0.7l-4,2.6l-4.5,3.4l-7.3,3.1l-9.3,2.9l-8.8,3.7l-23.4-8.2l-6.7-4.5l-5.7-3.8
					l-13.2-2.7l-8.5-3.4l-8.7-3.7l-5.4-4.8l-6.2-0.6l-5.7-1l-5.2-0.4l-4.9-1l-6.5-1.5l-5.9-0.3l-3.3-2.6l-2.3,2l-5.2-0.4l-1.3-3.2
					l-4.1-0.6l-4.6-2l-4.3-0.1l-4.3-0.1l-4.6,0.1l-3.8-0.1l-4.3,0l-2.5-1.6l-1.6,0.4l-3.5-1l-3.6-1.2l-3.1-3.6l-3.3-1l-4.1-0.5
					l-3.6,0.7l-1.5-1.9h-2.4l-1.3-0.3l-0.9,1.1l-2.1-0.1l-2.5,0.1l-2.9,0.5l-3.3,1.5l-1.8,1l-3.2-0.1l-1.8-1.4l-1.1,0.8l-3.7-0.4
					l-1.2-2.8l-3.9,0.3h-5.6l-3.5-0.6l-3.1-0.1l-3.1,0.4l-3.2,0.3l-3,0.5l-1.9-0.7l-3.2,0.4h-2.1l-2.6-0.6l-2-1.4l-2.7-1.2l-1.2-2
					l-5.3,0.5l-2.5-0.2l-1.5,0.2l-1.2,0.2l-0.9-1l-0.4-0.3l-0.3-0.2l-0.2,0.2l-0.2,0.3l-0.1,1.1v0.6l-0.7,3l-3.2,2.9l-0.7,0.9
					l-1.6,4.7l0.7,7.5l0.4,2l1.2,7.9L1600.1,103.8z M993.6,29.3l2.7,4.6l2,3l3,2.6l2.5,2.4l2.1,3.4l2.7,1.7l3.5,3.3l2.4,0.6l2.6,0.5
					l2.9,1.8l3.2,2.3l2.9,2.4l2.4,2.7l3.2,0.5l4,1.2l2.6-0.2h0.1l2.9,1.1l3.8,0.4h2.2l0.2-0.7l4.3,0.2l2.3-0.5l1.8,0.7l4.6,0.1
					l4.4,0.3l1.5,0.8l4-0.2l-1.1-1.7l3.3-1.3l4.7,1.1l-0.1-1.3l1.4-1.7l1.5-1.4l1.7-1.2l3,1.9l0.5-3.6l1.6,0.5l3.6,0.6l0.6-0.4h3.3
					l-0.8-1.9l4.1,2.3l1.7-1.2l-0.3-1.7l3.2,0.1l4.4,1.9l3,0.8l0.2-1.1l1.7-1l-0.2-2.1l1.7-0.1l-0.4-4.1l0.9-0.6l0.2-1l0.8-2.7
					l-0.1-2l1.8-0.4v-2l1.1-1h0.4l0.8,1.2l2.3,2.3l0.1,0.8l1.8,0.9l2.3,7.9l1.2,0.9l-0.5,0.2l1.3,2.1l-1,1.1l1.2,2l1.5,1.9l2.7,3.3
					l2.7,3.7l1.6,2.7l2.2,2.9l-0.8,1.3l3.1,4l2.3,4.2l4.7,3l3.6,3.7l6.3,2.8l1.5,3l2.9,4.4l4.5,3.7l3,3.8l3.7,3.9l2.2,4.2l3.3,3.6
					l0.4,2.9l-0.2,4.3l1.3,5.7l0.8,6.5l2.2,6.5l0.2,3.3l-0.7,3.6l-0.6,3.6l3.2,6.2l-0.4,4l2.7,5.4l-1.3,3.3l1,4.7l-0.7,4.3l-1.6,3.8
					l2.3,5.5l-1.9,4.2l1.7,6.8l-0.3,5.6l-2.6,2.7l0.9,6.2l1.7,5.7l3.5,2.7l-1,3.4l3,5.6l2.8,5.6l2.7,4.5l1.8,5.8l1.2,5.3l-1.5,4.2
					l2.1,9.6l2.8,7.1l-1.2,2l-1.8,2.1l4.5,6.8l3.8,8.1l0.5,6l-1.6,2.5l2.5,7.7l4.8,12l3,10.2l3,7.1l0.1,5.7l0.6,5.2l-1,6.3l-2.3,5.1
					l-1.1,4.5l-2.7,2.6l-4.8,2.8l1.5,3.1l-6.4,3.7l-6.9,5.3l-9.4,6.8l-4.2,6.4l-4.7,3l-2.8,8l-3.3,8.3l-2.3,13.2l11.7,9.2l9.1,1.4
					l4.3,2l8.2,5.5l7,0.6l4.4,0.7l4.7,5.6l6,5l6.7,0.9l6.2,8.1l2.6,5.4l4.2,3.5l1,6.5l0.5,5l0.7,5.5l-0.7,5.8l-1.6,5.1l-1.5,5.5
					l-0.2,5.1l-0.5,7.4l2.8,8.4l2.2,5.5l0.5,3.6l-0.5,2.5l-1.8,2.6l0.7,5.2l-0.3,4.4l-0.6,5.5l1.6,5.6l1,5v4.8l0.3,4.9l-0.4,4.7
					l-3.5,3.9l0.2,5.8l3.5,4.6l0.1,4.6l-2,3.1l1.1,5.8l0.8,4.3l-1.4,2.6l1,3.6l-1.6,3.4l-1.9,5.3l-0.8,7l-2.4,4.5l-0.8,5.8l-3.5,3.3
					l-3.3,6.1l-3.9,2.6l-3,1.7l-3.2,0.7l-2.5,4.4l-4.1,2.3l-4,4.3l-2.9,2.6l-3.1,1.4l-3.8,5.8l-3.9,1.2l-2.8,4.5l-2.5,1l-1.4,3.1
					l-2.6,0.5l-3.5-0.6l-3.6,3.4l-3.3,1.2l-3.1,4.1l-4.7,0.9l-0.4-2.2l-4.4,2.6l-4.5,2.4l-4.3,1.8l-3.9,1.8l-4.8,2.1l-4.3,1.3
					l-0.5-2l-4.3,1.7l-1.2-2l-5.7,3l-6.5,3.1l-4.4,2l-0.7,0.7l-0.7,0.8l-1.3,4.9l0.3,2.1l1.6,5.9l2.5,2.7l-0.1,0.4l-1.7,0.2l-0.7,2
					l-1.4,2.9h-2.2l-1.5,2.5l-1.8,2l-0.6,1.6l-2.4,1.5l-3.2,2.6l-1.1,1.7l-2.7,0.8l-1.7,2.3l-3.2,1.2l-3.2-0.7l-2.8,1.8l-3,1.8
					l-1.2,2.4l-3.3,1.1l-2.8-0.1l-1.6,1.7l-2.2,0.6l-2.3,0.6l-3.4,0.4l-3.4,0.7l-1.9,1.7l-3.2,0.4l-1,1l-2.7,0.6l-2,2.3l-1.2,2.3
					l-1,2.4l-0.6,2.6l-1.8,0.5l-2.1,2.6l-2.4,2.2l-3,2.1l-3.1,1.6l-0.8-0.2l-2.7,1.6h-0.1l-3,0.6l-2-0.8l-1.9,2.6l-6.1,1.2l0.3,1.6
					l-3.2-0.8l-2.3-0.2l-2-0.5l-2.4-0.6l-1.2-1.3l-6.7-2.2l-3-0.3l-2.1,1.2l-3.5,2.6l-0.9,1l-2.5,1.7l-2.6,1.7l-3.1,2.2l-2.9,2.1
					l-3.2,2.3l-1.4,3.3l-2,1.9l-3,3.9l-1.7,3.1L980,822l-4.1,5.6l0.1,2.3l0.6,2.7l1.1,1.8l1.3,1l-0.1,0.9l-3.6,1.7l-6.9,4.2
					l-2.9,1.2l-3.4,1.5l-2.7-0.7l-4,1.1l-5.2-0.7l-6.8,1.5l-4.1-0.8l-4-1.1l-3.9-0.5l-2.8-0.4l-2.1-0.9l-1.8-1.2l-4.7,1.9l-2.4-1.5
					l-1-2.8l-2.4-0.7l0.5-1.8l-2.7-2.9l-2.1-3l-2.5-2.7l0.9-4.3l-2.4-2.5l-2.7-2.3l-2.8-2.1l-4.7-1l-8.1,5l-2.3,5.6l-2.3,4.7l-1,2.3
					l-4.7,3.1l-4.3,6.2l-4.4,6.3l-2.7,3.2l-3.9,4.4l-2.3,4.6l1,5.6l-0.5,4.8l1.2,4.2l-0.3,3.6l-2.8,1.5l-6.2,5.8l-3.3,2.4l-2.6,5
					l-3.7,3l-2.6,6.5l-5.4,3.1l-4.8-0.5l-3.9,1.4l-5.5-0.6l-5.6,0.4l-5.9-1.1l-4.5-1.2l-1.2-0.1l-0.4-0.5l-2-2.5l-2.9-1.8l-2.7-1.1
					l-1.4-2.2l-1.9-1.3l-6.2-3.4l-2.8-0.9l-12.8-2h-0.1l-3,0.6l-5.7,3.1l-2.1,1.7l-1.4,2l-2.6,1.4l-1.6,2.6l-0.4,0.3l-2.9,0.2
					l-1.7-0.9l-0.8-1.6l0.4-2.6l0.5-1.2l-0.2-1.9l-0.3-1.5l-0.2-1.5l-0.1-1.1l-0.2-1.7v-1.4l-0.5-1.6l-0.9-1.5l-0.8-1.3l-0.5-0.7
					l-0.3-0.5l-0.4-0.6l1.3-1.3l-0.7-0.6l-0.5-0.8l-0.1-1.1l0.4-2.4l-0.7-1.1l-0.3-2.8l-0.7-1.6l-0.8-0.9l-0.6-0.7l-1.1-2.1
					l-1.8-5.3l-0.6-1.2l-3.2-12.9l-2.2-5.2l-0.3-4l-2.1-3l-3.1-1.9l-2.5-2.5l-1.1-5.7l-4.1-2.2l2.1-6.8l-5.1-3.7l-6.3-4.2l1.4-3.3
					l2.6-3.4l-5-4.5l-4-3.9l2.4-3.5L703,781l-3.4-5.4l2.6-1.9l-3.8-5.1l-2.4-3.4l2.5-2.3l3.8-0.7l-3.1-4.8l-3.6-4.8l-2.8-3.9
					l4.6-1.8l-2.3-3.6l-2.2-3.5l-1.8-3.4l-2.3-3.8l-2.6-4.1l3.8-2.1l-2.8-4.3l-3.2-4.3l-3.6-4.6l-23.9-12.5l-2.6,1.6l-2.5,2
					l-3.2,1.7l-5.8-1.4l-2.5,2.4l-2.8,2.8l-2.5,2.6l-3.3,2.2l-2.9,1.9l-3.6-2l-2.2,2.5l-2.2,2.7l-1.7,2.3l-2.8-1.7l-3.4-2.6
					l-1.2,2.7l-1.7,2.8L607,721l-0.8,4.4l-2.5,4.2l-1.7-3.2l-1.8,4.8l-1.3,2.3l-1.7-2l-1.9-3.5l-0.6,3.5l-0.7,3.6l-2.5-4.3l-0.2,2.7
					l-4.1-3.6l-0.4,1.2l-0.6,1l-0.7,0.9l-9.3-3.2l-2.8,0.2l-6.7-3.1l-1.7,0.2h-1.9l-5.6-1.6l-0.9,1l-2.1-0.3l-5.7-0.1l-1.6,0.5
					l-4.9,0.8l-2,0.2l-2.2,0.6l-2.1,0.6l-2.2,0.7l-1.9,0.3l-1.9,1l-3.7,0.9l-1.8,1.9l-1.7,1.8l-2.1,1.8l-1.9,3.3l-0.4-0.7l-0.6,1.8
					l-1.4-0.3l-0.2,2l-0.2,1.9l-0.5,1.5l-0.6,1.1l0.2,2.3l0.5,2.1l0.2,1.5l0.5,1.8v1.2l1.5,2.9l-0.9-0.1l-1.2,0.2l-0.7,0.4l-3.2-0.1
					l-0.4,1.1l-1.6,0.2l-0.1,1.1l-1-0.2l-1.6,0.6l-1.1,0.9l-0.8,0.1l-0.9,1.4l-1,0.3l-1.1-1.6l-4.2-3.2l-11.4-1l-4.5,1.3l-7.9,1.9
					l-1.7,1.4l-3,1.7l-5.9,1.6l-4.4,1.9h-5.4l-2,1.2l-6.9,2.2l-4.4,1.9l-3.6-0.3l-2.3,1.3l-2.1,0.6l-4.1,0.9l-3.2,1.2l-3-0.3
					l-6.1-0.2l-4.8-2.4l-12.1-5.3l-2.2-1l-8.8-1.4l-5.3-1.1l-2.7,0.6l-7.4-1.1l-4.1-1.2l-3.2-1.6l-0.6-2.6l-3.6-1.2l-3.4-1.7
					l-4.1-2.9l-7.3-3.1l-2.3-3.4l-5.8-3l-5.1-3.1l-0.7-1.8l-4.1-1.6l-2.4-1.6l-0.8-1.9l0.4-2.5L322,731l-0.1-2.4l0.5-2.9l-3.2-1.1
					l-0.2-2.7l-0.9-5.1l-0.2-2.9l4.2-1.3l0.3-2.6l0.4-2.5L320,707l2.6-2.1l0.6-2.4l4.2-6.1l0.7-3.3l3-2.8l1.1-4l2.4-5.8l3.2-5.8
					l3-3.9l-2.3-2.3l2-4.3l3.4-5.2l2.4-4.5l1.7-3.9l0.8-3.8l3-2.9l1.9-3.3l3.5-0.6l2.1-3.3l1.9-3l4-1.9l2.7-3.1l2.5-2.4l3.3-3.4
					l1.7-4.9l0.9-5.3l-0.6-5.6l0.4-6.7l-1.9-4.6l0.2-6l-3.1-5.4l-2.9-3.9l0.6-4.3l1.8-4.4l-3.6-3.8l3.2-3.9l-3.4-2.4l4.9-2.3
					l1.7-4.5l-3.5-2.3l4.6-1.9l0.8-4.6l-2.6-3.4l1-6.6l1.1-5.3l-0.8-9.2l-7.4-10.5l-4.8,0.1l-5.4,0.7l-5.9,0.7l-1.8,2.3l-4-1.7
					l-5.1,1.5l-0.9,3.8l-3.3-1.6l-3.7,2l-0.1,4.9l-5.1,0.2l-3.5,1.3l-5.1-0.1l-7.5,2.7l-5.1,4.8l-4,5.6l-1.6,0.9l-0.1,3.8l-3.1-1
					l-4.3-1.6l-3.7-1.6l-2.6-3l-4.7-1.1l-3.7-1.7l-2.5-5.2l-4.6-3.6l-5.5-4.3l-3.3-3.4l-4.2-0.2l-3-3.9l-5.8-1.8l-5.3-2.8l-4.9-3.4
					l-5.5-3.6l-5.8-4.1l-5.8-4.7l-4.4,1.4l-5.1-3.5l-4.5-2.5l-4.6-2.6l-3.5-7.9l-4.7-4.1l-4.6-1.8l-4.5-1.4l-3-7.4l-3.7-4.1
					l-3.4-0.7l-3.2-3.1l-0.5-3.6l-2.8-3.9l-3-4.6l-4.3-4.8l-4-4.6l-6-2.5l-3.8-3.5l-2.8-3.2l-5.2-0.8l-3.2-2.7l-2.5-2.9l-5-0.2
					l-3.8-0.7l-5.3-4l-10.1-4.5l-4.5-1.2l-2.8-2.9l-5.2-1.4l-7.7-2.9l-6.5-1.4l-6.5-1.6l-2.2-3.9l-5.9-1.5l-5-2.3l-4.1-2.9l-3.8-3.2
					l-3.3-0.5l-2.8-5.1l-0.6-3.9l-2.7-3.6l-7.7-5.8l-5.6-4.7l-3.6-5.3l-2.4-5.2l-4.4-1.7l-1.8-4.7L17,339l-3.3-5.7l-0.3-2.6l0.2-3.4
					l-0.2-6l-2.1-4.7l-1.6-4l-3.4-4.2L4.4,303l-2.2-3.4l-1.4-1.8L0,293.3l0.1-3.3l0.7-2.4l0.9-2.4l0.8-1.8l1.3-0.9l2.9,3.2l1.4-0.8
					l1.4-0.5l1.6-0.5h1.7l1.9,0.1l2.3,2l3.4,0.2h0.7l1.1,0.2l6.4,8.1l2.9,0.3l3.7-1.7l0.4-2.9l2.3-0.6l2.6-0.9l2.4-1l1.9-1.4L47,285
					l1.8-1.3l1.8-0.9l1.8-0.7l1.7-0.9l1.7-0.9l1.9-0.7l2.1,1.5l0.9-1l3.3-0.3l0.8-3.6l2.1-0.8l2.3-0.5l0.8-2.7l3.4-0.3h1.2h2.6
					l1.7-1.5h2.3l6.1,2.4l6.8,1.4l4.6-0.9l4.3-1.3l3.3-0.9l4.3-1.9l3-0.4l5.3-3l3.3-0.4l3-1.6l1.6-0.5l3.7-0.7l4-1.8l3.9-1.7
					l3.7-1.5l3.7-1.1l4.1-0.8l4.1-0.2l2.1,1.4l2.1,2.9l1.5,3.5l1.2,3.1l2,2.4l4.2-2.7l4.1-7.2l2.5-5.3l6.5-8.3l3.7-6.4l4.2-3.4
					l9.8-9.5l4.5-2.8l4.5-5l2.4-2.4l5.4-3l4.3-4.4l3.3-3.2l2-2.1l4.7-2.3l7.1-5.3l4.7-4.9l3.4-3.5l9.7-6l5.3-4.2l5.7-5.1l7.9-5.4
					l7.1-6.4l6-5.6l7.7-7.8h1.5l7.5-5.8l6.8-6l4.4-6.2l5.8-4.8l4.6-3.7l3.4-5.5l3.4-2.5l7.6-6l6.9-7l6.3-3.1l4-3.5l2.9-1.4l4.5-2.2
					l4.2-3.3l3.6-2.7l3.1-2.9l1.4-1.6l6.6-5.6l4.3-1.6l5.3-4.5l0.2-0.9l7.1-5l3.1-1.6l2.4-2.2l3.6-1.9l2.2-2l1.7-0.6l2.3-3.6v-0.3
					l2.3-2.8l1.3-4.7l-0.5-2.5l1.3-3.4l0.8-2.9l1.1-0.4l3.1,1.6l2.7,1.3l1.8-0.7l2.5-0.4l3.2-1.6l2.4-3l4.2-1.5l2.6-2.1l2.9-0.2
					l3.6-0.2l4.3-1.5l8.5-1.5l3.8-1.2l5.6-1.1l5.7-0.7h3.9l4.5,0.2l4-0.7l5-1l2.7-0.5l4.3-0.9l6.7-1.7l4.7-2.1l2.8-1l5.8-0.7
					l7.5-1.5l4.3,2.4l4.8,1l4.5,0.6l3.4-0.5l2.9,0.5l4.9,0.8l5.1-0.4l5.7,0.2l4.9-0.3l3.6,0.4l4.8-0.8l4.1,0.1l3.5,0.7l4.7,0.7
					l5.3,1l4.1-0.8l0.7,2.4l5,1.4l5,1.3l3.8-0.5l4.2,1.3l7.4,2.7l4.4,1.1l5.4,1.9l6.4,2.3l6.9,3l4.2,0.1l6.3,2.8l2.7,3.5l7.2,2.9
					h5.9l8,3.2l8.3,4.1l8.9,4.2l6.3-0.8l7.1,3.8l65,12.3l10,0.2l0.9-3.4l8.9-0.5l7.1-0.4h5.5l1.9-2.8l3.2,2.3l5.1-0.6l4.7-1l1.8-4.2
					l3.4-1.1l10-1.8l3.3-1l4.1-0.8l3.8-1.4l3.4-0.8l1.7-2.9l2.7-1.7l2.8,2.1l4.3-1.9l1.5-3.4l4.5-1.3l4.9-1.5l4.8-1.6l4.6-1.1
					l3.2-3.5l4-1.5l2.8-4l3.5-0.5l1.7-4.7l3.9-0.8l3.8-0.8l2.2-4.2l2.8-3.7l1.4-3.5l3.5,1l1.2-2l2.3,0.3l2.8-0.1l1.9-1.3l2.6,0.4
					l3.9,0.2h2.5l2-0.7l2.5-1l4.2-4.4l0.8-1.2l2.5-0.1l3.4,1.3l2.2-1l3.1,0.6l3.5,0.6l3.4,0.4l3.3,0.8l2.3-1.5l2.9,0.6l1.9-0.6
					l2.1-0.1l2.2-0.5l1.8-0.6l2.3-0.8l2.2-0.2l0.1,0.8l-0.5,2.8l-0.7,3.2l-0.3,3.5l-0.3,0.5l0.5,1.7v0.3v2.8l2.1,2.1l0.2,1l1.7,3.8
					l1.9,3.2L993.6,29.3z"/>
			</defs>
			<clipPath id="SVGID_6_">
				<use xlink:href="#SVGID_5_"  style="overflow:visible;"/>
			</clipPath>
			<g id="cutouts_shapes" inkscape:groupmode="layer" inkscape:label="shapes" class="st2">
			</g>
		</g>
	</g>
	<g id="cutouts_labels" inkscape:groupmode="layer" inkscape:label="labels">
	</g>
</g>
<g id="display" inkscape:groupmode="layer" inkscape:label="display">
	<g>
		<g>
			<defs>
				<path id="SVGID_7_" d="M1600.1,103.8l-1.4,3.3l-1.5,2.1l-4.9,9.1l-1.1,1.2l-1.9,4.6l-1.6,3.3l-2.8,3.3l-2.7,2.3l-3.1,2.6
					l-6.8,4.2l-1.2,0.6l-6.2,1.9l-2.9,0.2h-0.4l-2.9-0.6l-3.2-1l-3,0.2l-2.5-0.6l-0.4,0.1l-2,0.5l-7-1.8h-0.3l-3.5-1h-4l-0.4-0.6
					l-5.5,0.1l-0.4-0.7l-3.1-0.3l-3.3-0.2l-3.4-0.5l-2.2,0.3l-1.2,0.3l-2.7-1.4l-0.8-0.3l-2.5,1.2l-3.3,0.1h-3l-2.3-0.3l-2.6,0.2
					l-2.7,1l-2.9,1.6l-2.7-0.1l-2.4-0.1l-1.7,0.5l-1.2-0.8l-1.5-0.9l-1.7,0.4l-2.6-0.8l-1.6-1.2l-1.6-1.2l-1.8-1.4l-1.9-1.3
					l-1.1,0.2l-1.8-1.3l-2.3-0.7l-1-0.3l-1.4-1.3l-1.8-1l-0.8-0.4l-0.9-0.1l0.4,0.2l1.1,2.5l1.2,3.2l1.6,3.5l0.5,3.9l-0.2,1.2l0.3,1
					l0.4,0.5l-0.6,2.2h2.1l-2,2.7l-0.5,2.7l1.8,0.6l-0.9,2.9l2.2,0.3l-0.5,2.9l-0.5,3.2l-0.7,3.8l0.5,3.9l-2.1,4.3l2.7-0.6l0.1,3.5
					l-0.4,4l-1.7,4.9l0.3,3.2l1.3,3.6l-0.8,8.4v1l-0.3,2.7l-0.9,3.6l1.2,0.8l-0.1,2.9l0.9,1.8h2.2l1.7,1.1l3.1,1.6l0.4,0.2l0.8,2.1
					l0.3,2.2l0.7,2.4l1,2.7l-3.3,3.3l-3.8,3.1l-2.7,2.9l1.2,2.7l-1.9,4.3l-1.5,4.1l-1.5,4.2l-1.5,3.6l-2.1,4.5l-1.8,4.2l-1.9,4.2
					l-2.3,4.1l-3.5,4l-4.9,4.6l-2.9,4.2l-2.1,4.7v6.6l-1.5,3.6l-0.8,6.5l-1.1,8l-0.6,8.1l3.5,0.5l-1.4,6.3l-2.5,8.3l-2.2,8.2
					l-0.5,6.1l0.2,5l1.1,6.6l2.2-0.1l-1.2,7.2l-2.5,8.1l-1.4,5.4l-4.2,7.6l-1.9,3.4l-0.9,3.5l3.1,0.8l-0.3,4.5l1.9,5.6l2.6-0.3
					l2.2,4.2l3.5,4.5l3.6,1l2.2,4.3l2.5,5.5l1,4.8l0.4,4.3l1.9,2l2.9,1.6l4.4-0.5l5.5,1.6l4.7,1.6l3.7,0.1l4.7,17.1l-7,0.9l-5.4-0.2
					l-6.4-2.3l-4.7-1.6l-4.1,1.6l-5.2-1.1h-5.9l-6.4,0.8l-6.2,1.1h-5.2l-6.3-1l-5.6,1.6l-10-2.4l-8.9-0.9l-2,2.3h-7l-6.3,0.7
					l-1.4,2.6l-6,1.2l-6.5,2.6l-6.5,6.5l-5.4,6.4l-9.5,6.8l-7.7,4.6l2.4,1.2l-7.4,3.5l-6.9,1.7l-5.8,1.4l-5.8,3.7l-3.6,4.4l-2.6,3.4
					l0.3,2.7l-4.9,4.1l-3.7,4.5l-3.9,5.3l-4.5,6.3l-6.1,1.1l-2.2,3.8l-2.8,4.7l-2.8,6.9l-3.5,8.9l-3.2,8.8l-2.6,9.2l-2.8,8.9
					l-2.1,8.9l-1,7.5l-0.5,6.1l-0.7,6.5l-0.8,5.4l-0.4,7.6l0.7,7.4l0.9,4.7l1.2,3.4l1.4,3l1.2,6l3.3,4.4l1.9-0.8l3.7,6l3.6,4.6
					l2.4-1l3.8,3.1l2.7,1.4l4.2-2.6l3.8,1.4l4,1.8l6,3.6l8.1,5.3l6.8,3.3l4.5,4.1l4.3,3.9l2.8,3.3l3.5,3h1.6l4,3.1l3.6,4.1l2.7,2
					l3.3,2.1l4,1.4l1.1-0.1l2.6,1.6l1.9-0.4l4.4,2.9l4.5,3l2.4,0.9l5.5,5.2l5.1,3.9l8.5,8l2.7,3.4l2.8,4.8l2.9,8.5l0.7,4.1l0.3,3.2
					l0.3,5l-0.5,1.9l1,0.3l0.7,2.4l0.6,1.9l0.5,3.1l0.8,1.1l0.8,2.7l2,0.9l2.3,0.9l0.8,3.1l1.5,2.6l1.9,2l2.1,1.9l2,0.2l0.6,3.2
					l1.1,2.7l1.6,2.7l0.9,2.3l3.8,0.6l0.9,0.4l1.6,1.7l2.4,2.5l0.9,2.5l2.5-0.3l2.2,2.1l1.1,2.4h1.6l2.7,2l1.5,2.7l2.9,2.4l1.6,4
					l2.4,2l1.3,1.9l1.4,1.9l0.4,0.8l1.4,0.9l0.2,1.7l1.7,1.3l-0.1,0.9l1.2,3.6l0.5,0.4l2.6-2h3.3l2.7-0.4l2.4,0.1l2.3,0.6l1.4,1
					l0.7,1.5l1.9,3.1l0.7,0.8l0.5,3l0.5,1.2l0.3,1.4l0.2,1.2l1.8,1.7l4.6,5l0.9,0.5l2.6,2.7l2.1,2.7l1.2,2.6l0.4,3.2l0.9,1.5
					l-0.3,1.8l2.2,3.2l3,4.7l2.4,4.6l2.7,5.6l2.3,4.2l2,5.1l0.6,2.9l-0.3,0.7l1.7,3l4.3,4.3l3.3,4.2l4.1,2.4l2.4,3.5l4,1.4l4.1,1.2
					l2.5,2.4l6.9,1.1l5.6,0.6l5.8,0.6l5.1-0.3l3.6,1.5l8.2,1l4.6-1.6l2.5,0.6l4.9-1.3l4.7-3.5l0.2-4.1l3.4-3.9l2.5-5.6l1.5-6.9
					l2.3-7.5l2.7-6.5l2.5-5.9l2.5-5.5l2.2-4.2l1-3.5l0.3-4.9l1.9-4.4l0.5-4l2.9-1.3l-3.5-2.3l-1.3-3.8l1.1-1.3l-1.3-2.9l0.2-5.3
					l-0.5-5.8l-1.5-6.3l1.3-0.9l0.3-3l0.8-1.6l-0.3-8l0.6-5l2.2-1.4l1.6-2.7l0.8-3.1l0.2-3.9l-0.2-5.5l2.2-1.1l1.8-3.3l3.1-2.2
					l9.6,4.2l5.2,12.6l-0.3,4.4l0.4,4.7l-1.8,1.6l1.2,2.9l5.1,20l0.2,1.4l1.2,4.4l-0.6,2.6l1.8,2.9l2.4,6.6l4,9.9l4.9,11.5v4
					l2.9,7.8l3.1,5.3l2.9,5.4l1.8,7.4l-1.5,3.9l2.5,2.5l1.9,5.5l-3.1,3.2l4.5,3.2l5.6,3.8l5.2,6.5l5.9,7.1l5.4,6.9l4.9,7.6l6.1,9.4
					l5.8,10.3l4.2,9.1l3.7,4.8l5.9,4.4l6.8,2l7.3,4.2l8.1,4.6l10.8,4.8l4,3.4l14.5,4.5l12.2,1.3l9.4,6.6l5.6-2.7l10.6-3.8l10.1-2.3
					l8.6-1.1l7.4,0.6l7.8-4.2l6.6-6.4l4.3-3.4l6.2-7.7l5.8-5.2l4.8-7.9l0.7-0.8l1.5-4.3l1.1-3.9l1.3-4.6l-2.2-2.1l1.5-5l-1-1
					l-0.4-5.5l-0.4-5.1l1.3-6.4l1.4-6.2l-1.6-0.3l2-7.9l4.7-8.5l3.1-5.9l1.3-2.6l3.2-4.4l1.4-1l3.6-3.1l0.7,0.1l0.6-0.4l0.4-0.5
					l0.3-0.8l-0.1-0.2l-0.1-0.6l0.3-0.8l0.1-0.4l0.1-0.4l-0.5,0.1l-0.5,0.2l-5.7,0.3l-2.1-0.8l-2.1-1l-2-1.7l-1.8-2.5l-1.7-2.4
					l-0.6-3l-0.2-2.9l-0.2-2.2l-1-3.9l0.5-2.3l-3.4-5.2l0.2-5.2l1.6-3.7l-2.3-3.7l1.4-5.5l1.2-5.2l0.6-4.2l-1.2-2.1l1.5-5.5l1.4-6
					l0.7-4.7l0.5-4.5l-0.2-3.8l3.2-4.6l1.5-6l1.1-4.6l0.6-3.6l7.3-6.4l1.6-2.1l29.2-1.3l3.3,2.7l3.5,2.4l3.2,7.4l3,3.2l4,0.9l3,0.2
					l3.2,7l2.1,0.6l2.1,0.6l2,1.2l1.7,1.1l1.4-4l1.9,1.6l1.6,1.5l1,2.6l2.3-3.6l1,2.1l1.1,1.3l2.5-2.4l1.4,0.7l2.7-2.7l1.2,0.4
					l1.6,0.2l2-0.2l2.3-0.4l1.9-0.1l3.4-0.1l4.9-0.1l6.7-0.2l4.6-0.7l6.1-0.7l5.3-0.1l4,0.1l3.3,0.1l4.9,0.6l5.4,1.2l1.7,0.4
					l0.7,0.2l8.1,2.2l3.4,1.2l3.4,1.2l2.2,1.5l1.7,1.7l1.7,1.8l1.9,4.1l0.7,0.6l0.5,0.4l0.7,0.2l1.2-0.2l1.5-0.7l1,0.7l0.2,0.2
					l2.1,0.4l0.8,0.3l1.2,0.7l0,0l3.5,1.6l0.1,0.7l1.8-0.2l2.7-0.3l14.3,2.4l8.3,1.9l10.8,1.4l8.3-0.5l6.4-0.5l10.7-1.9l10,0.1
					l6.8,0.3l5.7-1.1l9.2-1.3l8.4-2.3l7.5-3.4l4.7,1.4l4.4-1.7l4-3.9l1.9,0.8l3.3-2.4l9.2-1.8l10.6-3.6l8.8-4l6.5-1.2l7.3-3.3
					l7.8-3.2l6.9-3.2l5.6-4.4l5.2-5l6.3-4.2l5.4-1.4l7-2.8l5.4-2.8l5.5-2.9l7.2,0.2l5.5-1.6l6.3-2.8l6.1-2.9l4.6-2.6l2.2-4.1
					l-0.1-3.3l3.2-4.2l3-3.1l0.5-3.3l3.3-3.9l-1.4-4l0.5-4.2l-0.3-3l0.1-3.3l1.5-5l1.2-7.3l0.9-4.5l0.3-6.2l3.3-5.6l-0.6-5.4l1.9-6
					l-1.3-4.7l0.7-5.4l-0.7-7.2l0.2-5.4l-2.3-5.3l-4.6-7.2l-3.3-6.8l-3.5-9l0.3-7.5l0.4-13l-0.7-2.8l-1.4-5.6l-1.6-6.8l-2.7-5.4
					l-2.1-4.5l-4.2-5.4l-3.5-7.2l-6.1-6.5l-3.3-8.3l-5.2-7.9l-6.6-2.3l-8.5-1.6l-7.9-3l-7.7-6l-6.7-0.9l-6.1-0.3l-6.8-1.2l-6.3-2.5
					l-5.8-1.1l-5.5-0.1l-4.9-2.8l-5-1.8l-6-3.1l-2-0.7h-3.6l-7.1,0.2l-3.9-1.4l-5.7-15.6l5.5-2.4l5,0.2l8.4,0.5l7.7,0.3l6.2,2.8
					l5.1,1.8l5.8,1.7l4.5,2.1l2.4-0.5l4.4-3.7l5.6-2.1l3.2-1.9l4.6-2.5l4.1-1.2l4.1,0.7l3.4-0.8l3.7-0.3l4.1-0.6l3.8,1.6l3,1.3
					l6.2,2.4l4,3.2l6,0.3l4.3,2.3l6-0.9l3.7,1.6l7.6-0.7l7.4-2.8l5.1,0.3l6.6-2.5l4-1.4l6-2.5l5.7-2.1l5.4-4.7l4.8-8l6.9-8.9
					l6.8-4.4l5-5.8l5.7-3.7l4.3-5.2l8.8-7.9l3.7-4.4l5.6-8.5l5.7-6.5l4.6-5.9l2.1-4.6l6.1-4.7l5.5-4.2l1.7-3l3.6-2.1l1-5.3l3.2-4.5
					l2.8-5.2l0.5-3.8l3.5-4.7l2.9-4.9l2.6-4.3l3.6-5.6l5.3-7.6l4.9-7.8l3.6-3.1l4.9-5.7l4.2-5.1l3.4-4.6l3.7-1.6l3.8-5.3l3.4-5
					l2.4-3.8l1.5-5.6l2-6.3l3.4-6.3l2.6-1.9l1.4-5.1l0.4-3.5l-1.4-7.8l0.7-10.4l2.1-6.8l0.9-5v-5.5l1.7-3l1.3-5.5l-1-5.7l-3.4-5.8
					l-4.2-5.8l-0.6-3.2l-1.7-4.6l-1.9-5.2l-2.8-6.8l-4.8-11.2l-2.9-3.1l-0.5-0.9l-0.5-0.4l-0.6-0.5l-0.7-0.5l-0.5,0.5l-0.5,2.5
					l-0.5,0.5l-1.3,0.2l-1.5,0.1l-1.2,0.2l-1.1,0.4l-1.3-0.2l-0.4-1.2l-2.4,2.5l-2.1,1.3l-2.2,1.3l-1.6,1l-1.8,0.9l-0.8,0.3l-1,0.3
					l-1.4,0.4l-1.6,0.5l-2.2,0.6l-4,0.7l-4.1,0.4l-4.1,0.2l-3.4-0.2l-1.3-0.1l-1.7-0.2h-1.6l-2,0.4l-2.8-0.4l-1.1-0.6l-1.5,1.2
					l-1.5,1.3l-1.7,2l-1.1,2.4l-1.8,1.3l-2.9,1.8l-2.9,2.6l-0.7,2.8l-3.4,5.3l-1.5,0.2l-2.3,2.6l-2.2,0.7l-1.2,2l-3.1-1l-2.8,2.6
					l-1.5,2l-2.5,2.7l-4,3.1l-2.6,3.2l-1.5,1.6l-1.7-0.4l-1.6,2.3l-1.3,1.6l-2.3,1.6l-1.7,0.9l-1,0.3l-1.9,2.7l-2.6,0.3l-2.4,0.2
					l-3-0.1l-1.6-1.9l-2.6,0.4l-2.6-2.1l-2.6-1.1l-1.5-0.4l-4-1.9l-2.3-0.3l-2.3-2l-2.8-2.5l-4.8-1.5l-0.5-0.1l-3.1-1.9l-4.7-6.4
					l-1-1.4l-4.2-2.9l-3.2-5l-3.6-4.8l-2.5-2.7l-5.7-5.9l-6.6-7.1l-4.4-5.3l-6.5-4.7l-1.1-1.2l-10.5-7.5l-5.4-4.4l-5.5-4.4l-5.9-5.2
					l-3.2-2.9l-2.6-2.6l-4.9-1.8l-7.1-5.6l-6.6-7.1l-6.2-3.9l-7-3.8l-7.2-3l-7.6-2.9l-9.8-5.3l-6.1-2l-6.4-2.8l-6-1.7l-3.6-2.5
					l-10-5.1l-4.7-1.4l-2.5-2l-5.9-3l-6.3-5.4l-3.2-1.6l-8.2-6.7l-2.9-3.4l-5.6-1.9l-5.9-4.5l-8.2-2.7l-3.4-0.5l-6.9-3l-1.2-0.8
					l-5.5-0.3l-5.7-1.4l-6.9-3.8l-0.5-0.4l-4-1.3l-3.9-3.5l-4-3.1l-0.5-0.9l-2.1-1.8l-1-1l-1-1.6l-2-1.5l-1.9-0.1l-1.6-0.2l-1.6,0.2
					l-2.3-0.7l-1.9-0.7l-1.4,1.3l-2.2,2.5l-1.6,0.7l-2.1,2.4l-1.6,0.2l-2.2,1.6l-3.2,1.7l-4.5,2l-4.4,0.3l-1.3,0.6l-2.8-0.3
					l-1.7,0.6l-2.2,0.9l-2.9,1l-2.9,0.4l-2.7,0.8l-2.4,0.7l-2.4,0.7l-1.4-0.2l-0.8,0.4l-2.2,0.1l-1.3-0.4l-0.8,0.3l-2.9-0.6
					l-3.1-0.6l-3.3-0.3l-5.1,0.5l-1.8,2.7l-4.6,1l-3.7-2.3l-3.4,0.8l-3.3-2l-3.1,0.9l-4.2,1.9l-2.6,1.7l-2.2-1.1l-2.1,2.1l-0.3,2
					l-2.6,1.6l-2.6-0.7l-2.1,0.4l-3.5,0.9l-4.4,1l-4,1.5l-3.4,1.1l-4.2,1.4l-4.2,1.5l-1.8-1.5l-2.8,2.7l-4.4,1.5l-4.5-1.1l-3.1,0.2
					l-5.1,2.3l-4.7,2l-3.9,2.2l-4.5,2.3l-4.1,2.8l-2.4-0.7l-4,2.6l-4.5,3.4l-7.3,3.1l-9.3,2.9l-8.8,3.7l-23.4-8.2l-6.7-4.5l-5.7-3.8
					l-13.2-2.7l-8.5-3.4l-8.7-3.7l-5.4-4.8l-6.2-0.6l-5.7-1l-5.2-0.4l-4.9-1l-6.5-1.5l-5.9-0.3l-3.3-2.6l-2.3,2l-5.2-0.4l-1.3-3.2
					l-4.1-0.6l-4.6-2l-4.3-0.1l-4.3-0.1l-4.6,0.1l-3.8-0.1l-4.3,0l-2.5-1.6l-1.6,0.4l-3.5-1l-3.6-1.2l-3.1-3.6l-3.3-1l-4.1-0.5
					l-3.6,0.7l-1.5-1.9h-2.4l-1.3-0.3l-0.9,1.1l-2.1-0.1l-2.5,0.1l-2.9,0.5l-3.3,1.5l-1.8,1l-3.2-0.1l-1.8-1.4l-1.1,0.8l-3.7-0.4
					l-1.2-2.8l-3.9,0.3h-5.6l-3.5-0.6l-3.1-0.1l-3.1,0.4l-3.2,0.3l-3,0.5l-1.9-0.7l-3.2,0.4h-2.1l-2.6-0.6l-2-1.4l-2.7-1.2l-1.2-2
					l-5.3,0.5l-2.5-0.2l-1.5,0.2l-1.2,0.2l-0.9-1l-0.4-0.3l-0.3-0.2l-0.2,0.2l-0.2,0.3l-0.1,1.1v0.6l-0.7,3l-3.2,2.9l-0.7,0.9
					l-1.6,4.7l0.7,7.5l0.4,2l1.2,7.9L1600.1,103.8z M993.6,29.3l2.7,4.6l2,3l3,2.6l2.5,2.4l2.1,3.4l2.7,1.7l3.5,3.3l2.4,0.6l2.6,0.5
					l2.9,1.8l3.2,2.3l2.9,2.4l2.4,2.7l3.2,0.5l4,1.2l2.6-0.2h0.1l2.9,1.1l3.8,0.4h2.2l0.2-0.7l4.3,0.2l2.3-0.5l1.8,0.7l4.6,0.1
					l4.4,0.3l1.5,0.8l4-0.2l-1.1-1.7l3.3-1.3l4.7,1.1l-0.1-1.3l1.4-1.7l1.5-1.4l1.7-1.2l3,1.9l0.5-3.6l1.6,0.5l3.6,0.6l0.6-0.4h3.3
					l-0.8-1.9l4.1,2.3l1.7-1.2l-0.3-1.7l3.2,0.1l4.4,1.9l3,0.8l0.2-1.1l1.7-1l-0.2-2.1l1.7-0.1l-0.4-4.1l0.9-0.6l0.2-1l0.8-2.7
					l-0.1-2l1.8-0.4v-2l1.1-1h0.4l0.8,1.2l2.3,2.3l0.1,0.8l1.8,0.9l2.3,7.9l1.2,0.9l-0.5,0.2l1.3,2.1l-1,1.1l1.2,2l1.5,1.9l2.7,3.3
					l2.7,3.7l1.6,2.7l2.2,2.9l-0.8,1.3l3.1,4l2.3,4.2l4.7,3l3.6,3.7l6.3,2.8l1.5,3l2.9,4.4l4.5,3.7l3,3.8l3.7,3.9l2.2,4.2l3.3,3.6
					l0.4,2.9l-0.2,4.3l1.3,5.7l0.8,6.5l2.2,6.5l0.2,3.3l-0.7,3.6l-0.6,3.6l3.2,6.2l-0.4,4l2.7,5.4l-1.3,3.3l1,4.7l-0.7,4.3l-1.6,3.8
					l2.3,5.5l-1.9,4.2l1.7,6.8l-0.3,5.6l-2.6,2.7l0.9,6.2l1.7,5.7l3.5,2.7l-1,3.4l3,5.6l2.8,5.6l2.7,4.5l1.8,5.8l1.2,5.3l-1.5,4.2
					l2.1,9.6l2.8,7.1l-1.2,2l-1.8,2.1l4.5,6.8l3.8,8.1l0.5,6l-1.6,2.5l2.5,7.7l4.8,12l3,10.2l3,7.1l0.1,5.7l0.6,5.2l-1,6.3l-2.3,5.1
					l-1.1,4.5l-2.7,2.6l-4.8,2.8l1.5,3.1l-6.4,3.7l-6.9,5.3l-9.4,6.8l-4.2,6.4l-4.7,3l-2.8,8l-3.3,8.3l-2.3,13.2l11.7,9.2l9.1,1.4
					l4.3,2l8.2,5.5l7,0.6l4.4,0.7l4.7,5.6l6,5l6.7,0.9l6.2,8.1l2.6,5.4l4.2,3.5l1,6.5l0.5,5l0.7,5.5l-0.7,5.8l-1.6,5.1l-1.5,5.5
					l-0.2,5.1l-0.5,7.4l2.8,8.4l2.2,5.5l0.5,3.6l-0.5,2.5l-1.8,2.6l0.7,5.2l-0.3,4.4l-0.6,5.5l1.6,5.6l1,5v4.8l0.3,4.9l-0.4,4.7
					l-3.5,3.9l0.2,5.8l3.5,4.6l0.1,4.6l-2,3.1l1.1,5.8l0.8,4.3l-1.4,2.6l1,3.6l-1.6,3.4l-1.9,5.3l-0.8,7l-2.4,4.5l-0.8,5.8l-3.5,3.3
					l-3.3,6.1l-3.9,2.6l-3,1.7l-3.2,0.7l-2.5,4.4l-4.1,2.3l-4,4.3l-2.9,2.6l-3.1,1.4l-3.8,5.8l-3.9,1.2l-2.8,4.5l-2.5,1l-1.4,3.1
					l-2.6,0.5l-3.5-0.6l-3.6,3.4l-3.3,1.2l-3.1,4.1l-4.7,0.9l-0.4-2.2l-4.4,2.6l-4.5,2.4l-4.3,1.8l-3.9,1.8l-4.8,2.1l-4.3,1.3
					l-0.5-2l-4.3,1.7l-1.2-2l-5.7,3l-6.5,3.1l-4.4,2l-0.7,0.7l-0.7,0.8l-1.3,4.9l0.3,2.1l1.6,5.9l2.5,2.7l-0.1,0.4l-1.7,0.2l-0.7,2
					l-1.4,2.9h-2.2l-1.5,2.5l-1.8,2l-0.6,1.6l-2.4,1.5l-3.2,2.6l-1.1,1.7l-2.7,0.8l-1.7,2.3l-3.2,1.2l-3.2-0.7l-2.8,1.8l-3,1.8
					l-1.2,2.4l-3.3,1.1l-2.8-0.1l-1.6,1.7l-2.2,0.6l-2.3,0.6l-3.4,0.4l-3.4,0.7l-1.9,1.7l-3.2,0.4l-1,1l-2.7,0.6l-2,2.3l-1.2,2.3
					l-1,2.4l-0.6,2.6l-1.8,0.5l-2.1,2.6l-2.4,2.2l-3,2.1l-3.1,1.6l-0.8-0.2l-2.7,1.6h-0.1l-3,0.6l-2-0.8l-1.9,2.6l-6.1,1.2l0.3,1.6
					l-3.2-0.8l-2.3-0.2l-2-0.5l-2.4-0.6l-1.2-1.3l-6.7-2.2l-3-0.3l-2.1,1.2l-3.5,2.6l-0.9,1l-2.5,1.7l-2.6,1.7l-3.1,2.2l-2.9,2.1
					l-3.2,2.3l-1.4,3.3l-2,1.9l-3,3.9l-1.7,3.1L980,822l-4.1,5.6l0.1,2.3l0.6,2.7l1.1,1.8l1.3,1l-0.1,0.9l-3.6,1.7l-6.9,4.2
					l-2.9,1.2l-3.4,1.5l-2.7-0.7l-4,1.1l-5.2-0.7l-6.8,1.5l-4.1-0.8l-4-1.1l-3.9-0.5l-2.8-0.4l-2.1-0.9l-1.8-1.2l-4.7,1.9l-2.4-1.5
					l-1-2.8l-2.4-0.7l0.5-1.8l-2.7-2.9l-2.1-3l-2.5-2.7l0.9-4.3l-2.4-2.5l-2.7-2.3l-2.8-2.1l-4.7-1l-8.1,5l-2.3,5.6l-2.3,4.7l-1,2.3
					l-4.7,3.1l-4.3,6.2l-4.4,6.3l-2.7,3.2l-3.9,4.4l-2.3,4.6l1,5.6l-0.5,4.8l1.2,4.2l-0.3,3.6l-2.8,1.5l-6.2,5.8l-3.3,2.4l-2.6,5
					l-3.7,3l-2.6,6.5l-5.4,3.1l-4.8-0.5l-3.9,1.4l-5.5-0.6l-5.6,0.4l-5.9-1.1l-4.5-1.2l-1.2-0.1l-0.4-0.5l-2-2.5l-2.9-1.8l-2.7-1.1
					l-1.4-2.2l-1.9-1.3l-6.2-3.4l-2.8-0.9l-12.8-2h-0.1l-3,0.6l-5.7,3.1l-2.1,1.7l-1.4,2l-2.6,1.4l-1.6,2.6l-0.4,0.3l-2.9,0.2
					l-1.7-0.9l-0.8-1.6l0.4-2.6l0.5-1.2l-0.2-1.9l-0.3-1.5l-0.2-1.5l-0.1-1.1l-0.2-1.7v-1.4l-0.5-1.6l-0.9-1.5l-0.8-1.3l-0.5-0.7
					l-0.3-0.5l-0.4-0.6l1.3-1.3l-0.7-0.6l-0.5-0.8l-0.1-1.1l0.4-2.4l-0.7-1.1l-0.3-2.8l-0.7-1.6l-0.8-0.9l-0.6-0.7l-1.1-2.1
					l-1.8-5.3l-0.6-1.2l-3.2-12.9l-2.2-5.2l-0.3-4l-2.1-3l-3.1-1.9l-2.5-2.5l-1.1-5.7l-4.1-2.2l2.1-6.8l-5.1-3.7l-6.3-4.2l1.4-3.3
					l2.6-3.4l-5-4.5l-4-3.9l2.4-3.5L703,781l-3.4-5.4l2.6-1.9l-3.8-5.1l-2.4-3.4l2.5-2.3l3.8-0.7l-3.1-4.8l-3.6-4.8l-2.8-3.9
					l4.6-1.8l-2.3-3.6l-2.2-3.5l-1.8-3.4l-2.3-3.8l-2.6-4.1l3.8-2.1l-2.8-4.3l-3.2-4.3l-3.6-4.6l-23.9-12.5l-2.6,1.6l-2.5,2
					l-3.2,1.7l-5.8-1.4l-2.5,2.4l-2.8,2.8l-2.5,2.6l-3.3,2.2l-2.9,1.9l-3.6-2l-2.2,2.5l-2.2,2.7l-1.7,2.3l-2.8-1.7l-3.4-2.6
					l-1.2,2.7l-1.7,2.8L607,721l-0.8,4.4l-2.5,4.2l-1.7-3.2l-1.8,4.8l-1.3,2.3l-1.7-2l-1.9-3.5l-0.6,3.5l-0.7,3.6l-2.5-4.3l-0.2,2.7
					l-4.1-3.6l-0.4,1.2l-0.6,1l-0.7,0.9l-9.3-3.2l-2.8,0.2l-6.7-3.1l-1.7,0.2h-1.9l-5.6-1.6l-0.9,1l-2.1-0.3l-5.7-0.1l-1.6,0.5
					l-4.9,0.8l-2,0.2l-2.2,0.6l-2.1,0.6l-2.2,0.7l-1.9,0.3l-1.9,1l-3.7,0.9l-1.8,1.9l-1.7,1.8l-2.1,1.8l-1.9,3.3l-0.4-0.7l-0.6,1.8
					l-1.4-0.3l-0.2,2l-0.2,1.9l-0.5,1.5l-0.6,1.1l0.2,2.3l0.5,2.1l0.2,1.5l0.5,1.8v1.2l1.5,2.9l-0.9-0.1l-1.2,0.2l-0.7,0.4l-3.2-0.1
					l-0.4,1.1l-1.6,0.2l-0.1,1.1l-1-0.2l-1.6,0.6l-1.1,0.9l-0.8,0.1l-0.9,1.4l-1,0.3l-1.1-1.6l-4.2-3.2l-11.4-1l-4.5,1.3l-7.9,1.9
					l-1.7,1.4l-3,1.7l-5.9,1.6l-4.4,1.9h-5.4l-2,1.2l-6.9,2.2l-4.4,1.9l-3.6-0.3l-2.3,1.3l-2.1,0.6l-4.1,0.9l-3.2,1.2l-3-0.3
					l-6.1-0.2l-4.8-2.4l-12.1-5.3l-2.2-1l-8.8-1.4l-5.3-1.1l-2.7,0.6l-7.4-1.1l-4.1-1.2l-3.2-1.6l-0.6-2.6l-3.6-1.2l-3.4-1.7
					l-4.1-2.9l-7.3-3.1l-2.3-3.4l-5.8-3l-5.1-3.1l-0.7-1.8l-4.1-1.6l-2.4-1.6l-0.8-1.9l0.4-2.5L322,731l-0.1-2.4l0.5-2.9l-3.2-1.1
					l-0.2-2.7l-0.9-5.1l-0.2-2.9l4.2-1.3l0.3-2.6l0.4-2.5L320,707l2.6-2.1l0.6-2.4l4.2-6.1l0.7-3.3l3-2.8l1.1-4l2.4-5.8l3.2-5.8
					l3-3.9l-2.3-2.3l2-4.3l3.4-5.2l2.4-4.5l1.7-3.9l0.8-3.8l3-2.9l1.9-3.3l3.5-0.6l2.1-3.3l1.9-3l4-1.9l2.7-3.1l2.5-2.4l3.3-3.4
					l1.7-4.9l0.9-5.3l-0.6-5.6l0.4-6.7l-1.9-4.6l0.2-6l-3.1-5.4l-2.9-3.9l0.6-4.3l1.8-4.4l-3.6-3.8l3.2-3.9l-3.4-2.4l4.9-2.3
					l1.7-4.5l-3.5-2.3l4.6-1.9l0.8-4.6l-2.6-3.4l1-6.6l1.1-5.3l-0.8-9.2l-7.4-10.5l-4.8,0.1l-5.4,0.7l-5.9,0.7l-1.8,2.3l-4-1.7
					l-5.1,1.5l-0.9,3.8l-3.3-1.6l-3.7,2l-0.1,4.9l-5.1,0.2l-3.5,1.3l-5.1-0.1l-7.5,2.7l-5.1,4.8l-4,5.6l-1.6,0.9l-0.1,3.8l-3.1-1
					l-4.3-1.6l-3.7-1.6l-2.6-3l-4.7-1.1l-3.7-1.7l-2.5-5.2l-4.6-3.6l-5.5-4.3l-3.3-3.4l-4.2-0.2l-3-3.9l-5.8-1.8l-5.3-2.8l-4.9-3.4
					l-5.5-3.6l-5.8-4.1l-5.8-4.7l-4.4,1.4l-5.1-3.5l-4.5-2.5l-4.6-2.6l-3.5-7.9l-4.7-4.1l-4.6-1.8l-4.5-1.4l-3-7.4l-3.7-4.1
					l-3.4-0.7l-3.2-3.1l-0.5-3.6l-2.8-3.9l-3-4.6l-4.3-4.8l-4-4.6l-6-2.5l-3.8-3.5l-2.8-3.2l-5.2-0.8l-3.2-2.7l-2.5-2.9l-5-0.2
					l-3.8-0.7l-5.3-4l-10.1-4.5l-4.5-1.2l-2.8-2.9l-5.2-1.4l-7.7-2.9l-6.5-1.4l-6.5-1.6l-2.2-3.9l-5.9-1.5l-5-2.3l-4.1-2.9l-3.8-3.2
					l-3.3-0.5l-2.8-5.1l-0.6-3.9l-2.7-3.6l-7.7-5.8l-5.6-4.7l-3.6-5.3l-2.4-5.2l-4.4-1.7l-1.8-4.7L17,339l-3.3-5.7l-0.3-2.6l0.2-3.4
					l-0.2-6l-2.1-4.7l-1.6-4l-3.4-4.2L4.4,303l-2.2-3.4l-1.4-1.8L0,293.3l0.1-3.3l0.7-2.4l0.9-2.4l0.8-1.8l1.3-0.9l2.9,3.2l1.4-0.8
					l1.4-0.5l1.6-0.5h1.7l1.9,0.1l2.3,2l3.4,0.2h0.7l1.1,0.2l6.4,8.1l2.9,0.3l3.7-1.7l0.4-2.9l2.3-0.6l2.6-0.9l2.4-1l1.9-1.4L47,285
					l1.8-1.3l1.8-0.9l1.8-0.7l1.7-0.9l1.7-0.9l1.9-0.7l2.1,1.5l0.9-1l3.3-0.3l0.8-3.6l2.1-0.8l2.3-0.5l0.8-2.7l3.4-0.3h1.2h2.6
					l1.7-1.5h2.3l6.1,2.4l6.8,1.4l4.6-0.9l4.3-1.3l3.3-0.9l4.3-1.9l3-0.4l5.3-3l3.3-0.4l3-1.6l1.6-0.5l3.7-0.7l4-1.8l3.9-1.7
					l3.7-1.5l3.7-1.1l4.1-0.8l4.1-0.2l2.1,1.4l2.1,2.9l1.5,3.5l1.2,3.1l2,2.4l4.2-2.7l4.1-7.2l2.5-5.3l6.5-8.3l3.7-6.4l4.2-3.4
					l9.8-9.5l4.5-2.8l4.5-5l2.4-2.4l5.4-3l4.3-4.4l3.3-3.2l2-2.1l4.7-2.3l7.1-5.3l4.7-4.9l3.4-3.5l9.7-6l5.3-4.2l5.7-5.1l7.9-5.4
					l7.1-6.4l6-5.6l7.7-7.8h1.5l7.5-5.8l6.8-6l4.4-6.2l5.8-4.8l4.6-3.7l3.4-5.5l3.4-2.5l7.6-6l6.9-7l6.3-3.1l4-3.5l2.9-1.4l4.5-2.2
					l4.2-3.3l3.6-2.7l3.1-2.9l1.4-1.6l6.6-5.6l4.3-1.6l5.3-4.5l0.2-0.9l7.1-5l3.1-1.6l2.4-2.2l3.6-1.9l2.2-2l1.7-0.6l2.3-3.6v-0.3
					l2.3-2.8l1.3-4.7l-0.5-2.5l1.3-3.4l0.8-2.9l1.1-0.4l3.1,1.6l2.7,1.3l1.8-0.7l2.5-0.4l3.2-1.6l2.4-3l4.2-1.5l2.6-2.1l2.9-0.2
					l3.6-0.2l4.3-1.5l8.5-1.5l3.8-1.2l5.6-1.1l5.7-0.7h3.9l4.5,0.2l4-0.7l5-1l2.7-0.5l4.3-0.9l6.7-1.7l4.7-2.1l2.8-1l5.8-0.7
					l7.5-1.5l4.3,2.4l4.8,1l4.5,0.6l3.4-0.5l2.9,0.5l4.9,0.8l5.1-0.4l5.7,0.2l4.9-0.3l3.6,0.4l4.8-0.8l4.1,0.1l3.5,0.7l4.7,0.7
					l5.3,1l4.1-0.8l0.7,2.4l5,1.4l5,1.3l3.8-0.5l4.2,1.3l7.4,2.7l4.4,1.1l5.4,1.9l6.4,2.3l6.9,3l4.2,0.1l6.3,2.8l2.7,3.5l7.2,2.9
					h5.9l8,3.2l8.3,4.1l8.9,4.2l6.3-0.8l7.1,3.8l65,12.3l10,0.2l0.9-3.4l8.9-0.5l7.1-0.4h5.5l1.9-2.8l3.2,2.3l5.1-0.6l4.7-1l1.8-4.2
					l3.4-1.1l10-1.8l3.3-1l4.1-0.8l3.8-1.4l3.4-0.8l1.7-2.9l2.7-1.7l2.8,2.1l4.3-1.9l1.5-3.4l4.5-1.3l4.9-1.5l4.8-1.6l4.6-1.1
					l3.2-3.5l4-1.5l2.8-4l3.5-0.5l1.7-4.7l3.9-0.8l3.8-0.8l2.2-4.2l2.8-3.7l1.4-3.5l3.5,1l1.2-2l2.3,0.3l2.8-0.1l1.9-1.3l2.6,0.4
					l3.9,0.2h2.5l2-0.7l2.5-1l4.2-4.4l0.8-1.2l2.5-0.1l3.4,1.3l2.2-1l3.1,0.6l3.5,0.6l3.4,0.4l3.3,0.8l2.3-1.5l2.9,0.6l1.9-0.6
					l2.1-0.1l2.2-0.5l1.8-0.6l2.3-0.8l2.2-0.2l0.1,0.8l-0.5,2.8l-0.7,3.2l-0.3,3.5l-0.3,0.5l0.5,1.7v0.3v2.8l2.1,2.1l0.2,1l1.7,3.8
					l1.9,3.2L993.6,29.3z"/>
			</defs>
			<clipPath id="SVGID_8_">
				<use xlink:href="#SVGID_7_"  style="overflow:visible;"/>
			</clipPath>
			<g id="display_shapes" inkscape:groupmode="layer" inkscape:label="shapes" class="st3">
			</g>
		</g>
	</g>
	<g id="display_labels" inkscape:groupmode="layer" inkscape:label="labels">
	</g>
</g>
<path class="st4" d="M1131.5,159c-11.2,16.2-6.2,38.2-0.9,57.1c7.4,26.2,15,52.8,29.1,76.1c6.1,10.1,13.6,21.7,9.3,32.6
	c-1.4,3.4-3.8,6.3-5.6,9.5c-5.3,9.5-4.6,21-5.8,31.7c-1.2,10.8-5.9,22.8-16.3,26c-2.8,0.9-6.4,1.5-7.3,4.3c-0.6,1.9,0.5,3.9,1.4,5.7
	c3.7,7.5,4.6,16.5,2.4,24.6c-0.7,2.5-1.7,5.2-0.8,7.7c0.9,2.5,3.3,3.9,5.6,5.2c14.1,7.9,28.2,15.8,42.4,23.7c4,2.3,8.2,4.6,11,8.2
	c5.9,7.5,4.6,18.1,4.3,27.7c-0.5,18.6,4.1,36.9,5.8,55.4c4.6,50.4-13.6,102.4-48.7,138.9c14.1-10.2,36.5-5.6,45.4,9.2
	c19.8-13.9,45.9-29.6,46-53.8c0.1-12.9,2.5-45,3-53.4c5.2-92.7,27.8-154.5,15.5-245.2c-6.7-49.5-26.4-96.1-39.8-144.2
	c-8.1-29.2-14.1-59.3-27.3-86.6c-5-10.2-11.1-20.1-19.6-27.7c-2.1-1.8-4.7-3.6-7.4-2.9c-2.1,0.6-3.5,2.5-4.7,4.4
	c-6.9,11.2-11.7,24.9-22.1,33.4c-5.5,4.5-8,4.9-6.9,12.4C1140.8,148,1136.2,152.1,1131.5,159z"/>
<path class="st4" d="M1482.9,250.6c2.2,8.5,4,17.3,3.5,26.1c-0.6,10.4-4.4,20.2-7.7,30c-14.9,43.9-21.4,90.6-18.8,136.9
	c0.4,6.7,1.1,13.8,5.1,19.2c2.6,3.5,6.4,5.9,9.2,9.3c6.5,8,5.3,21.2-2.6,27.9c2.7,1.9,6.1,6.6,7.4,9.7c-4.3-0.9-10.9-2-12.1-6.2
	c-6,12.1-19.6,7.2-30.1,3.7c-15.5-5.3-18.7-1.7-28.6,2.2c-6.1,2.4-11,7.2-15.7,11.8c-9.6,9.5-19.2,19-28.8,28.4
	c-10.7,10.6-18.7,22.3-23.8,36.4c-4.5,12.3-1.7,23.7-0.2,36.6c2.2,17.8,1.3,37.5,12,51.8c7.3,9.8,18.2,17.3,16.5,29.4
	c-18.8-6.8-37.4-18.8-58-24.2c-6-1.6-13-2.7-18,1c-3.7,2.7-5.6,7.5-9.7,9.5c-7.4,3.6-30.7-18.3-31.1-26.4
	c-1.6-34.4-2.4-52.1,1.7-86.1c8.7-71.8,46-136.7,71.1-204.5c21.6-58.4,36.8-119.1,60.9-176.5c4.7-11.2,9.9-22.5,18.9-30.7
	c8.9-8.2,22.4-12.5,33.4-7.4c14.4,6.7,19.2,24.4,25.6,37.6C1471.4,213.8,1478.1,232,1482.9,250.6z"/>
<path class="st4" d="M1157.4,693.6c35-36.5,53.3-88.5,48.7-138.9c-1.7-18.5-6.3-36.8-5.8-55.4c0.2-9.5,1.5-20.1-4.3-27.7
	c-2.8-3.6-7-6-11-8.2c-14.1-7.9-28.2-15.8-42.4-23.7c-2.3-1.3-4.7-2.7-5.6-5.2s0.1-5.2,0.8-7.7c2.2-8.1,1.4-17-2.4-24.6
	c-0.9-1.8-2-3.8-1.4-5.7c0.9-2.8,4.5-3.4,7.3-4.3c10.4-3.2,15-15.2,16.3-26c1.2-10.8,0.5-22.3,5.8-31.7c1.8-3.2,4.3-6.1,5.6-9.5
	c4.4-10.9-3.2-22.6-9.3-32.6c-14.1-23.3-21.7-49.9-29.1-76.1c-5.4-19-10.3-40.9,0.9-57.1c4.8-6.9,9.4-11,8.1-19.9
	c-0.4-3-0.3-4.8,0.4-6.3c-4.3-0.5-8.8-0.3-13,0c2.4,9.5-8.8,15.9-17,21.3c-6,4-11.3,9.1-15.4,15.1c-4.9,7.1-5,11.9-5,20.4
	c0.1,17.5,1,35.1,6.1,51.9c3.6,11.9,9.3,23.2,13.1,35c6.5,20,7.8,41.3,9,62.3c1.3,22.7,2.6,45.4,3.9,68.1c0.4,6.1,0.7,12.3-0.8,18.2
	c-1.2,4.6-3.5,9.3-2.4,14c0.8,3.6,3.5,6.4,6.1,9c10.4,10.6,20.8,21.1,31.2,31.7c5.8,5.9,11.8,12,15,19.7c3.4,8.2,3.3,17.4,3.2,26.3
	c-0.4,24.5-0.8,49-1.2,73.5c-0.3,21.4-0.9,43.8-11.1,62.6c-4.6,8.4-10.9,15.8-18.4,21.8c-3.3,2.7-7.1,5.3-8.7,9.3s0.2,9.7,4.5,10.1
	c1.7,0.2,3.3-0.4,4.9-1.1c8.2-3.5,15.9-7.8,23.1-13C1163.7,690,1160.3,691.5,1157.4,693.6z"/>
<path class="st4" d="M1518.1,307.5c2.5-11.5,1.6-23.4-1.9-34.6c-3.4-10.9,4.2-26.5-13.1-38.4c-10.7-7.4-26.1-28.1-37.5-34.9
	c-0.5-0.3-1-0.5-1.5-0.7c7.9,16.6,14.3,34,18.9,51.8c2.2,8.5,4,17.3,3.5,26.1c-0.6,10.4-4.4,20.2-7.7,30
	c-14.9,43.9-21.4,90.6-18.8,136.9c0.4,6.7,1.1,13.8,5.1,19.2c2.6,3.5,6.4,5.9,9.2,9.3c6.5,8,5.3,21.2-2.6,27.9
	c2.7,1.9,6.1,6.6,7.4,9.7c-4.3-0.9-10.9-2-12.1-6.2c-6,12.1-19.6,7.2-30.1,3.7c-15.5-5.3-18.7-1.7-28.6,2.2
	c-6.1,2.4-11,7.2-15.7,11.8c-9.6,9.5-19.2,19-28.8,28.4c-10.7,10.6-18.7,22.3-23.8,36.4c-4.5,12.3-1.7,23.7-0.2,36.6
	c2.2,17.8,1.3,37.5,12,51.8c7.3,9.8,18.1,17.3,16.5,29.4c1.3,1.2,2.5,2.3,3.8,3.5c1.1,0.9,1.2,2.5,0.5,3.7c-0.9,1.5-16.3,8-6.1,7.5
	c8-0.4,14.5,8.2,20.2,13.3c-0.3-5.5,3.3-4.6,5.8-9.5c-4.2-17.5-10.7-37.7-22.1-50.7c-4.7-5.3-8.9-19-10-26s3.4-11.6,8.8-16.2
	c2-1.7,4.4-2.9,5.7-5.1c1.3-2.2,1.3-5,1.4-7.5c0.9-20.9,13.3-39.3,25.4-56.4c7.8-11.2,15.9-22.5,26.6-30.9s24.9-13.6,38.2-10.6
	c4.8,1.1,9.3,3.1,14.1,3.7c4.8,0.6,10.4-0.7,12.9-4.9c1.5-2.4,1.7-5.4,1.8-8.2c0.5-16.6-2.6-33.3-9-48.6c3.5,0.5,4.2-2.5,6-5.2
	c1.1-1.5,1.6-7.2,1.9-9.1c1-6.3,0.1-9.1,0.7-15.2c0.8-8.4,7.2-15.1,5.6-23.9c-1.3-7-0.3-14.2,3.4-20.3c3.7-6.1,6.7-9.3,7-17.5
	c0.1-1.7-5.1-1.5-5.6-3.2c-1.7-5.8-2.8-18.3,0.6-24.2s8.8-7.9,11.6-14.2C1525,311.2,1514.5,323.8,1518.1,307.5z"/>
<path class="st5" d="M1549.8,305.7c1.5,0.5,3.1,1.1,4,2.4c0.8,1.2,0.9,2.7,1,4.1c0.3,5.2,0.6,10.5,1,15.7c0.3,5.1,0.5,10.4-1.9,14.8
	c-2.5,4.4-8.8,7-12.8,3.9c-4.7,12.4-7.7,25.5-8.7,38.7c-0.6,7.9-0.6,15.9-3.5,23.3s-8.8,13.9-8.8,21.8c0,4.3,1.8,8.4,2.6,12.6
	c2.2,11.3-2.6,22.8-2.4,34.2c0.1,5.9,1.5,11.8,0.4,17.6c-1.1,5.5-4.3,10.3-7.5,14.9c-3.7,5.4-7.5,10.8-11.2,16.3
	c-4.1,6-9.5,12.6-16.7,12.4c-6.3-0.1-12.3-5.5-18.1-3.3c-2.8,1-4.7,3.6-7,5.5c-4.4,3.6-10.1,5-15.4,7.1
	c-26.7,10.3-43.5,41.5-37.4,69.4c1.2,5.3,2.9,11.4-0.3,15.8c-4.7,6.6-14.9,3.4-22.1-0.4c-10.3-5.5-21.8-12.6-23.3-24.2
	c-1.1-8.5,3.7-16.4,8.4-23.6c7.9-12.2,15.8-24.4,24.7-35.9c10.1-12.9,22-25.1,37.4-30.9c13.5-5,28.3-4.6,42.6-3.3
	c2.1,0.2,4.2,0.4,6.2-0.2c4.6-1.3,7.4-6.3,7.7-11.1s-1.2-9.5-2.5-14.1c-4.9-18.2-5.5-37.3-6.1-56.2c-0.7-22.9-1.4-46.2,5.1-68.2
	c4.2-14.1,11.2-27.4,14.6-41.7c1.7-7.2,2.8-27.4,11.4-30.3c4.5-1.5,13.5,3.8,17.8,5.3C1535.9,300.7,1542.8,303.2,1549.8,305.7z"/>
<path class="st4" d="M1152.1,526.2c1.7,6.1,1.5,12.6,1.1,19c-1.3,20.5-4.8,40.8-10.5,60.4c-0.7,2.4-1.4,4.9-0.8,7.2
	c0.4,1.7,1.6,3.2,2.7,4.6c6.7,8,15.9,13.9,26,16.8c1.8-11.4,2.1-23.3,2.3-34.8c0.4-24.5,0.8-49,1.2-73.5c0.1-8.9,0.2-18.1-3.2-26.3
	c-3.2-7.7-9.2-13.8-15-19.7c-10.4-10.6-20.8-21.1-31.2-31.7c-2.6-2.6-5.3-5.4-6.1-9c-1.1-4.7,1.2-9.4,2.4-14
	c1.5-5.9,1.1-12.1,0.8-18.2c-1.3-22.7-2.6-45.4-3.9-68.1c-1.2-21-2.5-42.3-9-62.3c-3.8-11.9-9.5-23.1-13.1-35
	c-3-10-4.6-20.3-5.4-30.7c-1.3,0.5-2.5,0.9-3.8,1.1c-5.1,0.9-10.3-1-15.5-2c-5.1-1-11.3-0.5-14.4,3.7c-3,4.1-1.5,9.3-0.3,13.8
	c1.4,5.3,2,9.1,1.8,14.4c-0.2,3.4-0.9,2.7,1.9,5.4c2.5,2.3,5.7,4.1,8.4,6.2c5.3,4.2,10.3,8.8,14.4,14.1c7.2,9.5,11.3,22.1,7.8,33.5
	c-1.8,5.9-5.5,11.2-7.2,17.1c-1.9,6.7-1.3,13.8-0.6,20.7c2.1,21.4,4.3,43,10.5,63.5c1.6,5.3,3.5,10.7,3.9,16.3
	c0.4,6.1-1.1,12.4,0.4,18.4c3.1,13,17.9,19.1,26.5,29.4c8.8,10.4,10.8,24.7,16.8,37C1144.6,511.2,1149.8,518.1,1152.1,526.2z"/>
<path class="st4" d="M1552.8,305.3c-1.3-1.6-3.6-2.2-5.6-2.7c-8.5-2.1-17-4.1-25.5-6.2c-0.8-0.2-1.6-0.4-2.3-0.6
	c-0.1,3.9-0.5,7.8-1.4,11.6c-3.6,16.3,7,3.7-0.6,20.8c-2.8,6.2-8.1,8.3-11.6,14.2s-2.3,18.3-0.6,24.2c0.5,1.7,5.7,1.5,5.6,3.2
	c-0.4,8.2-3.3,11.5-7,17.5c-3.7,6.1-4.8,13.3-3.4,20.3c1.6,8.7-4.8,15.5-5.6,23.9c-0.6,6.1,0.2,8.9-0.7,15.2
	c-0.3,1.8-0.9,7.5-1.9,9.1c-1.9,2.7-2.6,5.7-6,5.2c6.4,15.3,9.5,32,9,48.6c-0.1,2.8-0.3,5.8-1.8,8.2c-2.5,4.2-8.1,5.5-12.9,4.9
	s-9.4-2.6-14.1-3.7c-13.3-3-27.4,2.2-38.2,10.6s-18.8,19.8-26.6,30.9c-12,17.1-24.5,35.5-25.4,56.4c-0.1,2.2-0.1,4.6-0.9,6.6
	c8.1,3.8,16.1,7.5,24.2,11.3c1,0.5,2.1,1,3.2,0.8c3.6-0.5,5.9-7.1,8.9-4.9c-7.2-13.3-8.6-29.6-4-44s15.3-26.8,28.8-33.5
	c4.3-2.1,8.8-3.7,13-5.8c8.3-4.3,16.5-11,25.7-9.8c3.7,0.5,7.4,2.3,11,1.2c2.1-0.6,3.8-2.2,5.5-3.7c4.5-4.2,9-8.3,13.5-12.5
	c4.2-3.8,8.4-7.8,10.9-12.8s3.1-10.7,3.6-16.2c1.7-16.7,3.4-33.5,1.8-50.2c-0.4-3.9-0.9-7.8-0.6-11.7c0.4-4.4,1.9-8.6,3.3-12.7
	c4.6-14.1,7.3-28.7,8.2-43.5c0.3-5.6,0.4-11.3,2.3-16.6s6.1-10.1,11.6-11.1c1.5-0.3,3.1-0.3,4.3-1c2.4-1.4,2.8-4.7,2.8-7.5
	c0.3-9.1,0.5-18.2,0.8-27.3C1554.3,309.7,1554.3,307.1,1552.8,305.3z"/>
<path class="st4" d="M1837.5,632.4c-0.2-0.7-1,0.9-0.8,1.8c0.1,0.7,0.2,1.5,0.5,2.1c3.4,6.6,1.3,15.5-4.7,19.8
	c-0.9,0.6-1.8,1.2-2.4,2.1c-0.7,1.3-0.5,2.9-0.5,4.3c0,1.5-0.7,3.2-2.2,3.4c-0.8,0.1-1.5-0.3-2.3-0.4c-2.5-0.5-5,2.2-4.3,4.7
	c-1.9-0.3-3.7,0.8-4.8,2.3s-1.6,3.4-2,5.2c-0.5,2-0.9,4.1-0.6,6.2c0.3,2.6,1.8,5,3.2,7.2c0.3,0.5,0.6,1,1.1,1.3
	c0.8,0.5,1.9,0.3,2.8,0.6c1.6,0.4,2.6,2.1,3.9,3.1s4,0.9,4.1-0.8c0.1-1.6-2.1-3.3-0.9-4.3c1.7,0.8,3.4,1.7,5.2,1.7
	c1.9,0,3.9-1,4.3-2.8c0.2-1,0-2.1,0.3-3c0.3-1,1.6-1.7,2.3-1c-0.8-3.1-1-6.3-0.4-9.5c0.1-0.8,0.4-1.6,1-2.1c0.4-0.3,1-0.4,1.4-0.8
	c0.7-0.7,0.4-1.8,0.3-2.8s0.3-2.3,1.2-2.2c0.4,0,0.7,0.3,1.1,0.4c0.9,0.3,1.8-0.3,2.3-1.1s0.6-1.7,0.7-2.6c0.5-5.7,1.1-11.3,1.6-17
	c0.1-1.3,0.2-2.7-0.3-3.9c-0.4-0.9-1.1-1.6-1.8-2.3c-3.1-3-6-6.1-9.1-9.2L1837.5,632.4z"/>
<path class="st4" d="M709.9,617.7c0.4-0.8,0.8-1.8,1.7-1.8c0.4,0,0.8,0.2,1.2,0.4c1,0.6,2,1.1,2.9,1.7c0.4,0.2,0.8,0.5,1,0.9
	s0.2,0.9,0.2,1.4c-0.2,3-1.3,6.4,0.4,8.9c1.1,1.7,3.2,2.7,3.9,4.6c0.4,1.1,0.2,2.4,0.9,3.3c1.4,2,5,0.5,6.7,2.3
	c0.9,1,0.8,2.5,0.8,3.8s0.5,3,1.9,3.2c1.3,0.2,2.8-0.9,3.8,0c0.4,0.3,0.4,0.9,0.5,1.3c0.8,5.3,1.4,10.6,1.8,15.9
	c0.2,3.1,0.4,6.2,0.5,9.2c0.3,6.3,0.6,12.6,0.9,19c0,0.9,0.1,1.8-0.4,2.5c-0.7,1-2.2,1.4-2.5,2.6c-0.3,0.9,0.3,1.9,0.7,2.8
	c0.4,0.9,0.5,2.2-0.4,2.7c-0.5,0.3-1.1,0.1-1.6,0c-3.4-0.8-7.1-2-8.7-5c-0.4-0.9-0.7-1.9-1.3-2.6c-0.8-0.9-2-1.2-2.8-2
	c-0.8-0.7-1.2-1.7-1.8-2.6c-0.6-0.9-1.6-1.6-2.7-1.3c-3.7-7.3-2.2-16-1.6-24.1c0.2-2.2,0.1-4.9-1.8-6.1c-1.3-0.8-3.1-1.4-4.6-0.8
	c-4.3,1.8-0.8-6.2-7.4-3.6c-0.3,0.1-0.6-0.4-0.8-0.8c-0.2-0.4-0.2-0.9-0.1-1.3c0.3-2.2,1.1-4.4,1.2-6.6c0.1-2.2-0.9-4.8-3.1-5.5
	c1.2-3.3,1.7-6.8,1.5-10.3c0-0.8-0.1-1.6,0.1-2.3c0.3-0.9,1-1.5,1.6-2.2c3.1-3,1.9-1.3,4.9-4.3L709.9,617.7z"/>
<path class="st4" d="M1813.5,684c-0.3-2.1,0.2-4.2,0.6-6.2c0.4-1.8,0.9-3.7,2-5.2s2.9-2.7,4.8-2.3c-0.7-2.4,1.8-5.1,4.3-4.7
	c0.8,0.1,1.5,0.5,2.3,0.4c1.5-0.2,2.1-1.9,2.2-3.4c0-1.5-0.2-3.1,0.5-4.3c0.5-0.9,1.5-1.5,2.4-2.1c6-4.3,8.2-13.3,4.7-19.8
	c-0.3-0.5-0.3-1-0.4-1.5c-1.2-1-2.6-1.7-4-2.6c-1.5-1-3-2.2-4.4-3.4c-2.1-1.8-4.2-3.5-6.2-5.3c-0.7-0.6-1.4-1.2-2.3-1
	c-0.7,0.1-1.2,0.8-1.9,1.2c-1.2,0.8-2.9,0.6-4-0.4c-0.5-0.5-0.8-1.1-1.4-1.3c-0.9-0.4-2,0.5-2.3,1.4s-0.2,2-0.2,3
	c-0.1,1-0.4,2.1-1.3,2.6c-0.5,0.3-1.2,0.3-1.8,0.4c-1.9,0.3-3.5,1.9-4.3,3.6c-0.8,1.8-1,3.8-1,5.7c0,0.8,0,1.7-0.3,2.5
	s-1,1.5-1.8,1.5c-1.1,0.1-2-1-2.7-1.9s-1.9-1.8-2.9-1.2c-0.6,0.4-0.8,1.1-0.9,1.8c-0.8,4.6-0.3,9.3,0.3,13.9c1,8.6,2,17.2,3,25.8
	c0.3,2.2,0.5,4.4,1.2,6.5c0.8,2.6,2.2,5.1,4.1,7.1c0.9,0.9,1.9,1.8,3.2,2.2c1.6,0.5,3.4,0.1,5-0.3c0.3-0.1,0.5-0.1,0.7-0.3
	c0.5-0.3,0.5-1,0.6-1.6c0.2-1.5,0.6-2.9,1.4-4.2c0.5-0.9,1.2-1.9,2.1-2.7C1814.1,686.5,1813.6,685.3,1813.5,684z"/>
<path class="st4" d="M760.4,659.1c-1.6-4.9-3.8-9.6-6.4-14c-0.5-0.8-1-1.6-1.3-2.4c-0.5-1.1-0.7-2.3-0.9-3.5c-1-6-2-12-3-18.1
	c-0.2-1.3-0.4-2.6,0-3.9c0.3-0.9,0.9-1.6,1.2-2.5c0.7-1.8,0.4-3.9,0-5.8c-0.5-2.4-1-4.9-2.7-6.7c-1.1-1.1-2.7-1.8-3.2-3.3
	c-0.3-0.7-0.2-1.5-0.6-2.2c-0.3-0.6-0.9-0.9-1.5-1.2c-2.5-1.1-5.6-0.8-7.9,0.8c-0.4,0.3-0.8,0.6-1.2,0.6c-1.5,0.1-2.1-2.7-3.5-2.3
	c-0.4,0.1-0.7,0.5-0.9,0.8c-5,6.5-9.9,12.9-14.9,19.4c-0.3,0.4-0.6,0.8-0.9,1.3c0,0,0.1,0,0.1,0.1c1,0.6,2,1.1,2.9,1.7
	c0.4,0.2,0.8,0.5,1,0.9s0.2,0.9,0.2,1.4c-0.2,3-1.3,6.4,0.4,8.9c1.1,1.7,3.2,2.7,3.9,4.6c0.4,1.1,0.2,2.4,0.9,3.3
	c1.4,2,5,0.5,6.7,2.3c0.9,1,0.8,2.5,0.8,3.8s0.5,3,1.9,3.2c1.3,0.2,2.8-0.9,3.8,0c0.4,0.3,0.4,0.9,0.5,1.3
	c0.8,5.3,1.4,10.6,1.8,15.9c0.2,3.1,0.4,6.2,0.5,9.2c0.3,6.3,0.6,12.6,0.9,19c0,0.9,0.1,1.8-0.4,2.5c-0.7,1-2.2,1.4-2.5,2.6
	c-0.3,0.9,0.3,1.9,0.7,2.8c0.3,0.8,0.4,1.8,0,2.4c1.4,2.3,3,4.5,4.7,6.6c0.6,0.7,1.5,1.6,2.3,1.2c0.4-0.2,0.6-0.5,0.8-0.9
	c0.7-1.1,1.3-2.3,2-3.4c0.6-0.9,1.9-1.8,2.4-2.7c0.4-0.8,0.1-1.4,0.2-2.3c0.1-1.4,1.1-1.8,1.5-2.9c0.2-0.5,0-1-0.1-1.5
	c-0.7-2.9-1.2-5.9-1.3-8.9c0-0.8,0.1-1.7,0.8-2c0.5-0.2,1.1,0.1,1.6-0.2c0.4-0.3,0.4-0.9,0.4-1.4c-0.1-2-0.2-4.1-0.3-6.1
	c-0.1-1.6-0.1-3.2,0.4-4.7c0.5-1.6,1.6-2.9,2.7-4.2c1.7-2,3.3-3.9,5-5.9c0.5-0.5,0.9-1.1,1.1-1.8
	C760.9,660.5,760.7,659.8,760.4,659.1z"/>
<path class="st4" d="M1818.1,714.2c-1.1-0.6-2.4-0.5-3.4-1.3c-2.9-2.5,2.3-8-0.4-10.8c-0.4-0.5-1-0.8-1.3-1.4
	c-0.3-0.8,0.2-1.7,0.2-2.5c-0.1-1-1-1.8-1.7-2.5c-0.1-0.1-0.3-0.3-0.4-0.4c-0.1,0.4-0.2,0.7-0.5,0.9c-0.2,0.2-0.5,0.2-0.7,0.3
	c-1.7,0.4-3.4,0.8-5,0.3c-1.2-0.4-2.3-1.2-3.2-2.2c-1.9-2-3.3-4.4-4.1-7.1c-0.6-2.1-0.9-4.3-1.2-6.5c-1-8.6-2-17.2-3-25.8
	c-0.5-4.6-1.1-9.3-0.3-13.9c0.1-0.7,0.3-1.5,0.9-1.8c1-0.6,2.2,0.3,2.9,1.2c0.7,0.9,1.5,2,2.7,1.9c0.8,0,1.5-0.7,1.8-1.5
	s0.3-1.6,0.3-2.5c0-2,0.2-4,1-5.7c0.8-1.8,2.4-3.3,4.3-3.6c0.6-0.1,1.3-0.1,1.8-0.4c0.9-0.5,1.2-1.6,1.3-2.6c0.1-1-0.1-2,0.2-3
	c0.1-0.2,0.2-0.4,0.3-0.5c-0.9-1.8-2.1-3.3-4-2.8c-0.5,0.1-1.1,0.4-1.6,0.2c-0.3-0.1-0.5-0.4-0.8-0.7c-1.1-1.1-3.1-0.4-4.2,0.6
	s-2.1,2.4-3.5,3.1s-3.6-0.1-3.5-1.7c-1.1-0.9-2.5,1.9-3.7,1.1c-0.3-0.2-0.4-0.5-0.6-0.8c-1-1.7-3.1-2.5-5.1-2.4s-3.8,0.9-5.6,1.8
	c-0.8,0.4-1.7,0.8-2.3,1.5c-1.3,1.8-0.1,4.3-0.4,6.5c-0.3,2.9-3.1,5.3-3,8.2c0.1,1.5,0.9,2.8,1.6,4.1c1.9,3.6,3.1,7.5,3.4,11.6
	c0.2,2.5,0.1,5,1,7.4c1,2.7,3.3,4.8,4.2,7.6c0.8,2.3,0.5,4.9,0.8,7.3c0.9,6.4,5.9,11.3,9.1,16.9c4.4,7.7,5.5,16.9,5.9,25.8
	c0,0.7,0.1,1.5,0.7,1.9c0.3,0.2,0.6,0.3,0.9,0.4c3.8,1.3,5.6,5.8,5.6,9.9s-1.5,8-2,12c-0.1,0.7-0.2,1.5,0.1,2.1
	c0.3,0.6,0.7,1,1.2,1.3c2.1,1.6,4.4,2.9,6.9,3.9c0.7,0.3,1.5,0.5,2,0.1c0.5-0.3,0.6-0.9,0.8-1.4c2-7.9,1.1-16.4,3.8-24
	c0.6-1.8,1.4-3.5,1.6-5.4C1820.4,717.1,1819.7,715,1818.1,714.2z"/>
<path class="st4" d="M780,653.9c-0.6-7.7-3.3-15-5.8-22.2c-0.2-0.6-0.4-1.2-0.3-1.9c0.2-0.9,1-1.5,1.7-2.1c3.7-3.3,3.4-10.1-0.6-13
	c-0.8-0.6-1.7-1.1-2.1-2c-0.7-1.6,0.7-3.3,1.5-5c0.7-1.5,0.9-3.2,1-4.9c0.3-4.4,0.7-8.8,1-13.1c0.1-1.7,0.2-3.4-0.4-4.9
	c-1.4-3.1-6.1-3.9-8.4-1.4c-1.2,1.4-1.9,3.5-3.6,4.1c-1.2,0.4-2.5-0.1-3.7-0.4c-3.8-0.8-7.6,1-10.8,3.2c-2.5,1.7-4.7,3.7-6.7,5.9
	c0.2,0.2,0.5,0.4,0.6,0.7c0.4,0.7,0.4,1.5,0.6,2.2c0.5,1.5,2.1,2.2,3.2,3.3c1.7,1.7,2.3,4.3,2.7,6.7c0.4,1.9,0.7,4,0,5.8
	c-0.3,0.8-0.9,1.6-1.2,2.5c-0.4,1.2-0.2,2.6,0,3.9c1,6,2,12,3,18.1c0.2,1.2,0.4,2.4,0.9,3.5c0.4,0.9,0.8,1.6,1.3,2.4
	c2.6,4.4,4.8,9.1,6.4,14c0.2,0.7,0.4,1.4,0.3,2c-0.1,0.7-0.6,1.2-1.1,1.8c-1.7,2-3.3,3.9-5,5.9c-1.1,1.3-2.2,2.6-2.7,4.2
	c-0.5,1.5-0.4,3.1-0.4,4.7c0.1,2,0.2,4.1,0.3,6.1c0,0.5,0,1.1-0.4,1.4c-0.5,0.3-1.1,0-1.6,0.2c-0.7,0.3-0.8,1.2-0.8,2
	c0.1,3,0.5,6,1.3,8.9c0.1,0.5,0.3,1,0.1,1.5c-0.4,1-1.2,1.5-1.4,2.6c0.5,0.9,1,1.8,1.6,2.7c0.7,1.1,1.5,2.6,0.9,3.8
	c-0.8,1.7-3.6,1.6-4.1,3.4c-0.3,1.2,0.7,2.4,1.6,3.2c1.5,1.3,2.9,2.6,4.4,3.9c1,0.9,2.1,1.9,2.5,3.2c0.3,1,0.2,2.1,0.3,3.2
	c0.2,2.6,1.5,5,3.1,7.1c1.1,1.5,2.5,2.8,4.3,3.4c1.8,0.6,3.9,0.1,4.9-1.4c1.6-2.5-0.6-5.7-2.3-8.2c-4-6-4.8-13.5-5.4-20.7
	c-0.1-1.2-0.2-2.5,0.2-3.6c0.3-1,1-1.8,1.7-2.6c1.6-1.9,3.2-3.8,4.8-5.7c0.3-0.4,0.6-0.8,0.6-1.3c0-0.6-0.6-1-0.8-1.5
	c-0.6-1.3,0.6-2.7,1.9-3.4c1.2-0.7,2.7-1.4,3-2.9s-1.2-2.9-1.2-4.4c0-1.4,1.3-2.5,2.3-3.5C778.6,669.8,780.6,661.6,780,653.9z"/>
<g>
	<path class="st4" d="M1814.2,686.7L1814.2,686.7L1814.2,686.7z"/>
	<path class="st4" d="M1810.6,696.2c0.1-0.1,0.2-0.2,0.2-0.3C1810.8,696,1810.7,696.1,1810.6,696.2z"/>
	<path class="st4" d="M1813.8,685.6c0,0.1,0.1,0.2,0.1,0.3C1813.9,685.8,1813.8,685.7,1813.8,685.6z"/>
	<path class="st4" d="M1811,695.6c0,0.1-0.1,0.2-0.1,0.2C1811,695.7,1811,695.6,1811,695.6z"/>
	<path class="st4" d="M1868,659.7c-0.5-1.8-1-3.6-1.5-5.3c-0.1-0.4-0.3-0.9-0.6-1.2c-0.9-0.6-1.9,0.4-2.9,0.9
		c-1.5,0.7-3.3,0.1-4.6-0.8c-1.4-0.9-2.5-2.2-4.1-2.8c-1.6-0.7-3.4-0.6-5.1-0.9c-0.1,0-0.1,0-0.2,0c-0.5,5.3-1,10.7-1.5,16
		c-0.1,0.9-0.2,1.9-0.7,2.6c-0.5,0.8-1.4,1.3-2.3,1.1c-0.4-0.1-0.7-0.4-1.1-0.4c-1-0.1-1.4,1.3-1.2,2.2c0.1,1,0.4,2.1-0.3,2.8
		c-0.4,0.4-1,0.5-1.4,0.8c-0.7,0.5-0.9,1.3-1,2.1c-0.6,3.1-0.4,6.4,0.4,9.5c-0.7-0.8-2,0-2.3,1s0,2-0.3,3c-0.4,1.8-2.4,2.9-4.3,2.8
		c-1.9,0-3.6-0.9-5.2-1.7c-1.2,1,1,2.7,0.9,4.3c-0.1,1.7-2.7,1.8-4.1,0.8c-1.3-1-2.3-2.7-3.9-3.1c-0.9-0.2-2-0.1-2.8-0.6
		c-0.5-0.3-0.8-0.8-1.1-1.3c-0.7-1.2-1.5-2.4-2-3.6c-0.8,0.9-1.5,1.8-2.1,2.7c-0.7,1.3-1.2,2.7-1.4,4.2c0,0.2,0,0.4-0.1,0.6l0,0
		c0.1,0.1,0.2,0.3,0.4,0.4c0.8,0.7,1.6,1.5,1.7,2.5c0.1,0.9-0.5,1.7-0.2,2.5c0.2,0.6,0.8,0.9,1.3,1.4c2.6,2.8-2.6,8.4,0.4,10.8
		c0.9,0.8,2.3,0.8,3.4,1.3c1.7,0.9,2.3,3,2.2,4.8c-0.2,1.9-1,3.6-1.6,5.4c-0.2,0.6-0.4,1.3-0.6,1.9c0.6,0.5,1.3,1.1,1.9,1.6
		c0.3,0.2,0.7,0.5,0.7,0.9c0.1,0.3-0.1,0.7-0.2,1c-0.8,1.7-1.8,3.7-0.7,5.3c0.4,0.6,1.1,1,1.7,1.3c3.7,1.8,8,2.5,12.1,2
		c-0.1-3.2,3.1-5.3,5.9-6.8c0.6-0.3,1.3-0.7,2-0.6c0.7,0,1.3,0.5,2,0.6c2,0.5,3.8-1.4,4.4-3.3c0.6-1.9,0.3-4,0.7-6
		c0.4-2,1.7-4.1,3.7-4.2c0.3,0,0.6,0,0.9-0.2s0.4-0.7,0.4-1.1c0.2-2.8,0.3-6.1-1.9-7.9c-0.6-0.5-1.4-0.9-1.8-1.6
		c-0.3-0.5-0.4-1.2-0.5-1.8c-0.3-3.2-0.6-6.5-1-9.7c-0.1-0.5-0.1-1.2,0.3-1.5c0.3-0.3,0.9-0.3,1.3-0.4c1.3-0.5,1.5-2.3,1.2-3.7
		s-0.8-2.9-0.1-4.1c0.3-0.5,0.8-0.9,1.2-1.3c0.6-0.7,0.9-1.7,1.2-2.7c0.8-3.3,0.9-6.7,0.4-10.1c-0.3-1.7-0.7-3.4-0.4-5.1
		c0.3-1.7,1.8-3.3,3.5-3.1c1.1,0.1,1.9,0.9,2.8,1.5s2.2,0.9,3,0.1c0.7-0.7,0.6-1.8,0.5-2.7c1.3-0.4,2.5-0.8,3.8-1.2
		c0.4-0.1,0.8-0.3,0.9-0.6C1868.2,660.4,1868.1,660,1868,659.7z"/>
	<path class="st4" d="M1813.5,684c0,0.3,0.1,0.6,0.2,1C1813.6,684.6,1813.5,684.3,1813.5,684z"/>
</g>
<g>
	<path class="st4" d="M750.4,697.8c-0.1,0.1-0.1,0.3-0.2,0.4C750.3,698.1,750.3,698,750.4,697.8z"/>
	<path class="st4" d="M736.8,701.1L736.8,701.1L736.8,701.1z"/>
	<path class="st4" d="M736.8,700.5C736.8,700.4,736.8,700.4,736.8,700.5C736.8,700.4,736.8,700.4,736.8,700.5z"/>
	<path class="st4" d="M748.9,700.4c0.2-0.9,0.8-1.4,1.2-2.1C749.7,699,749.1,699.5,748.9,700.4z"/>
	<path class="st4" d="M763.4,734.2c-1.8-0.6-3.1-1.9-4.3-3.4c-1.6-2.1-2.9-4.5-3.1-7.1c-0.1-1.1,0-2.2-0.3-3.2
		c-0.4-1.3-1.5-2.3-2.5-3.2c-1.5-1.3-2.9-2.6-4.4-3.9c-0.9-0.8-2-2-1.6-3.2c0.5-1.8,3.3-1.8,4.1-3.4c0.6-1.2-0.2-2.6-0.9-3.8
		c-0.5-0.9-1.1-1.8-1.6-2.7c0,0.1,0,0.2-0.1,0.3c-0.1,0.9,0.2,1.5-0.2,2.3c-0.5,0.9-1.7,1.8-2.4,2.7c-0.7,1.1-1.4,2.3-2,3.4
		c-0.2,0.3-0.4,0.7-0.8,0.9c-0.9,0.4-1.7-0.4-2.3-1.2c-1.6-2.1-3.3-4.3-4.7-6.6l0,0c-0.1,0.1-0.2,0.2-0.3,0.3
		c-0.5,0.3-1.1,0.1-1.6,0c-3.4-0.8-7.1-2-8.7-5c-0.4-0.9-0.7-1.9-1.3-2.6c-0.8-0.9-2-1.2-2.8-2c-0.8-0.7-1.2-1.7-1.8-2.6
		c-0.6-0.9-1.6-1.6-2.7-1.3c-3.7-7.3-2.2-16-1.6-24.1c0.2-2.2,0.1-4.9-1.8-6.1c-1.3-0.8-3.1-1.4-4.6-0.8c-4.3,1.8-0.8-6.2-7.4-3.6
		c-0.3,0.1-0.6-0.4-0.8-0.8c-0.2-0.4-0.2-0.9-0.1-1.3c0.3-2.2,1.1-4.4,1.2-6.6c0.1-2.2-0.9-4.8-3.1-5.5c1.1-3.1,1.6-6.5,1.5-9.8
		c-3.1,1.7-6.8,4.8-11.8,7.2c-8.2,5.9,1.9,7.9,1.1,15.2c-5.4,5-7.7,27.3,8.7,18.2c9.9,42.7-3.7,15.6,19.7,46
		c16.7,25.1,14.6,34.4,30.5,43.2c13.6-12.8,16.9-18.2,15.7-25.5C764.2,734.4,763.8,734.4,763.4,734.2z"/>
</g>
<path class="st4" d="M1831.6,275.8c0.4,9.6,0.1,19.3,1.8,28.7c1.5,8.6,4.7,16.9,7.8,25.1c6.4,16.9,12.9,33.9,21.1,50.1
	c3,5.9,6.2,11.6,8.7,17.7c5.1,12.7,6.8,26.5,11.7,39.2c3.1,7.9,7.3,15.2,11,22.8c8.7,18,13.9,37.5,19.1,56.8
	c-3.5,0.1-6.5-2.5-8.4-5.4c-1.9-2.9-3.1-6.2-5.2-9c-4.2-5.6-11.9-9.5-12.1-16.4c-0.1-2.1,0.6-4.2,0.6-6.3c0-3.7-2.1-7-4.1-10
	c-3-4.5-6-9.1-8.9-13.6c-1.9-2.9-4.7-6.2-8.1-5.6c-0.8,1.6-1.5,3.2-2.3,4.8c-6.5-5.4-12.3-11.8-17-18.8c-4.5-6.7-8.1-14.1-10.6-21.8
	c-0.9-2.7-2.1-5.9-4.8-6.7c-2.3-0.6-5.3,0.5-6.8-1.4c-1.4-1.8,0.3-4.4,0.5-6.6c0.6-5.4-6.5-8.1-8.9-12.9c-2.3-4.8,0.3-10.8-1.7-15.7
	c-3.1-7.6-15.1-8-18.6-15.5c-0.6-1.4-1-2.9-2-4c-0.7-0.7-1.7-1.1-2.2-1.9c-1.3-1.8,0.1-4.2,1.2-6.2c4-7.3,3.3-16.3,1.2-24.3
	c-2.1-8-5.6-15.7-7.1-23.9c-2.1-11.5,0-23.4,2-34.9c1.3-7.4,2.7-15.1,7.1-21.1c4.8-6.6,12.5-10.4,20.1-13.6
	c10.1-4.3,9.9,10.9,11.2,17.7C1829.9,253.8,1831.2,264.8,1831.6,275.8z"/>
<path class="st4" d="M1929.9,521.6c-0.9-3.9-1.8-8-1-11.9c-5.5-2.5-6.3-9.7-7-15.7c-3.9-32.9-26.4-61.2-31.5-94
	c-1.4-8.7-1.4-17.7-3.3-26.4c-4.6-21.9-19.6-40.1-27.8-60.9c-4.6-11.6-6.9-24-9.3-36.2c-2.8-14.3-5.5-28.6-8.3-43
	c-1.7-9-3.5-18.1-2.7-27.2c0.4-4.9,0.9-11.3-3.6-13.4c-4-1.9-8.7,2-9.9,6.3c-1.1,4.3,0,8.9,0.1,13.3c0.1,5.2-1.4,8.9-3.3,12.7
	c4.2,2.8,4.4,12.6,5.4,17.7c2.2,10.8,3.5,21.8,3.9,32.8c0.4,9.6,0.1,19.3,1.8,28.7c1.5,8.6,4.7,16.9,7.8,25.1
	c6.4,16.9,12.9,33.9,21.1,50.1c3,5.9,6.2,11.6,8.7,17.7c5.1,12.7,6.8,26.5,11.7,39.2c3.1,7.9,7.3,15.2,11,22.8
	c8.7,18,13.9,37.5,19.1,56.8c0,0-0.1,0-0.1,0c1,2.4,2,4.8,3,7.3c1.6,3.9,3.2,7.8,3.9,11.9c0.2,1.3,0.4,2.7,0.9,3.9
	c0.6,1.4,1.7,2.5,2.8,3.6c4.2,4,8.9,7.4,14.1,10.1C1934.8,542.4,1932.3,532,1929.9,521.6z"/>
<path class="st4" d="M1835.4,193c4.5,2.1,4.1,8.5,3.6,13.4c-0.8,9.1,0.9,18.2,2.7,27.2c2.8,14.3,5.5,28.6,8.3,43
	c2.4,12.3,4.7,24.6,9.3,36.2c8.2,20.8,23.3,39,27.8,60.9c1.8,8.7,1.9,17.6,3.3,26.4c5.1,32.8,27.6,61.1,31.5,94
	c0.7,6,1.5,13.2,7,15.7c-0.8,3.9,0.1,8,1,11.9c1.4,5.9,2.8,11.7,4.2,17.6c14.1-33.7,8-72.5-4.1-106.9c-12.2-34.5-30.1-66.9-40-102.2
	c-6.1-21.7-9-44.1-12-66.4c-1.9-14.1-4-28.2-8.2-41.8c-1.4-4.4-3-8.8-5.6-12.5c-1-1.4-2.2-2.8-2.7-4.4c-0.9-2.5-0.2-5.2,0.4-7.8
	c1.8-7.1,4.6-15.4,11.7-17.3c-3.9-4.3-7.9-8.6-11.8-12.8c1.8,4.5,0.2,10.2-3.7,13c-3.1,2.2-7.1,2.7-10.8,3.9
	c-2.8,0.9-5.5,2.4-7.9,4.2c-1.7,1.3-3,2.9-3.9,4.7C1835.3,192.9,1835.4,193,1835.4,193z"/>
<g>
	<polygon class="st4" points="1927.7,509.1 1927.7,509.1 1927.7,509.1 	"/>
	<path class="st4" d="M1945.7,431.9c-4.3-12.5-10.1-24.4-14.7-36.7c-3.6-9.6-6.5-19.6-11.2-28.8c-2.6-5.2-5.9-10.1-8.1-15.5
		c-1.9-4.5-3.1-9.2-4.2-13.9c-4.2-16.7-8.3-33.6-8.4-50.8c0-12,1.9-24.1-0.3-35.8c-2-10.6-7.3-20.5-7.9-31.3
		c-0.5-8.8,4.9-20.9,1.8-29.3c-2.1-5.6-11.7-9.5-17.1-10.1c-0.9-0.1-1.7-0.1-2.6-0.1c0.1,0.1,0.2,0.3,0.4,0.4
		c-7.1,1.9-9.9,10.2-11.7,17.3c-0.6,2.6-1.3,5.3-0.4,7.8c0.6,1.6,1.7,3,2.7,4.4c2.7,3.8,4.3,8.1,5.6,12.5
		c4.2,13.6,6.2,27.7,8.2,41.8c3.1,22.3,6,44.7,12,66.4c9.9,35.2,27.8,67.7,40,102.2c12.1,34.4,18.2,73.3,4.1,106.9
		c0.8,3.5,1.6,6.9,2.5,10.4c2.6,1.5,5.5,2.2,8.4,1.5c8.4-2.1,10.5-12.9,10.9-21.6C1957,496.6,1956.3,463,1945.7,431.9z"/>
</g>
<path class="st4" d="M1997,188.3c-16.4-18-36.4-32.6-58.5-42.9c-1.7-0.8-3.3-1.5-5.1-2c-1.7-0.5-3.5-0.7-5.2-0.9
	c-4.8-0.6-9.5-1.2-14.3-1.7c1.9,6.7,2.2,16.2-4.5,18c3.6,4.7,0.4,11.4-3.2,16.2c-4,5.4-8.3,11-13.2,15.9c2.4,8.3-2.6,19.7-2.1,28.2
	c0.6,10.8,5.9,20.7,7.9,31.3c2.2,11.8,0.3,23.9,0.3,35.8c0.1,17.2,4.2,34.1,8.4,50.8c1.2,4.7,2.4,9.5,4.2,13.9
	c2.2,5.4,5.4,10.3,8.1,15.5c4.7,9.2,7.6,19.1,11.2,28.8c4.6,12.3,10.4,24.2,14.7,36.7c10.6,31.2,11.3,64.8,10.1,97.7
	c-0.3,6.7-1.6,14.6-6,18.9c3.4,3.2,8.7,4.5,12.3,1.7c6.7-5,1.4-15.6,2.5-23.9c1-7.6,7.5-13.2,10.8-20.1c6.9-14.8-2-31.7-3.7-47.9
	c-1.1-10.5,0.9-21.1-0.4-31.6c-1.5-11.9-7.2-22.7-12.4-33.5c-7.6-15.7-14.4-31.7-20.3-48.1c-2.7-7.5-5.3-15-6.8-22.8
	c-3.2-16.5-1.7-33.4-0.1-50.2c0.8-8.2,1.5-16.5,4.7-24c5.1-12.1,15.7-20.9,26.2-28.8c10.2-7.6,20.8-15.1,33-18.6
	c1.4-0.4,2.8-0.8,3.9-1.8C2002.4,196,1999.7,191.3,1997,188.3z"/>
<path class="st4" d="M661.6,473.4c15-31.5,27.8-64.1,38.2-97.4c4.1-13.1,7.9-26.6,15.2-38.3c2.6-4.1,5.6-8,7.2-12.6
	c2-5.7,1.8-12,2.8-17.9c1.6-9.2,6.4-17.6,9.4-26.5c2.7-8,4-16.4,5.2-24.7c4.4-29.2,8.8-58.4,13.2-87.5c0.3-1.7,0.6-3.5,1.6-4.9
	c3.3-4.2,9.9-1,14,2.4c7,5.8,14.4,12.1,17,20.8c1,3.3,1.3,6.8,2.4,10c3.5,10.2,14.9,17,16.1,27.7c0.7,6.4-2.5,12.4-5.6,18.1
	c-10.2,18.7-20.5,38.6-20.4,59.9c0.1,14.6-14.3,25.3-21.4,38c-5.8,10.4-11.6,20.8-18.8,30.3c-3.7,4.8-7.7,9.4-11.6,14.1
	c-22.3,26.5-41.8,56.5-49.3,90.3C672.4,475.1,665.8,473.3,661.6,473.4z"/>
<path class="st4" d="M661.6,473.4c15-31.5,27.8-64.1,38.2-97.4c4.1-13.1,7.9-26.6,15.2-38.3c2.6-4.1,5.6-8,7.2-12.6
	c2-5.7,1.8-12,2.8-17.9c1.6-9.2,6.4-17.6,9.4-26.5c2.7-8,4-16.4,5.2-24.7c4.4-29.2,8.8-58.4,13.2-87.5c0-0.2,0.1-0.4,0.1-0.6
	c-0.4-0.4-0.9-0.8-1.4-1.1c-3.3-2.2-8.3-3.1-9.3-7c-1.1-4,2.9-7.2,5.2-10.7c5.7-8.8-0.3-20.2-6.1-28.8c-1.2-1.8-2.5-3.6-4.3-4.5
	c-6.7-3.4-16.1,5.3-22.5,6.6c7.5,6.2,13.2,12.4,18.5,20.7c3.2,5.1,6.5,11.8,3,16.7c-2.2,3.1-6.6,4.5-7.6,8.2c-0.4,1.7,0,3.4,0.3,5.2
	c3.3,18.2-8.3,35.3-12.7,53.2c-3.1,12.7-2.6,26-5.8,38.6c-3.8,15-12.7,28.5-15.9,43.7c-1.4,6.7-1.7,13.7-3.3,20.4
	c-1.7,7.1-4.8,13.7-7.3,20.5c-5.3,14.2-8,29.3-11.3,44.1c-5.7,25.6-13.1,50.9-22.1,75.6c-1.4,3.7-2.8,7.4-5.2,10.5
	c-2.6,3.3-6.1,5.7-9.2,8.5c-7.8,7.1-12.8,17-14,27.4c5.2-2.7,10.4-5.4,15.1-8.8c11.7-8.5,19.7-20.7,26.8-33.4
	C662.9,473.4,662.2,473.4,661.6,473.4z"/>
<path class="st4" d="M625.5,502.1c2.4-5.2,5.9-9.9,10.1-13.8c3.1-2.8,6.6-5.2,9.2-8.5c2.4-3.1,3.8-6.8,5.2-10.5
	c9.1-24.7,16.4-49.9,22.1-75.6c3.3-14.8,6-29.8,11.3-44.1c2.5-6.8,5.6-13.5,7.3-20.5c1.6-6.7,1.9-13.7,3.3-20.4
	c3.2-15.2,12.1-28.6,15.9-43.7c3.2-12.6,2.7-26,5.8-38.6c4.4-17.9,16-35.1,12.7-53.2c-0.3-1.7-0.8-3.5-0.3-5.2
	c1-3.7,5.4-5.1,7.6-8.2c3.5-4.9,0.3-11.6-3-16.7c-5.2-8.2-10.9-14.4-18.3-20.5c-3.8,0-7.7,0.6-11.4,1.5c-2.7,0.7-8.1,1.6-10.1,3.6
	c-1.2,1.2-3,9.4-2.7,9.4c6.8-0.7,13.6,4.7,14.3,11.5c0.6,5.5-2.2,10.6-4.6,15.6c-19.9,40.7-16,88.7-26.4,132.8
	c-5.5,23.1-14.9,45.1-23.1,67.4c-16.3,44.3-28.1,91.1-26.6,138.3C624.5,502.5,625,502.3,625.5,502.1z"/>
<g>
	<path class="st4" d="M627.6,498.1c-0.1,0.1-0.1,0.2-0.2,0.3C627.5,498.3,627.6,498.2,627.6,498.1z"/>
	<path class="st4" d="M628.8,496.3c-0.1,0.1-0.2,0.3-0.3,0.4C628.6,496.6,628.7,496.4,628.8,496.3z"/>
	<path class="st4" d="M630,494.5c-0.1,0.1-0.2,0.3-0.3,0.4C629.8,494.8,629.9,494.7,630,494.5z"/>
	<path class="st4" d="M626.5,500.1c0,0.1-0.1,0.1-0.1,0.2C626.5,500.2,626.5,500.1,626.5,500.1z"/>
	<path class="st4" d="M641.5,483.3L641.5,483.3c-0.5,0.4-0.9,0.8-1.4,1.2C640.6,484.1,641,483.7,641.5,483.3z"/>
	<path class="st4" d="M633.7,490.2c0.1-0.1,0.3-0.3,0.4-0.4C634,489.9,633.9,490,633.7,490.2z"/>
	<path class="st4" d="M638.3,486c0.5-0.4,1-0.9,1.6-1.3C639.4,485.1,638.9,485.5,638.3,486z"/>
	<path class="st4" d="M631.3,492.9c-0.1,0.2-0.3,0.3-0.4,0.5C631.1,493.2,631.2,493,631.3,492.9z"/>
	<path class="st4" d="M621.7,515.8c0.5-4.7,1.9-9.3,3.9-13.6c0,0,0,0,0,0c-0.5,0.2-1,0.4-1.6,0.6c-1.5-47.2,10.3-94,26.6-138.3
		c8.2-22.3,17.6-44.3,23.1-67.4c10.4-44.1,6.5-92.1,26.4-132.8c2.4-4.9,5.2-10.1,4.6-15.6c-0.8-6.7-7.6-12.2-14.3-11.5
		c-0.2,0,1.3-7.1,2.5-9c-1-0.1-1.9-0.1-2.7-0.1c-6.8-0.1-13.9,2.5-17.8,8c-2.8,4-3.5,9-4.2,13.8c-2.6,17.4-5.1,34.9-5.8,52.6
		c-0.4,9.4-0.2,18.8-1.9,28.1c-1.2,6.7-3.5,13.3-4.3,20c-1.1,8.5-0.1,17.2-0.6,25.8c-0.6,9.9-3.4,19.5-6.2,29
		c-2.9,9.9-5.7,19.9-8.6,29.8c-0.9,3-1.7,6-3.1,8.7c-1.8,3.5-4.3,6.6-6.3,10c-7.2,12.6-5.7,28.1-7.5,42.5
		c-2.4,19.6-11,38.1-12.3,57.7c-0.4,7,0.1,13.9-0.4,20.9c-0.9,13-5.5,25.8-13,36.5c6.2,1.7,12.3,3.3,18.5,5c1.4,0.4,3,0.8,4.4,0.3
		c1-0.3,1.8-1,2.5-1.7c0.2-0.1,0.3-0.3,0.5-0.4C623.1,515,622.4,515.4,621.7,515.8z"/>
	<path class="st4" d="M632.7,491.3c-0.1,0.2-0.3,0.3-0.4,0.5C632.4,491.6,632.6,491.4,632.7,491.3z"/>
	<path class="st4" d="M637.7,486.6c-0.2,0.2-0.4,0.4-0.7,0.6C637.2,486.9,637.4,486.7,637.7,486.6z"/>
</g>
<path class="st4" d="M611,475c0.5-6.9,0-13.9,0.4-20.9c1.2-19.7,9.9-38.2,12.3-57.7c1.7-14.4,0.2-29.9,7.5-42.5
	c2-3.4,4.5-6.5,6.3-10c1.4-2.8,2.3-5.8,3.1-8.7c2.9-9.9,5.7-19.9,8.6-29.8c2.8-9.5,5.5-19.1,6.2-29c0.6-8.6-0.5-17.3,0.6-25.8
	c0.9-6.8,3.1-13.3,4.3-20c1.7-9.2,1.6-18.7,1.9-28.1c0.7-17.6,3.3-35.1,5.8-52.6c0.6-4.1,1.3-8.3,3.1-11.9c-0.3-1.6-0.4-3.6-0.4-6
	c-0.1-9.3-2.8-18.5-7.9-26.2c6.1-2.1,8.3-10.4,5.5-16.3c-2.7-5.9-8.8-9.5-14.9-11.5c-19.3-6.6-41.3-1.3-58.2,10.3
	c-11,7.5-20.2,17.5-26.8,29.1c-0.7,1.2-1.4,2.5-1.4,3.9c0,3.3,3.6,5.3,6.4,7.1c14.5,9.4,17.5,31.3,32.7,39.6
	c2.6,1.4,5.5,2.4,7.3,4.7c1.6,2,2.1,4.7,2.6,7.3c2.8,16.3,5.6,32.5,8.4,48.8c2.5,14.4,4.9,29.3,1.3,43.4c-2.1,8.4-6.4,16.1-7.8,24.6
	c-1.5,8.6,0,17.8-3.2,26c-3.2,8.2-10.6,14.1-13.8,22.2c-1.7,4.3-2.1,9-2.6,13.7c-4.1,44.9-8.1,89.7-12.2,134.6
	c-0.2,2.1-0.4,4.3,0.5,6.3c0.8,1.8,2.4,3.2,4,4.4c2.8,2.1,5.9,3.8,9.1,5.2C606.2,498.7,610.1,487,611,475z"/>
</svg>
